ISO-10303-21;
HEADER;
FILE_DESCRIPTION(('CATIA V5 STEP Exchange'),'2;1');

FILE_NAME('E:\\2026\\2026\X2\65B08F745B50\X0\\\\X2\591A65CB7FFC59078D5B8BB05F55\X0\\\\X2\7ED36784\X0\\\\X2\68684FDD\X0\2.0\\prop_guard.stp','2026-05-02T03:52:21+00:00',('none'),('none'),'CATIA Version 5 Release 21 GA (IN-10)','CATIA V5 STEP AP203','none');

FILE_SCHEMA(('CONFIG_CONTROL_DESIGN'));

ENDSEC;
/* file written by CATIA V5R21 */
DATA;
#5=PRODUCT('prop_guard','','',(#2)) ;
#1=APPLICATION_CONTEXT('configuration controlled 3D design of mechanical parts and assemblies') ;
#14=PRODUCT_DEFINITION('',' ',#6,#3) ;
#16=SECURITY_CLASSIFICATION(' ',' ',#15) ;
#15=SECURITY_CLASSIFICATION_LEVEL('unclassified') ;
#47=CARTESIAN_POINT(' ',(0.,0.,0.)) ;
#52=CARTESIAN_POINT('Axis2P3D Location',(0.,0.,52.)) ;
#57=CARTESIAN_POINT('Line Origine',(205.681033399,118.75,52.)) ;
#61=CARTESIAN_POINT('Vertex',(203.515969889,117.5,52.)) ;
#63=CARTESIAN_POINT('Vertex',(207.846096908,120.,52.)) ;
#66=CARTESIAN_POINT('Axis2P3D Location',(0.,0.,52.)) ;
#70=CARTESIAN_POINT('Vertex',(-207.846096908,120.,52.)) ;
#73=CARTESIAN_POINT('Line Origine',(-205.681033399,118.75,52.)) ;
#77=CARTESIAN_POINT('Vertex',(-203.515969889,117.5,52.)) ;
#80=CARTESIAN_POINT('Axis2P3D Location',(0.,0.,52.)) ;
#92=CARTESIAN_POINT('Axis2P3D Location',(0.,0.,1.)) ;
#97=CARTESIAN_POINT('Line Origine',(-18.1865334795,10.5,1.)) ;
#101=CARTESIAN_POINT('Vertex',(-18.1865334795,10.5,0.)) ;
#103=CARTESIAN_POINT('Vertex',(-18.1865334795,10.5,2.)) ;
#106=CARTESIAN_POINT('Axis2P3D Location',(0.,0.,0.)) ;
#110=CARTESIAN_POINT('Vertex',(18.1865334795,10.5,0.)) ;
#113=CARTESIAN_POINT('Line Origine',(18.1865334795,10.5,1.)) ;
#117=CARTESIAN_POINT('Vertex',(18.1865334795,10.5,2.)) ;
#120=CARTESIAN_POINT('Axis2P3D Location',(0.,0.,2.)) ;
#132=CARTESIAN_POINT('Axis2P3D Location',(0.,0.,0.)) ;
#137=CARTESIAN_POINT('Line Origine',(-112.702405638,65.0687642333,0.)) ;
#141=CARTESIAN_POINT('Vertex',(-207.218277796,119.637528467,0.)) ;
#144=CARTESIAN_POINT('Axis2P3D Location',(3.77790211683E-029,-1.44337567297,0.)) ;
#148=CARTESIAN_POINT('Vertex',(207.218277796,119.637528467,0.)) ;
#151=CARTESIAN_POINT('Line Origine',(112.702405638,65.0687642333,0.)) ;
#162=CARTESIAN_POINT('Axis2P3D Location',(9.9970926301,7.50387492867,0.)) ;
#166=CARTESIAN_POINT('Vertex',(11.4970926301,7.50387492867,0.)) ;
#168=CARTESIAN_POINT('Vertex',(8.4970926301,7.50387492867,0.)) ;
#171=CARTESIAN_POINT('Axis2P3D Location',(9.9970926301,7.50387492867,0.)) ;
#180=CARTESIAN_POINT('Axis2P3D Location',(0.,0.,0.)) ;
#184=CARTESIAN_POINT('Vertex',(6.,0.,0.)) ;
#186=CARTESIAN_POINT('Vertex',(-6.,7.34763812293E-016,0.)) ;
#189=CARTESIAN_POINT('Axis2P3D Location',(0.,0.,0.)) ;
#198=CARTESIAN_POINT('Axis2P3D Location',(8.83883476483,-8.83883476483,0.)) ;
#202=CARTESIAN_POINT('Vertex',(8.83883476483,-10.3388347648,0.)) ;
#204=CARTESIAN_POINT('Vertex',(8.83883476483,-7.33883476483,0.)) ;
#207=CARTESIAN_POINT('Axis2P3D Location',(8.83883476483,-8.83883476483,0.)) ;
#216=CARTESIAN_POINT('Axis2P3D Location',(-9.9970926301,7.50387492867,0.)) ;
#220=CARTESIAN_POINT('Vertex',(-11.4970926301,7.50387492867,0.)) ;
#222=CARTESIAN_POINT('Vertex',(-8.4970926301,7.50387492867,0.)) ;
#225=CARTESIAN_POINT('Axis2P3D Location',(-9.9970926301,7.50387492867,0.)) ;
#234=CARTESIAN_POINT('Axis2P3D Location',(-8.83883476483,-8.83883476483,0.)) ;
#238=CARTESIAN_POINT('Vertex',(-8.83883476483,-10.3388347648,0.)) ;
#240=CARTESIAN_POINT('Vertex',(-8.83883476483,-7.33883476483,0.)) ;
#243=CARTESIAN_POINT('Axis2P3D Location',(-8.83883476483,-8.83883476483,0.)) ;
#252=CARTESIAN_POINT('Axis2P3D Location',(12.5,25.,0.)) ;
#256=CARTESIAN_POINT('Vertex',(14.,25.,0.)) ;
#258=CARTESIAN_POINT('Vertex',(11.,25.,0.)) ;
#261=CARTESIAN_POINT('Axis2P3D Location',(12.5,25.,0.)) ;
#270=CARTESIAN_POINT('Axis2P3D Location',(-12.5,25.,0.)) ;
#274=CARTESIAN_POINT('Vertex',(-11.,25.,0.)) ;
#276=CARTESIAN_POINT('Vertex',(-14.,25.,0.)) ;
#279=CARTESIAN_POINT('Axis2P3D Location',(-12.5,25.,0.)) ;
#288=CARTESIAN_POINT('Line Origine',(16.,23.2038599567,0.)) ;
#292=CARTESIAN_POINT('Vertex',(16.,32.8062494046,0.)) ;
#294=CARTESIAN_POINT('Vertex',(16.,13.6014705087,0.)) ;
#297=CARTESIAN_POINT('Line Origine',(108.800020831,67.1795875163,0.)) ;
#301=CARTESIAN_POINT('Vertex',(201.600041662,120.757704524,0.)) ;
#304=CARTESIAN_POINT('Axis2P3D Location',(0.,0.,0.)) ;
#308=CARTESIAN_POINT('Vertex',(2.5,234.986701751,0.)) ;
#311=CARTESIAN_POINT('Line Origine',(2.5,135.700492332,0.)) ;
#315=CARTESIAN_POINT('Vertex',(2.5,36.4142829121,0.)) ;
#318=CARTESIAN_POINT('Axis2P3D Location',(0.,0.,0.)) ;
#330=CARTESIAN_POINT('Axis2P3D Location',(0.,0.,0.)) ;
#334=CARTESIAN_POINT('Vertex',(-16.,32.8062494046,0.)) ;
#336=CARTESIAN_POINT('Vertex',(-2.5,36.4142829121,0.)) ;
#339=CARTESIAN_POINT('Line Origine',(-2.5,135.700492332,0.)) ;
#343=CARTESIAN_POINT('Vertex',(-2.5,234.986701751,0.)) ;
#346=CARTESIAN_POINT('Axis2P3D Location',(0.,0.,0.)) ;
#350=CARTESIAN_POINT('Vertex',(-201.600041662,120.757704524,0.)) ;
#353=CARTESIAN_POINT('Line Origine',(-108.800020831,67.1795875163,0.)) ;
#357=CARTESIAN_POINT('Vertex',(-16.,13.6014705087,0.)) ;
#360=CARTESIAN_POINT('Line Origine',(-16.,23.2038599567,0.)) ;
#373=CARTESIAN_POINT('Axis2P3D Location',(3.77790211683E-029,-1.44337567297,1.)) ;
#378=CARTESIAN_POINT('Line Origine',(207.218277796,119.637528467,1.)) ;
#382=CARTESIAN_POINT('Vertex',(207.218277796,119.637528467,2.)) ;
#385=CARTESIAN_POINT('Line Origine',(-207.218277796,119.637528467,1.)) ;
#389=CARTESIAN_POINT('Vertex',(-207.218277796,119.637528467,2.)) ;
#392=CARTESIAN_POINT('Axis2P3D Location',(3.77790211683E-029,-1.44337567297,2.)) ;
#396=CARTESIAN_POINT('Vertex',(-205.746095644,122.122574844,2.)) ;
#399=CARTESIAN_POINT('Axis2P3D Location',(3.77790211683E-029,-1.44337567297,2.)) ;
#403=CARTESIAN_POINT('Vertex',(-2.5,238.54360314,2.)) ;
#406=CARTESIAN_POINT('Axis2P3D Location',(3.77790211683E-029,-1.44337567297,2.)) ;
#410=CARTESIAN_POINT('Vertex',(2.5,238.54360314,2.)) ;
#413=CARTESIAN_POINT('Axis2P3D Location',(3.77790211683E-029,-1.44337567297,2.)) ;
#417=CARTESIAN_POINT('Vertex',(205.746095644,122.122574844,2.)) ;
#420=CARTESIAN_POINT('Axis2P3D Location',(3.77790211683E-029,-1.44337567297,2.)) ;
#436=CARTESIAN_POINT('Axis2P3D Location',(9.9970926301,7.50387492867,1.)) ;
#441=CARTESIAN_POINT('Axis2P3D Location',(9.9970926301,7.50387492867,2.)) ;
#445=CARTESIAN_POINT('Vertex',(8.4970926301,7.50387492867,2.)) ;
#447=CARTESIAN_POINT('Vertex',(11.4970926301,7.50387492867,2.)) ;
#450=CARTESIAN_POINT('Line Origine',(11.4970926301,7.50387492867,1.)) ;
#455=CARTESIAN_POINT('Line Origine',(8.4970926301,7.50387492867,1.)) ;
#467=CARTESIAN_POINT('Axis2P3D Location',(9.9970926301,7.50387492867,2.)) ;
#479=CARTESIAN_POINT('Axis2P3D Location',(0.,0.,1.)) ;
#484=CARTESIAN_POINT('Axis2P3D Location',(0.,0.,2.)) ;
#488=CARTESIAN_POINT('Vertex',(-6.,7.34763812293E-016,2.)) ;
#490=CARTESIAN_POINT('Vertex',(6.,0.,2.)) ;
#493=CARTESIAN_POINT('Line Origine',(6.,-1.46952762459E-015,1.)) ;
#498=CARTESIAN_POINT('Line Origine',(-6.,7.34763812293E-016,1.)) ;
#510=CARTESIAN_POINT('Axis2P3D Location',(0.,0.,2.)) ;
#522=CARTESIAN_POINT('Axis2P3D Location',(8.83883476483,-8.83883476483,1.)) ;
#527=CARTESIAN_POINT('Axis2P3D Location',(8.83883476483,-8.83883476483,2.)) ;
#531=CARTESIAN_POINT('Vertex',(8.83883476483,-7.33883476483,2.)) ;
#533=CARTESIAN_POINT('Vertex',(8.83883476483,-10.3388347648,2.)) ;
#536=CARTESIAN_POINT('Line Origine',(8.83883476483,-10.3388347648,1.)) ;
#541=CARTESIAN_POINT('Line Origine',(8.83883476483,-7.33883476483,1.)) ;
#553=CARTESIAN_POINT('Axis2P3D Location',(8.83883476483,-8.83883476483,2.)) ;
#565=CARTESIAN_POINT('Axis2P3D Location',(-9.9970926301,7.50387492867,1.)) ;
#570=CARTESIAN_POINT('Axis2P3D Location',(-9.9970926301,7.50387492867,2.)) ;
#574=CARTESIAN_POINT('Vertex',(-8.4970926301,7.50387492867,2.)) ;
#576=CARTESIAN_POINT('Vertex',(-11.4970926301,7.50387492867,2.)) ;
#579=CARTESIAN_POINT('Line Origine',(-11.4970926301,7.50387492867,1.)) ;
#584=CARTESIAN_POINT('Line Origine',(-8.4970926301,7.50387492867,1.)) ;
#596=CARTESIAN_POINT('Axis2P3D Location',(-9.9970926301,7.50387492867,2.)) ;
#608=CARTESIAN_POINT('Axis2P3D Location',(-8.83883476483,-8.83883476483,1.)) ;
#613=CARTESIAN_POINT('Axis2P3D Location',(-8.83883476483,-8.83883476483,2.)) ;
#617=CARTESIAN_POINT('Vertex',(-8.83883476483,-7.33883476483,2.)) ;
#619=CARTESIAN_POINT('Vertex',(-8.83883476483,-10.3388347648,2.)) ;
#622=CARTESIAN_POINT('Line Origine',(-8.83883476483,-10.3388347648,1.)) ;
#627=CARTESIAN_POINT('Line Origine',(-8.83883476483,-7.33883476483,1.)) ;
#639=CARTESIAN_POINT('Axis2P3D Location',(-8.83883476483,-8.83883476483,2.)) ;
#651=CARTESIAN_POINT('Axis2P3D Location',(12.5,25.,1.)) ;
#656=CARTESIAN_POINT('Axis2P3D Location',(12.5,25.,2.)) ;
#660=CARTESIAN_POINT('Vertex',(11.,25.,2.)) ;
#662=CARTESIAN_POINT('Vertex',(14.,25.,2.)) ;
#665=CARTESIAN_POINT('Line Origine',(14.,25.,1.)) ;
#670=CARTESIAN_POINT('Line Origine',(11.,25.,1.)) ;
#682=CARTESIAN_POINT('Axis2P3D Location',(12.5,25.,2.)) ;
#694=CARTESIAN_POINT('Axis2P3D Location',(-12.5,25.,1.)) ;
#699=CARTESIAN_POINT('Axis2P3D Location',(-12.5,25.,2.)) ;
#703=CARTESIAN_POINT('Vertex',(-14.,25.,2.)) ;
#705=CARTESIAN_POINT('Vertex',(-11.,25.,2.)) ;
#708=CARTESIAN_POINT('Line Origine',(-11.,25.,1.)) ;
#713=CARTESIAN_POINT('Line Origine',(-14.,25.,1.)) ;
#725=CARTESIAN_POINT('Axis2P3D Location',(-12.5,25.,2.)) ;
#737=CARTESIAN_POINT('Axis2P3D Location',(0.,0.,1.)) ;
#742=CARTESIAN_POINT('Axis2P3D Location',(0.,0.,2.)) ;
#746=CARTESIAN_POINT('Vertex',(2.5,36.4142829121,2.)) ;
#748=CARTESIAN_POINT('Vertex',(16.,32.8062494046,2.)) ;
#751=CARTESIAN_POINT('Line Origine',(16.,32.8062494046,1.)) ;
#756=CARTESIAN_POINT('Line Origine',(2.5,36.4142829121,1.)) ;
#768=CARTESIAN_POINT('Axis2P3D Location',(2.5,36.4142829121,0.)) ;
#773=CARTESIAN_POINT('Line Origine',(2.5,135.700492332,2.)) ;
#777=CARTESIAN_POINT('Vertex',(2.5,234.986701751,2.)) ;
#780=CARTESIAN_POINT('Line Origine',(2.5,234.986701751,1.)) ;
#792=CARTESIAN_POINT('Axis2P3D Location',(16.,13.6014705087,0.)) ;
#797=CARTESIAN_POINT('Line Origine',(108.800020831,67.1795875163,2.)) ;
#801=CARTESIAN_POINT('Vertex',(16.,13.6014705087,2.)) ;
#803=CARTESIAN_POINT('Vertex',(201.600041662,120.757704524,2.)) ;
#806=CARTESIAN_POINT('Line Origine',(201.600041662,120.757704524,1.)) ;
#811=CARTESIAN_POINT('Line Origine',(16.,13.6014705087,1.)) ;
#823=CARTESIAN_POINT('Axis2P3D Location',(16.,32.8062494046,0.)) ;
#828=CARTESIAN_POINT('Line Origine',(16.,23.2038599567,2.)) ;
#840=CARTESIAN_POINT('Axis2P3D Location',(-16.,32.8062494046,0.)) ;
#845=CARTESIAN_POINT('Line Origine',(-16.,23.2038599567,2.)) ;
#849=CARTESIAN_POINT('Vertex',(-16.,13.6014705087,2.)) ;
#851=CARTESIAN_POINT('Vertex',(-16.,32.8062494046,2.)) ;
#854=CARTESIAN_POINT('Line Origine',(-16.,32.8062494046,1.)) ;
#859=CARTESIAN_POINT('Line Origine',(-16.,13.6014705087,1.)) ;
#871=CARTESIAN_POINT('Axis2P3D Location',(-16.,13.6014705087,0.)) ;
#876=CARTESIAN_POINT('Line Origine',(-108.800020831,67.1795875163,2.)) ;
#880=CARTESIAN_POINT('Vertex',(-201.600041662,120.757704524,2.)) ;
#883=CARTESIAN_POINT('Line Origine',(-201.600041662,120.757704524,1.)) ;
#895=CARTESIAN_POINT('Axis2P3D Location',(-2.5,234.986701751,0.)) ;
#900=CARTESIAN_POINT('Line Origine',(-2.5,135.700492332,2.)) ;
#904=CARTESIAN_POINT('Vertex',(-2.5,36.4142829121,2.)) ;
#906=CARTESIAN_POINT('Vertex',(-2.5,234.986701751,2.)) ;
#909=CARTESIAN_POINT('Line Origine',(-2.5,234.986701751,1.)) ;
#914=CARTESIAN_POINT('Line Origine',(-2.5,36.4142829121,1.)) ;
#926=CARTESIAN_POINT('Axis2P3D Location',(0.,0.,2.)) ;
#938=CARTESIAN_POINT('Axis2P3D Location',(-18.1865334795,10.5,0.)) ;
#943=CARTESIAN_POINT('Line Origine',(-207.846096908,120.,27.)) ;
#947=CARTESIAN_POINT('Vertex',(-207.846096908,120.,2.)) ;
#950=CARTESIAN_POINT('Line Origine',(-207.532187352,119.818764233,2.)) ;
#955=CARTESIAN_POINT('Line Origine',(-110.851251684,64.,2.)) ;
#959=CARTESIAN_POINT('Vertex',(-203.515969889,117.5,2.)) ;
#962=CARTESIAN_POINT('Line Origine',(-203.515969889,117.5,27.)) ;
#978=CARTESIAN_POINT('Axis2P3D Location',(207.218277796,119.637528467,0.)) ;
#983=CARTESIAN_POINT('Line Origine',(203.515969889,117.5,27.)) ;
#987=CARTESIAN_POINT('Vertex',(203.515969889,117.5,2.)) ;
#990=CARTESIAN_POINT('Line Origine',(110.851251684,64.,2.)) ;
#995=CARTESIAN_POINT('Line Origine',(207.532187352,119.818764233,2.)) ;
#999=CARTESIAN_POINT('Vertex',(207.846096908,120.,2.)) ;
#1002=CARTESIAN_POINT('Line Origine',(207.846096908,120.,27.)) ;
#1018=CARTESIAN_POINT('Axis2P3D Location',(0.,0.,1.)) ;
#1023=CARTESIAN_POINT('Axis2P3D Location',(0.,0.,2.)) ;
#1035=CARTESIAN_POINT('Axis2P3D Location',(0.,0.,2.)) ;
#1040=CARTESIAN_POINT('Line Origine',(-206.063223858,122.313124698,2.)) ;
#1044=CARTESIAN_POINT('Vertex',(-206.380352071,122.503674553,2.)) ;
#1047=CARTESIAN_POINT('Axis2P3D Location',(0.,0.,2.)) ;
#1059=CARTESIAN_POINT('Axis2P3D Location',(-2.5,0.,0.)) ;
#1064=CARTESIAN_POINT('Line Origine',(-202.094452574,119.928446328,25.5)) ;
#1068=CARTESIAN_POINT('Vertex',(-202.094452574,119.928446328,2.)) ;
#1070=CARTESIAN_POINT('Vertex',(-202.094452574,119.928446328,49.)) ;
#1073=CARTESIAN_POINT('Line Origine',(-203.920274109,121.025510586,2.)) ;
#1078=CARTESIAN_POINT('Line Origine',(-206.380352071,122.503674553,25.5)) ;
#1082=CARTESIAN_POINT('Vertex',(-206.380352071,122.503674553,49.)) ;
#1085=CARTESIAN_POINT('Line Origine',(-204.237402323,121.216060441,49.)) ;
#1098=CARTESIAN_POINT('Axis2P3D Location',(-2.5,240.,49.)) ;
#1103=CARTESIAN_POINT('Axis2P3D Location',(-7.32747196253E-014,1.70530256582E-013,49.)) ;
#1107=CARTESIAN_POINT('Vertex',(-2.5,239.986978813,49.)) ;
#1110=CARTESIAN_POINT('Line Origine',(-2.5,237.486840282,49.)) ;
#1114=CARTESIAN_POINT('Vertex',(-2.5,234.986701751,49.)) ;
#1117=CARTESIAN_POINT('Axis2P3D Location',(1.1990408666E-014,-8.52651282912E-014,49.)) ;
#1129=CARTESIAN_POINT('Line Origine',(-2.5,234.986701751,25.5)) ;
#1134=CARTESIAN_POINT('Line Origine',(-2.5,239.986978813,25.5)) ;
#1138=CARTESIAN_POINT('Vertex',(-2.5,239.986978813,2.)) ;
#1141=CARTESIAN_POINT('Line Origine',(-2.5,239.265290977,2.)) ;
#1146=CARTESIAN_POINT('Line Origine',(-2.5,236.765152446,2.)) ;
#1159=CARTESIAN_POINT('Line Origine',(206.063223858,122.313124698,2.)) ;
#1163=CARTESIAN_POINT('Vertex',(206.380352071,122.503674553,2.)) ;
#1166=CARTESIAN_POINT('Axis2P3D Location',(0.,0.,2.)) ;
#1178=CARTESIAN_POINT('Line Origine',(2.5,239.265290977,2.)) ;
#1182=CARTESIAN_POINT('Vertex',(2.5,239.986978813,2.)) ;
#1185=CARTESIAN_POINT('Axis2P3D Location',(0.,0.,2.)) ;
#1197=CARTESIAN_POINT('Axis2P3D Location',(0.,0.,27.)) ;
#1202=CARTESIAN_POINT('Line Origine',(206.380352071,122.503674553,27.)) ;
#1206=CARTESIAN_POINT('Vertex',(206.380352071,122.503674553,49.)) ;
#1209=CARTESIAN_POINT('Axis2P3D Location',(0.,0.,49.)) ;
#1213=CARTESIAN_POINT('Vertex',(2.5,239.986978813,49.)) ;
#1216=CARTESIAN_POINT('Line Origine',(2.5,239.986978813,27.)) ;
#1236=CARTESIAN_POINT('Axis2P3D Location',(0.,0.,2.)) ;
#1248=CARTESIAN_POINT('Line Origine',(2.5,234.986701751,26.)) ;
#1252=CARTESIAN_POINT('Vertex',(2.5,234.986701751,49.)) ;
#1255=CARTESIAN_POINT('Axis2P3D Location',(0.,0.,49.)) ;
#1259=CARTESIAN_POINT('Vertex',(202.094452574,119.928446328,49.)) ;
#1262=CARTESIAN_POINT('Line Origine',(202.094452574,119.928446328,26.)) ;
#1266=CARTESIAN_POINT('Vertex',(202.094452574,119.928446328,2.)) ;
#1269=CARTESIAN_POINT('Axis2P3D Location',(0.,0.,2.)) ;
#1274=CARTESIAN_POINT('Axis2P3D Location',(0.,0.,2.)) ;
#1279=CARTESIAN_POINT('Axis2P3D Location',(0.,0.,2.)) ;
#1299=CARTESIAN_POINT('Line Origine',(2.5,236.765152446,2.)) ;
#1304=CARTESIAN_POINT('Line Origine',(2.5,237.486840282,49.)) ;
#1317=CARTESIAN_POINT('Line Origine',(204.237402323,121.216060441,49.)) ;
#1329=CARTESIAN_POINT('Axis2P3D Location',(2.5,0.,0.)) ;
#1334=CARTESIAN_POINT('Line Origine',(203.920274109,121.025510586,2.)) ;
#53=DIRECTION('Axis2P3D Direction',(0.,0.,1.)) ;
#54=DIRECTION('Axis2P3D XDirection',(1.,0.,0.)) ;
#58=DIRECTION('Vector Direction',(0.866025403784,0.5,0.)) ;
#67=DIRECTION('Axis2P3D Direction',(0.,0.,1.)) ;
#74=DIRECTION('Vector Direction',(-0.866025403784,0.5,0.)) ;
#81=DIRECTION('Axis2P3D Direction',(0.,0.,1.)) ;
#93=DIRECTION('Axis2P3D Direction',(0.,0.,1.)) ;
#94=DIRECTION('Axis2P3D XDirection',(-0.866025403784,0.5,0.)) ;
#98=DIRECTION('Vector Direction',(0.,0.,1.)) ;
#107=DIRECTION('Axis2P3D Direction',(0.,0.,1.)) ;
#114=DIRECTION('Vector Direction',(0.,0.,1.)) ;
#121=DIRECTION('Axis2P3D Direction',(0.,0.,1.)) ;
#133=DIRECTION('Axis2P3D Direction',(0.,0.,1.)) ;
#134=DIRECTION('Axis2P3D XDirection',(1.,0.,0.)) ;
#138=DIRECTION('Vector Direction',(-0.866025403784,0.5,0.)) ;
#145=DIRECTION('Axis2P3D Direction',(0.,0.,1.)) ;
#152=DIRECTION('Vector Direction',(-0.866025403784,-0.5,0.)) ;
#163=DIRECTION('Axis2P3D Direction',(0.,0.,1.)) ;
#172=DIRECTION('Axis2P3D Direction',(0.,0.,1.)) ;
#181=DIRECTION('Axis2P3D Direction',(0.,0.,1.)) ;
#190=DIRECTION('Axis2P3D Direction',(0.,0.,1.)) ;
#199=DIRECTION('Axis2P3D Direction',(0.,0.,1.)) ;
#208=DIRECTION('Axis2P3D Direction',(0.,0.,1.)) ;
#217=DIRECTION('Axis2P3D Direction',(0.,0.,1.)) ;
#226=DIRECTION('Axis2P3D Direction',(0.,0.,1.)) ;
#235=DIRECTION('Axis2P3D Direction',(0.,0.,1.)) ;
#244=DIRECTION('Axis2P3D Direction',(0.,0.,1.)) ;
#253=DIRECTION('Axis2P3D Direction',(0.,0.,1.)) ;
#262=DIRECTION('Axis2P3D Direction',(0.,0.,1.)) ;
#271=DIRECTION('Axis2P3D Direction',(0.,0.,1.)) ;
#280=DIRECTION('Axis2P3D Direction',(0.,0.,1.)) ;
#289=DIRECTION('Vector Direction',(0.,-1.,0.)) ;
#298=DIRECTION('Vector Direction',(0.866025403784,0.5,0.)) ;
#305=DIRECTION('Axis2P3D Direction',(0.,0.,1.)) ;
#312=DIRECTION('Vector Direction',(0.,1.,0.)) ;
#319=DIRECTION('Axis2P3D Direction',(0.,0.,1.)) ;
#331=DIRECTION('Axis2P3D Direction',(0.,0.,1.)) ;
#340=DIRECTION('Vector Direction',(2.68369119405E-017,-1.,0.)) ;
#347=DIRECTION('Axis2P3D Direction',(0.,0.,1.)) ;
#354=DIRECTION('Vector Direction',(-0.866025403784,0.5,0.)) ;
#361=DIRECTION('Vector Direction',(0.,-1.,0.)) ;
#374=DIRECTION('Axis2P3D Direction',(0.,0.,1.)) ;
#375=DIRECTION('Axis2P3D XDirection',(0.863409490817,0.504503767248,0.)) ;
#379=DIRECTION('Vector Direction',(0.,0.,1.)) ;
#386=DIRECTION('Vector Direction',(0.,0.,1.)) ;
#393=DIRECTION('Axis2P3D Direction',(0.,0.,1.)) ;
#400=DIRECTION('Axis2P3D Direction',(0.,0.,1.)) ;
#407=DIRECTION('Axis2P3D Direction',(0.,0.,1.)) ;
#414=DIRECTION('Axis2P3D Direction',(0.,0.,1.)) ;
#421=DIRECTION('Axis2P3D Direction',(0.,0.,1.)) ;
#437=DIRECTION('Axis2P3D Direction',(0.,0.,1.)) ;
#438=DIRECTION('Axis2P3D XDirection',(1.,0.,0.)) ;
#442=DIRECTION('Axis2P3D Direction',(0.,0.,1.)) ;
#451=DIRECTION('Vector Direction',(0.,0.,1.)) ;
#456=DIRECTION('Vector Direction',(0.,0.,1.)) ;
#468=DIRECTION('Axis2P3D Direction',(0.,0.,1.)) ;
#480=DIRECTION('Axis2P3D Direction',(0.,0.,1.)) ;
#481=DIRECTION('Axis2P3D XDirection',(1.,0.,0.)) ;
#485=DIRECTION('Axis2P3D Direction',(0.,0.,1.)) ;
#494=DIRECTION('Vector Direction',(0.,0.,1.)) ;
#499=DIRECTION('Vector Direction',(0.,0.,1.)) ;
#511=DIRECTION('Axis2P3D Direction',(0.,0.,1.)) ;
#523=DIRECTION('Axis2P3D Direction',(0.,0.,1.)) ;
#524=DIRECTION('Axis2P3D XDirection',(-1.83690953073E-016,-1.,-0.)) ;
#528=DIRECTION('Axis2P3D Direction',(0.,0.,1.)) ;
#537=DIRECTION('Vector Direction',(0.,0.,1.)) ;
#542=DIRECTION('Vector Direction',(0.,0.,1.)) ;
#554=DIRECTION('Axis2P3D Direction',(0.,0.,1.)) ;
#566=DIRECTION('Axis2P3D Direction',(0.,0.,1.)) ;
#567=DIRECTION('Axis2P3D XDirection',(-1.,1.22460635382E-016,0.)) ;
#571=DIRECTION('Axis2P3D Direction',(0.,0.,1.)) ;
#580=DIRECTION('Vector Direction',(0.,0.,1.)) ;
#585=DIRECTION('Vector Direction',(0.,0.,1.)) ;
#597=DIRECTION('Axis2P3D Direction',(0.,0.,1.)) ;
#609=DIRECTION('Axis2P3D Direction',(0.,0.,1.)) ;
#610=DIRECTION('Axis2P3D XDirection',(-1.83690953073E-016,-1.,-0.)) ;
#614=DIRECTION('Axis2P3D Direction',(0.,0.,1.)) ;
#623=DIRECTION('Vector Direction',(0.,0.,1.)) ;
#628=DIRECTION('Vector Direction',(0.,0.,1.)) ;
#640=DIRECTION('Axis2P3D Direction',(0.,0.,1.)) ;
#652=DIRECTION('Axis2P3D Direction',(0.,0.,1.)) ;
#653=DIRECTION('Axis2P3D XDirection',(1.,0.,0.)) ;
#657=DIRECTION('Axis2P3D Direction',(0.,0.,1.)) ;
#666=DIRECTION('Vector Direction',(0.,0.,1.)) ;
#671=DIRECTION('Vector Direction',(0.,0.,1.)) ;
#683=DIRECTION('Axis2P3D Direction',(0.,0.,1.)) ;
#695=DIRECTION('Axis2P3D Direction',(0.,0.,1.)) ;
#696=DIRECTION('Axis2P3D XDirection',(1.,0.,0.)) ;
#700=DIRECTION('Axis2P3D Direction',(0.,0.,1.)) ;
#709=DIRECTION('Vector Direction',(0.,0.,1.)) ;
#714=DIRECTION('Vector Direction',(0.,0.,1.)) ;
#726=DIRECTION('Axis2P3D Direction',(0.,0.,1.)) ;
#738=DIRECTION('Axis2P3D Direction',(0.,0.,1.)) ;
#739=DIRECTION('Axis2P3D XDirection',(0.438356164384,0.898801353552,0.)) ;
#743=DIRECTION('Axis2P3D Direction',(0.,0.,1.)) ;
#752=DIRECTION('Vector Direction',(0.,0.,1.)) ;
#757=DIRECTION('Vector Direction',(0.,0.,1.)) ;
#769=DIRECTION('Axis2P3D Direction',(1.,0.,0.)) ;
#770=DIRECTION('Axis2P3D XDirection',(0.,1.,0.)) ;
#774=DIRECTION('Vector Direction',(0.,1.,0.)) ;
#781=DIRECTION('Vector Direction',(0.,0.,1.)) ;
#793=DIRECTION('Axis2P3D Direction',(0.5,-0.866025403784,0.)) ;
#794=DIRECTION('Axis2P3D XDirection',(0.866025403784,0.5,0.)) ;
#798=DIRECTION('Vector Direction',(0.866025403784,0.5,0.)) ;
#807=DIRECTION('Vector Direction',(0.,0.,1.)) ;
#812=DIRECTION('Vector Direction',(0.,0.,1.)) ;
#824=DIRECTION('Axis2P3D Direction',(-1.,0.,0.)) ;
#825=DIRECTION('Axis2P3D XDirection',(0.,-1.,0.)) ;
#829=DIRECTION('Vector Direction',(0.,-1.,0.)) ;
#841=DIRECTION('Axis2P3D Direction',(-1.,0.,0.)) ;
#842=DIRECTION('Axis2P3D XDirection',(0.,-1.,0.)) ;
#846=DIRECTION('Vector Direction',(0.,-1.,0.)) ;
#855=DIRECTION('Vector Direction',(0.,0.,1.)) ;
#860=DIRECTION('Vector Direction',(0.,0.,1.)) ;
#872=DIRECTION('Axis2P3D Direction',(0.5,0.866025403784,-0.)) ;
#873=DIRECTION('Axis2P3D XDirection',(-0.866025403784,0.5,0.)) ;
#877=DIRECTION('Vector Direction',(-0.866025403784,0.5,0.)) ;
#884=DIRECTION('Vector Direction',(0.,0.,1.)) ;
#896=DIRECTION('Axis2P3D Direction',(-1.,-2.90733212689E-017,0.)) ;
#897=DIRECTION('Axis2P3D XDirection',(2.90733212689E-017,-1.,0.)) ;
#901=DIRECTION('Vector Direction',(2.90733212689E-017,-1.,0.)) ;
#910=DIRECTION('Vector Direction',(0.,0.,1.)) ;
#915=DIRECTION('Vector Direction',(0.,0.,1.)) ;
#927=DIRECTION('Axis2P3D Direction',(0.,0.,1.)) ;
#939=DIRECTION('Axis2P3D Direction',(0.5,0.866025403784,-0.)) ;
#940=DIRECTION('Axis2P3D XDirection',(-0.866025403784,0.5,0.)) ;
#944=DIRECTION('Vector Direction',(0.,0.,1.)) ;
#951=DIRECTION('Vector Direction',(-0.866025403784,0.5,0.)) ;
#956=DIRECTION('Vector Direction',(-0.866025403784,0.5,0.)) ;
#963=DIRECTION('Vector Direction',(0.,0.,1.)) ;
#979=DIRECTION('Axis2P3D Direction',(-0.5,0.866025403784,0.)) ;
#980=DIRECTION('Axis2P3D XDirection',(-0.866025403784,-0.5,-0.)) ;
#984=DIRECTION('Vector Direction',(0.,0.,1.)) ;
#991=DIRECTION('Vector Direction',(-0.866025403784,-0.5,0.)) ;
#996=DIRECTION('Vector Direction',(0.866025403784,0.5,0.)) ;
#1003=DIRECTION('Vector Direction',(0.,0.,1.)) ;
#1019=DIRECTION('Axis2P3D Direction',(0.,0.,1.)) ;
#1020=DIRECTION('Axis2P3D XDirection',(0.866025403784,0.5,0.)) ;
#1024=DIRECTION('Axis2P3D Direction',(0.,0.,1.)) ;
#1036=DIRECTION('Axis2P3D Direction',(0.,0.,1.)) ;
#1037=DIRECTION('Axis2P3D XDirection',(1.,0.,0.)) ;
#1041=DIRECTION('Vector Direction',(-0.857167300702,0.51503807491,0.)) ;
#1048=DIRECTION('Axis2P3D Direction',(0.,0.,1.)) ;
#1060=DIRECTION('Axis2P3D Direction',(0.51503807491,0.857167300702,-0.)) ;
#1061=DIRECTION('Axis2P3D XDirection',(-0.857167300702,0.51503807491,0.)) ;
#1065=DIRECTION('Vector Direction',(0.,0.,1.)) ;
#1074=DIRECTION('Vector Direction',(-0.857167300702,0.51503807491,0.)) ;
#1079=DIRECTION('Vector Direction',(0.,0.,1.)) ;
#1086=DIRECTION('Vector Direction',(0.857167300702,-0.51503807491,0.)) ;
#1099=DIRECTION('Axis2P3D Direction',(0.,0.,1.)) ;
#1100=DIRECTION('Axis2P3D XDirection',(1.,0.,0.)) ;
#1104=DIRECTION('Axis2P3D Direction',(0.,0.,1.)) ;
#1111=DIRECTION('Vector Direction',(0.,-1.,0.)) ;
#1118=DIRECTION('Axis2P3D Direction',(0.,0.,1.)) ;
#1130=DIRECTION('Vector Direction',(0.,0.,1.)) ;
#1135=DIRECTION('Vector Direction',(0.,0.,1.)) ;
#1142=DIRECTION('Vector Direction',(0.,1.,0.)) ;
#1147=DIRECTION('Vector Direction',(0.,1.,0.)) ;
#1160=DIRECTION('Vector Direction',(-0.857167300702,-0.51503807491,0.)) ;
#1167=DIRECTION('Axis2P3D Direction',(0.,0.,1.)) ;
#1179=DIRECTION('Vector Direction',(0.,-1.,0.)) ;
#1186=DIRECTION('Axis2P3D Direction',(0.,0.,1.)) ;
#1198=DIRECTION('Axis2P3D Direction',(0.,0.,1.)) ;
#1199=DIRECTION('Axis2P3D XDirection',(0.866025403784,0.5,0.)) ;
#1203=DIRECTION('Vector Direction',(0.,0.,1.)) ;
#1210=DIRECTION('Axis2P3D Direction',(0.,0.,1.)) ;
#1217=DIRECTION('Vector Direction',(0.,0.,1.)) ;
#1237=DIRECTION('Axis2P3D Direction',(0.,0.,1.)) ;
#1249=DIRECTION('Vector Direction',(0.,0.,1.)) ;
#1256=DIRECTION('Axis2P3D Direction',(0.,0.,1.)) ;
#1263=DIRECTION('Vector Direction',(0.,0.,1.)) ;
#1270=DIRECTION('Axis2P3D Direction',(0.,0.,1.)) ;
#1275=DIRECTION('Axis2P3D Direction',(0.,0.,1.)) ;
#1280=DIRECTION('Axis2P3D Direction',(0.,0.,1.)) ;
#1300=DIRECTION('Vector Direction',(0.,-1.,0.)) ;
#1305=DIRECTION('Vector Direction',(0.,-1.,0.)) ;
#1318=DIRECTION('Vector Direction',(-0.857167300702,-0.51503807491,0.)) ;
#1330=DIRECTION('Axis2P3D Direction',(-0.51503807491,0.857167300702,0.)) ;
#1331=DIRECTION('Axis2P3D XDirection',(-0.857167300702,-0.51503807491,0.)) ;
#1335=DIRECTION('Vector Direction',(-0.857167300702,-0.51503807491,0.)) ;
#48=AXIS2_PLACEMENT_3D(' ',#47,$,$) ;
#55=AXIS2_PLACEMENT_3D('Plane Axis2P3D',#52,#53,#54) ;
#68=AXIS2_PLACEMENT_3D('Circle Axis2P3D',#66,#67,$) ;
#82=AXIS2_PLACEMENT_3D('Circle Axis2P3D',#80,#81,$) ;
#95=AXIS2_PLACEMENT_3D('Cylinder Axis2P3D',#92,#93,#94) ;
#108=AXIS2_PLACEMENT_3D('Circle Axis2P3D',#106,#107,$) ;
#122=AXIS2_PLACEMENT_3D('Circle Axis2P3D',#120,#121,$) ;
#135=AXIS2_PLACEMENT_3D('Plane Axis2P3D',#132,#133,#134) ;
#146=AXIS2_PLACEMENT_3D('Circle Axis2P3D',#144,#145,$) ;
#164=AXIS2_PLACEMENT_3D('Circle Axis2P3D',#162,#163,$) ;
#173=AXIS2_PLACEMENT_3D('Circle Axis2P3D',#171,#172,$) ;
#182=AXIS2_PLACEMENT_3D('Circle Axis2P3D',#180,#181,$) ;
#191=AXIS2_PLACEMENT_3D('Circle Axis2P3D',#189,#190,$) ;
#200=AXIS2_PLACEMENT_3D('Circle Axis2P3D',#198,#199,$) ;
#209=AXIS2_PLACEMENT_3D('Circle Axis2P3D',#207,#208,$) ;
#218=AXIS2_PLACEMENT_3D('Circle Axis2P3D',#216,#217,$) ;
#227=AXIS2_PLACEMENT_3D('Circle Axis2P3D',#225,#226,$) ;
#236=AXIS2_PLACEMENT_3D('Circle Axis2P3D',#234,#235,$) ;
#245=AXIS2_PLACEMENT_3D('Circle Axis2P3D',#243,#244,$) ;
#254=AXIS2_PLACEMENT_3D('Circle Axis2P3D',#252,#253,$) ;
#263=AXIS2_PLACEMENT_3D('Circle Axis2P3D',#261,#262,$) ;
#272=AXIS2_PLACEMENT_3D('Circle Axis2P3D',#270,#271,$) ;
#281=AXIS2_PLACEMENT_3D('Circle Axis2P3D',#279,#280,$) ;
#306=AXIS2_PLACEMENT_3D('Circle Axis2P3D',#304,#305,$) ;
#320=AXIS2_PLACEMENT_3D('Circle Axis2P3D',#318,#319,$) ;
#332=AXIS2_PLACEMENT_3D('Circle Axis2P3D',#330,#331,$) ;
#348=AXIS2_PLACEMENT_3D('Circle Axis2P3D',#346,#347,$) ;
#376=AXIS2_PLACEMENT_3D('Cylinder Axis2P3D',#373,#374,#375) ;
#394=AXIS2_PLACEMENT_3D('Circle Axis2P3D',#392,#393,$) ;
#401=AXIS2_PLACEMENT_3D('Circle Axis2P3D',#399,#400,$) ;
#408=AXIS2_PLACEMENT_3D('Circle Axis2P3D',#406,#407,$) ;
#415=AXIS2_PLACEMENT_3D('Circle Axis2P3D',#413,#414,$) ;
#422=AXIS2_PLACEMENT_3D('Circle Axis2P3D',#420,#421,$) ;
#439=AXIS2_PLACEMENT_3D('Cylinder Axis2P3D',#436,#437,#438) ;
#443=AXIS2_PLACEMENT_3D('Circle Axis2P3D',#441,#442,$) ;
#469=AXIS2_PLACEMENT_3D('Circle Axis2P3D',#467,#468,$) ;
#482=AXIS2_PLACEMENT_3D('Cylinder Axis2P3D',#479,#480,#481) ;
#486=AXIS2_PLACEMENT_3D('Circle Axis2P3D',#484,#485,$) ;
#512=AXIS2_PLACEMENT_3D('Circle Axis2P3D',#510,#511,$) ;
#525=AXIS2_PLACEMENT_3D('Cylinder Axis2P3D',#522,#523,#524) ;
#529=AXIS2_PLACEMENT_3D('Circle Axis2P3D',#527,#528,$) ;
#555=AXIS2_PLACEMENT_3D('Circle Axis2P3D',#553,#554,$) ;
#568=AXIS2_PLACEMENT_3D('Cylinder Axis2P3D',#565,#566,#567) ;
#572=AXIS2_PLACEMENT_3D('Circle Axis2P3D',#570,#571,$) ;
#598=AXIS2_PLACEMENT_3D('Circle Axis2P3D',#596,#597,$) ;
#611=AXIS2_PLACEMENT_3D('Cylinder Axis2P3D',#608,#609,#610) ;
#615=AXIS2_PLACEMENT_3D('Circle Axis2P3D',#613,#614,$) ;
#641=AXIS2_PLACEMENT_3D('Circle Axis2P3D',#639,#640,$) ;
#654=AXIS2_PLACEMENT_3D('Cylinder Axis2P3D',#651,#652,#653) ;
#658=AXIS2_PLACEMENT_3D('Circle Axis2P3D',#656,#657,$) ;
#684=AXIS2_PLACEMENT_3D('Circle Axis2P3D',#682,#683,$) ;
#697=AXIS2_PLACEMENT_3D('Cylinder Axis2P3D',#694,#695,#696) ;
#701=AXIS2_PLACEMENT_3D('Circle Axis2P3D',#699,#700,$) ;
#727=AXIS2_PLACEMENT_3D('Circle Axis2P3D',#725,#726,$) ;
#740=AXIS2_PLACEMENT_3D('Cylinder Axis2P3D',#737,#738,#739) ;
#744=AXIS2_PLACEMENT_3D('Circle Axis2P3D',#742,#743,$) ;
#771=AXIS2_PLACEMENT_3D('Plane Axis2P3D',#768,#769,#770) ;
#795=AXIS2_PLACEMENT_3D('Plane Axis2P3D',#792,#793,#794) ;
#826=AXIS2_PLACEMENT_3D('Plane Axis2P3D',#823,#824,#825) ;
#843=AXIS2_PLACEMENT_3D('Plane Axis2P3D',#840,#841,#842) ;
#874=AXIS2_PLACEMENT_3D('Plane Axis2P3D',#871,#872,#873) ;
#898=AXIS2_PLACEMENT_3D('Plane Axis2P3D',#895,#896,#897) ;
#928=AXIS2_PLACEMENT_3D('Circle Axis2P3D',#926,#927,$) ;
#941=AXIS2_PLACEMENT_3D('Plane Axis2P3D',#938,#939,#940) ;
#981=AXIS2_PLACEMENT_3D('Plane Axis2P3D',#978,#979,#980) ;
#1021=AXIS2_PLACEMENT_3D('Cylinder Axis2P3D',#1018,#1019,#1020) ;
#1025=AXIS2_PLACEMENT_3D('Circle Axis2P3D',#1023,#1024,$) ;
#1038=AXIS2_PLACEMENT_3D('Plane Axis2P3D',#1035,#1036,#1037) ;
#1049=AXIS2_PLACEMENT_3D('Circle Axis2P3D',#1047,#1048,$) ;
#1062=AXIS2_PLACEMENT_3D('Plane Axis2P3D',#1059,#1060,#1061) ;
#1101=AXIS2_PLACEMENT_3D('Plane Axis2P3D',#1098,#1099,#1100) ;
#1105=AXIS2_PLACEMENT_3D('Circle Axis2P3D',#1103,#1104,$) ;
#1119=AXIS2_PLACEMENT_3D('Circle Axis2P3D',#1117,#1118,$) ;
#1168=AXIS2_PLACEMENT_3D('Circle Axis2P3D',#1166,#1167,$) ;
#1187=AXIS2_PLACEMENT_3D('Circle Axis2P3D',#1185,#1186,$) ;
#1200=AXIS2_PLACEMENT_3D('Cylinder Axis2P3D',#1197,#1198,#1199) ;
#1211=AXIS2_PLACEMENT_3D('Circle Axis2P3D',#1209,#1210,$) ;
#1238=AXIS2_PLACEMENT_3D('Circle Axis2P3D',#1236,#1237,$) ;
#1257=AXIS2_PLACEMENT_3D('Circle Axis2P3D',#1255,#1256,$) ;
#1271=AXIS2_PLACEMENT_3D('Circle Axis2P3D',#1269,#1270,$) ;
#1276=AXIS2_PLACEMENT_3D('Circle Axis2P3D',#1274,#1275,$) ;
#1281=AXIS2_PLACEMENT_3D('Circle Axis2P3D',#1279,#1280,$) ;
#1332=AXIS2_PLACEMENT_3D('Plane Axis2P3D',#1329,#1330,#1331) ;
#40=PRODUCT_DEFINITION_SHAPE(' ',' ',#14) ;
#31=APPROVAL_PERSON_ORGANIZATION(#25,#21,#19) ;
#25=PERSON_AND_ORGANIZATION(#22,#23) ;
#22=PERSON(' ',' ',' ',$,$,$) ;
#23=ORGANIZATION(' ',' ',' ') ;
#21=APPROVAL(#20,' ') ;
#20=APPROVAL_STATUS('not_yet_approved') ;
#19=APPROVAL_ROLE('APPROVER') ;
#13=DATE_AND_TIME(#11,#12) ;
#12=LOCAL_TIME(11,52,18.,#10) ;
#10=COORDINATED_UNIVERSAL_TIME_OFFSET(0,0,.AHEAD.) ;
#86=ORIENTED_EDGE('',*,*,#65,.T.) ;
#87=ORIENTED_EDGE('',*,*,#72,.T.) ;
#88=ORIENTED_EDGE('',*,*,#79,.T.) ;
#89=ORIENTED_EDGE('',*,*,#84,.T.) ;
#126=ORIENTED_EDGE('',*,*,#105,.F.) ;
#127=ORIENTED_EDGE('',*,*,#112,.T.) ;
#128=ORIENTED_EDGE('',*,*,#119,.T.) ;
#129=ORIENTED_EDGE('',*,*,#124,.F.) ;
#157=ORIENTED_EDGE('',*,*,#143,.F.) ;
#158=ORIENTED_EDGE('',*,*,#150,.F.) ;
#159=ORIENTED_EDGE('',*,*,#155,.F.) ;
#160=ORIENTED_EDGE('',*,*,#112,.F.) ;
#177=ORIENTED_EDGE('',*,*,#170,.T.) ;
#178=ORIENTED_EDGE('',*,*,#175,.T.) ;
#195=ORIENTED_EDGE('',*,*,#188,.T.) ;
#196=ORIENTED_EDGE('',*,*,#193,.T.) ;
#213=ORIENTED_EDGE('',*,*,#206,.T.) ;
#214=ORIENTED_EDGE('',*,*,#211,.T.) ;
#231=ORIENTED_EDGE('',*,*,#224,.T.) ;
#232=ORIENTED_EDGE('',*,*,#229,.T.) ;
#249=ORIENTED_EDGE('',*,*,#242,.T.) ;
#250=ORIENTED_EDGE('',*,*,#247,.T.) ;
#267=ORIENTED_EDGE('',*,*,#260,.T.) ;
#268=ORIENTED_EDGE('',*,*,#265,.T.) ;
#285=ORIENTED_EDGE('',*,*,#278,.T.) ;
#286=ORIENTED_EDGE('',*,*,#283,.T.) ;
#324=ORIENTED_EDGE('',*,*,#296,.T.) ;
#325=ORIENTED_EDGE('',*,*,#303,.T.) ;
#326=ORIENTED_EDGE('',*,*,#310,.T.) ;
#327=ORIENTED_EDGE('',*,*,#317,.T.) ;
#328=ORIENTED_EDGE('',*,*,#322,.T.) ;
#366=ORIENTED_EDGE('',*,*,#338,.T.) ;
#367=ORIENTED_EDGE('',*,*,#345,.T.) ;
#368=ORIENTED_EDGE('',*,*,#352,.T.) ;
#369=ORIENTED_EDGE('',*,*,#359,.T.) ;
#370=ORIENTED_EDGE('',*,*,#364,.T.) ;
#426=ORIENTED_EDGE('',*,*,#384,.F.) ;
#427=ORIENTED_EDGE('',*,*,#150,.T.) ;
#428=ORIENTED_EDGE('',*,*,#391,.T.) ;
#429=ORIENTED_EDGE('',*,*,#398,.F.) ;
#430=ORIENTED_EDGE('',*,*,#405,.F.) ;
#431=ORIENTED_EDGE('',*,*,#412,.F.) ;
#432=ORIENTED_EDGE('',*,*,#419,.F.) ;
#433=ORIENTED_EDGE('',*,*,#424,.F.) ;
#461=ORIENTED_EDGE('',*,*,#449,.T.) ;
#462=ORIENTED_EDGE('',*,*,#454,.F.) ;
#463=ORIENTED_EDGE('',*,*,#175,.F.) ;
#464=ORIENTED_EDGE('',*,*,#459,.T.) ;
#473=ORIENTED_EDGE('',*,*,#471,.T.) ;
#474=ORIENTED_EDGE('',*,*,#459,.F.) ;
#475=ORIENTED_EDGE('',*,*,#170,.F.) ;
#476=ORIENTED_EDGE('',*,*,#454,.T.) ;
#504=ORIENTED_EDGE('',*,*,#492,.T.) ;
#505=ORIENTED_EDGE('',*,*,#497,.F.) ;
#506=ORIENTED_EDGE('',*,*,#193,.F.) ;
#507=ORIENTED_EDGE('',*,*,#502,.T.) ;
#516=ORIENTED_EDGE('',*,*,#514,.T.) ;
#517=ORIENTED_EDGE('',*,*,#502,.F.) ;
#518=ORIENTED_EDGE('',*,*,#188,.F.) ;
#519=ORIENTED_EDGE('',*,*,#497,.T.) ;
#547=ORIENTED_EDGE('',*,*,#535,.T.) ;
#548=ORIENTED_EDGE('',*,*,#540,.F.) ;
#549=ORIENTED_EDGE('',*,*,#211,.F.) ;
#550=ORIENTED_EDGE('',*,*,#545,.T.) ;
#559=ORIENTED_EDGE('',*,*,#557,.T.) ;
#560=ORIENTED_EDGE('',*,*,#545,.F.) ;
#561=ORIENTED_EDGE('',*,*,#206,.F.) ;
#562=ORIENTED_EDGE('',*,*,#540,.T.) ;
#590=ORIENTED_EDGE('',*,*,#578,.T.) ;
#591=ORIENTED_EDGE('',*,*,#583,.F.) ;
#592=ORIENTED_EDGE('',*,*,#229,.F.) ;
#593=ORIENTED_EDGE('',*,*,#588,.T.) ;
#602=ORIENTED_EDGE('',*,*,#600,.T.) ;
#603=ORIENTED_EDGE('',*,*,#588,.F.) ;
#604=ORIENTED_EDGE('',*,*,#224,.F.) ;
#605=ORIENTED_EDGE('',*,*,#583,.T.) ;
#633=ORIENTED_EDGE('',*,*,#621,.T.) ;
#634=ORIENTED_EDGE('',*,*,#626,.F.) ;
#635=ORIENTED_EDGE('',*,*,#247,.F.) ;
#636=ORIENTED_EDGE('',*,*,#631,.T.) ;
#645=ORIENTED_EDGE('',*,*,#643,.T.) ;
#646=ORIENTED_EDGE('',*,*,#631,.F.) ;
#647=ORIENTED_EDGE('',*,*,#242,.F.) ;
#648=ORIENTED_EDGE('',*,*,#626,.T.) ;
#676=ORIENTED_EDGE('',*,*,#664,.T.) ;
#677=ORIENTED_EDGE('',*,*,#669,.F.) ;
#678=ORIENTED_EDGE('',*,*,#265,.F.) ;
#679=ORIENTED_EDGE('',*,*,#674,.T.) ;
#688=ORIENTED_EDGE('',*,*,#686,.T.) ;
#689=ORIENTED_EDGE('',*,*,#674,.F.) ;
#690=ORIENTED_EDGE('',*,*,#260,.F.) ;
#691=ORIENTED_EDGE('',*,*,#669,.T.) ;
#719=ORIENTED_EDGE('',*,*,#707,.T.) ;
#720=ORIENTED_EDGE('',*,*,#712,.F.) ;
#721=ORIENTED_EDGE('',*,*,#283,.F.) ;
#722=ORIENTED_EDGE('',*,*,#717,.T.) ;
#731=ORIENTED_EDGE('',*,*,#729,.T.) ;
#732=ORIENTED_EDGE('',*,*,#717,.F.) ;
#733=ORIENTED_EDGE('',*,*,#278,.F.) ;
#734=ORIENTED_EDGE('',*,*,#712,.T.) ;
#762=ORIENTED_EDGE('',*,*,#750,.T.) ;
#763=ORIENTED_EDGE('',*,*,#755,.F.) ;
#764=ORIENTED_EDGE('',*,*,#322,.F.) ;
#765=ORIENTED_EDGE('',*,*,#760,.T.) ;
#786=ORIENTED_EDGE('',*,*,#779,.T.) ;
#787=ORIENTED_EDGE('',*,*,#760,.F.) ;
#788=ORIENTED_EDGE('',*,*,#317,.F.) ;
#789=ORIENTED_EDGE('',*,*,#784,.T.) ;
#817=ORIENTED_EDGE('',*,*,#805,.T.) ;
#818=ORIENTED_EDGE('',*,*,#810,.F.) ;
#819=ORIENTED_EDGE('',*,*,#303,.F.) ;
#820=ORIENTED_EDGE('',*,*,#815,.T.) ;
#834=ORIENTED_EDGE('',*,*,#832,.T.) ;
#835=ORIENTED_EDGE('',*,*,#815,.F.) ;
#836=ORIENTED_EDGE('',*,*,#296,.F.) ;
#837=ORIENTED_EDGE('',*,*,#755,.T.) ;
#865=ORIENTED_EDGE('',*,*,#853,.T.) ;
#866=ORIENTED_EDGE('',*,*,#858,.F.) ;
#867=ORIENTED_EDGE('',*,*,#364,.F.) ;
#868=ORIENTED_EDGE('',*,*,#863,.T.) ;
#889=ORIENTED_EDGE('',*,*,#882,.T.) ;
#890=ORIENTED_EDGE('',*,*,#863,.F.) ;
#891=ORIENTED_EDGE('',*,*,#359,.F.) ;
#892=ORIENTED_EDGE('',*,*,#887,.T.) ;
#920=ORIENTED_EDGE('',*,*,#908,.T.) ;
#921=ORIENTED_EDGE('',*,*,#913,.F.) ;
#922=ORIENTED_EDGE('',*,*,#345,.F.) ;
#923=ORIENTED_EDGE('',*,*,#918,.T.) ;
#932=ORIENTED_EDGE('',*,*,#930,.T.) ;
#933=ORIENTED_EDGE('',*,*,#918,.F.) ;
#934=ORIENTED_EDGE('',*,*,#338,.F.) ;
#935=ORIENTED_EDGE('',*,*,#858,.T.) ;
#968=ORIENTED_EDGE('',*,*,#949,.F.) ;
#969=ORIENTED_EDGE('',*,*,#954,.T.) ;
#970=ORIENTED_EDGE('',*,*,#391,.F.) ;
#971=ORIENTED_EDGE('',*,*,#143,.T.) ;
#972=ORIENTED_EDGE('',*,*,#105,.T.) ;
#973=ORIENTED_EDGE('',*,*,#961,.F.) ;
#974=ORIENTED_EDGE('',*,*,#966,.T.) ;
#975=ORIENTED_EDGE('',*,*,#79,.F.) ;
#1008=ORIENTED_EDGE('',*,*,#989,.F.) ;
#1009=ORIENTED_EDGE('',*,*,#994,.F.) ;
#1010=ORIENTED_EDGE('',*,*,#119,.F.) ;
#1011=ORIENTED_EDGE('',*,*,#155,.T.) ;
#1012=ORIENTED_EDGE('',*,*,#384,.T.) ;
#1013=ORIENTED_EDGE('',*,*,#1001,.T.) ;
#1014=ORIENTED_EDGE('',*,*,#1006,.T.) ;
#1015=ORIENTED_EDGE('',*,*,#65,.F.) ;
#1029=ORIENTED_EDGE('',*,*,#1027,.T.) ;
#1030=ORIENTED_EDGE('',*,*,#887,.F.) ;
#1031=ORIENTED_EDGE('',*,*,#352,.F.) ;
#1032=ORIENTED_EDGE('',*,*,#913,.T.) ;
#1053=ORIENTED_EDGE('',*,*,#1046,.F.) ;
#1054=ORIENTED_EDGE('',*,*,#398,.T.) ;
#1055=ORIENTED_EDGE('',*,*,#954,.F.) ;
#1056=ORIENTED_EDGE('',*,*,#1051,.F.) ;
#1091=ORIENTED_EDGE('',*,*,#1072,.F.) ;
#1092=ORIENTED_EDGE('',*,*,#1077,.T.) ;
#1093=ORIENTED_EDGE('',*,*,#1046,.T.) ;
#1094=ORIENTED_EDGE('',*,*,#1084,.T.) ;
#1095=ORIENTED_EDGE('',*,*,#1089,.T.) ;
#1123=ORIENTED_EDGE('',*,*,#1089,.F.) ;
#1124=ORIENTED_EDGE('',*,*,#1109,.F.) ;
#1125=ORIENTED_EDGE('',*,*,#1116,.T.) ;
#1126=ORIENTED_EDGE('',*,*,#1121,.T.) ;
#1152=ORIENTED_EDGE('',*,*,#1133,.T.) ;
#1153=ORIENTED_EDGE('',*,*,#1116,.F.) ;
#1154=ORIENTED_EDGE('',*,*,#1140,.F.) ;
#1155=ORIENTED_EDGE('',*,*,#1145,.F.) ;
#1156=ORIENTED_EDGE('',*,*,#1150,.F.) ;
#1172=ORIENTED_EDGE('',*,*,#1165,.F.) ;
#1173=ORIENTED_EDGE('',*,*,#1170,.F.) ;
#1174=ORIENTED_EDGE('',*,*,#1001,.F.) ;
#1175=ORIENTED_EDGE('',*,*,#424,.T.) ;
#1191=ORIENTED_EDGE('',*,*,#1184,.T.) ;
#1192=ORIENTED_EDGE('',*,*,#412,.T.) ;
#1193=ORIENTED_EDGE('',*,*,#1145,.T.) ;
#1194=ORIENTED_EDGE('',*,*,#1189,.F.) ;
#1222=ORIENTED_EDGE('',*,*,#1189,.T.) ;
#1223=ORIENTED_EDGE('',*,*,#1140,.T.) ;
#1224=ORIENTED_EDGE('',*,*,#1109,.T.) ;
#1225=ORIENTED_EDGE('',*,*,#1084,.F.) ;
#1226=ORIENTED_EDGE('',*,*,#1051,.T.) ;
#1227=ORIENTED_EDGE('',*,*,#949,.T.) ;
#1228=ORIENTED_EDGE('',*,*,#72,.F.) ;
#1229=ORIENTED_EDGE('',*,*,#1006,.F.) ;
#1230=ORIENTED_EDGE('',*,*,#1170,.T.) ;
#1231=ORIENTED_EDGE('',*,*,#1208,.T.) ;
#1232=ORIENTED_EDGE('',*,*,#1215,.T.) ;
#1233=ORIENTED_EDGE('',*,*,#1220,.F.) ;
#1242=ORIENTED_EDGE('',*,*,#1240,.T.) ;
#1243=ORIENTED_EDGE('',*,*,#784,.F.) ;
#1244=ORIENTED_EDGE('',*,*,#310,.F.) ;
#1245=ORIENTED_EDGE('',*,*,#810,.T.) ;
#1285=ORIENTED_EDGE('',*,*,#1254,.T.) ;
#1286=ORIENTED_EDGE('',*,*,#1261,.F.) ;
#1287=ORIENTED_EDGE('',*,*,#1268,.F.) ;
#1288=ORIENTED_EDGE('',*,*,#1273,.T.) ;
#1289=ORIENTED_EDGE('',*,*,#989,.T.) ;
#1290=ORIENTED_EDGE('',*,*,#84,.F.) ;
#1291=ORIENTED_EDGE('',*,*,#966,.F.) ;
#1292=ORIENTED_EDGE('',*,*,#1278,.T.) ;
#1293=ORIENTED_EDGE('',*,*,#1072,.T.) ;
#1294=ORIENTED_EDGE('',*,*,#1121,.F.) ;
#1295=ORIENTED_EDGE('',*,*,#1133,.F.) ;
#1296=ORIENTED_EDGE('',*,*,#1283,.T.) ;
#1310=ORIENTED_EDGE('',*,*,#1254,.F.) ;
#1311=ORIENTED_EDGE('',*,*,#1303,.F.) ;
#1312=ORIENTED_EDGE('',*,*,#1184,.F.) ;
#1313=ORIENTED_EDGE('',*,*,#1220,.T.) ;
#1314=ORIENTED_EDGE('',*,*,#1308,.F.) ;
#1323=ORIENTED_EDGE('',*,*,#1321,.F.) ;
#1324=ORIENTED_EDGE('',*,*,#1261,.T.) ;
#1325=ORIENTED_EDGE('',*,*,#1308,.T.) ;
#1326=ORIENTED_EDGE('',*,*,#1215,.F.) ;
#1340=ORIENTED_EDGE('',*,*,#1268,.T.) ;
#1341=ORIENTED_EDGE('',*,*,#1321,.T.) ;
#1342=ORIENTED_EDGE('',*,*,#1208,.F.) ;
#1343=ORIENTED_EDGE('',*,*,#1165,.T.) ;
#1344=ORIENTED_EDGE('',*,*,#1338,.T.) ;
#1348=ORIENTED_EDGE('',*,*,#1303,.T.) ;
#1349=ORIENTED_EDGE('',*,*,#1283,.F.) ;
#1350=ORIENTED_EDGE('',*,*,#1150,.T.) ;
#1351=ORIENTED_EDGE('',*,*,#405,.T.) ;
#1352=ORIENTED_EDGE('',*,*,#1077,.F.) ;
#1353=ORIENTED_EDGE('',*,*,#1278,.F.) ;
#1354=ORIENTED_EDGE('',*,*,#961,.T.) ;
#1355=ORIENTED_EDGE('',*,*,#124,.T.) ;
#1356=ORIENTED_EDGE('',*,*,#994,.T.) ;
#1357=ORIENTED_EDGE('',*,*,#1273,.F.) ;
#1358=ORIENTED_EDGE('',*,*,#1338,.F.) ;
#1359=ORIENTED_EDGE('',*,*,#419,.T.) ;
#1362=ORIENTED_EDGE('',*,*,#471,.F.) ;
#1363=ORIENTED_EDGE('',*,*,#449,.F.) ;
#1366=ORIENTED_EDGE('',*,*,#729,.F.) ;
#1367=ORIENTED_EDGE('',*,*,#707,.F.) ;
#1370=ORIENTED_EDGE('',*,*,#908,.F.) ;
#1371=ORIENTED_EDGE('',*,*,#930,.F.) ;
#1372=ORIENTED_EDGE('',*,*,#853,.F.) ;
#1373=ORIENTED_EDGE('',*,*,#882,.F.) ;
#1374=ORIENTED_EDGE('',*,*,#1027,.F.) ;
#1377=ORIENTED_EDGE('',*,*,#686,.F.) ;
#1378=ORIENTED_EDGE('',*,*,#664,.F.) ;
#1381=ORIENTED_EDGE('',*,*,#621,.F.) ;
#1382=ORIENTED_EDGE('',*,*,#643,.F.) ;
#1385=ORIENTED_EDGE('',*,*,#578,.F.) ;
#1386=ORIENTED_EDGE('',*,*,#600,.F.) ;
#1389=ORIENTED_EDGE('',*,*,#535,.F.) ;
#1390=ORIENTED_EDGE('',*,*,#557,.F.) ;
#1393=ORIENTED_EDGE('',*,*,#492,.F.) ;
#1394=ORIENTED_EDGE('',*,*,#514,.F.) ;
#1397=ORIENTED_EDGE('',*,*,#1240,.F.) ;
#1398=ORIENTED_EDGE('',*,*,#805,.F.) ;
#1399=ORIENTED_EDGE('',*,*,#832,.F.) ;
#1400=ORIENTED_EDGE('',*,*,#750,.F.) ;
#1401=ORIENTED_EDGE('',*,*,#779,.F.) ;
#179=FACE_BOUND('',#176,.T.) ;
#197=FACE_BOUND('',#194,.T.) ;
#215=FACE_BOUND('',#212,.T.) ;
#233=FACE_BOUND('',#230,.T.) ;
#251=FACE_BOUND('',#248,.T.) ;
#269=FACE_BOUND('',#266,.T.) ;
#287=FACE_BOUND('',#284,.T.) ;
#329=FACE_BOUND('',#323,.T.) ;
#371=FACE_BOUND('',#365,.T.) ;
#1364=FACE_BOUND('',#1361,.T.) ;
#1368=FACE_BOUND('',#1365,.T.) ;
#1375=FACE_BOUND('',#1369,.T.) ;
#1379=FACE_BOUND('',#1376,.T.) ;
#1383=FACE_BOUND('',#1380,.T.) ;
#1387=FACE_BOUND('',#1384,.T.) ;
#1391=FACE_BOUND('',#1388,.T.) ;
#1395=FACE_BOUND('',#1392,.T.) ;
#1402=FACE_BOUND('',#1396,.T.) ;
#51=CLOSED_SHELL('Closed Shell',(#91,#131,#372,#435,#466,#478,#509,#521,#552,#564,#595,#607,#638,#650,#681,#693,#724,#736,#767,#791,#822,#839,#870,#894,#925,#937,#977,#1017,#1034,#1058,#1097,#1128,#1158,#1177,#1196,#1235,#1247,#1298,#1316,#1328,#1346,#1403)) ;
#59=VECTOR('Line Direction',#58,1.) ;
#75=VECTOR('Line Direction',#74,1.) ;
#99=VECTOR('Line Direction',#98,1.) ;
#115=VECTOR('Line Direction',#114,1.) ;
#139=VECTOR('Line Direction',#138,1.) ;
#153=VECTOR('Line Direction',#152,1.) ;
#290=VECTOR('Line Direction',#289,1.) ;
#299=VECTOR('Line Direction',#298,1.) ;
#313=VECTOR('Line Direction',#312,1.) ;
#341=VECTOR('Line Direction',#340,1.) ;
#355=VECTOR('Line Direction',#354,1.) ;
#362=VECTOR('Line Direction',#361,1.) ;
#380=VECTOR('Line Direction',#379,1.) ;
#387=VECTOR('Line Direction',#386,1.) ;
#452=VECTOR('Line Direction',#451,1.) ;
#457=VECTOR('Line Direction',#456,1.) ;
#495=VECTOR('Line Direction',#494,1.) ;
#500=VECTOR('Line Direction',#499,1.) ;
#538=VECTOR('Line Direction',#537,1.) ;
#543=VECTOR('Line Direction',#542,1.) ;
#581=VECTOR('Line Direction',#580,1.) ;
#586=VECTOR('Line Direction',#585,1.) ;
#624=VECTOR('Line Direction',#623,1.) ;
#629=VECTOR('Line Direction',#628,1.) ;
#667=VECTOR('Line Direction',#666,1.) ;
#672=VECTOR('Line Direction',#671,1.) ;
#710=VECTOR('Line Direction',#709,1.) ;
#715=VECTOR('Line Direction',#714,1.) ;
#753=VECTOR('Line Direction',#752,1.) ;
#758=VECTOR('Line Direction',#757,1.) ;
#775=VECTOR('Line Direction',#774,1.) ;
#782=VECTOR('Line Direction',#781,1.) ;
#799=VECTOR('Line Direction',#798,1.) ;
#808=VECTOR('Line Direction',#807,1.) ;
#813=VECTOR('Line Direction',#812,1.) ;
#830=VECTOR('Line Direction',#829,1.) ;
#847=VECTOR('Line Direction',#846,1.) ;
#856=VECTOR('Line Direction',#855,1.) ;
#861=VECTOR('Line Direction',#860,1.) ;
#878=VECTOR('Line Direction',#877,1.) ;
#885=VECTOR('Line Direction',#884,1.) ;
#902=VECTOR('Line Direction',#901,1.) ;
#911=VECTOR('Line Direction',#910,1.) ;
#916=VECTOR('Line Direction',#915,1.) ;
#945=VECTOR('Line Direction',#944,1.) ;
#952=VECTOR('Line Direction',#951,1.) ;
#957=VECTOR('Line Direction',#956,1.) ;
#964=VECTOR('Line Direction',#963,1.) ;
#985=VECTOR('Line Direction',#984,1.) ;
#992=VECTOR('Line Direction',#991,1.) ;
#997=VECTOR('Line Direction',#996,1.) ;
#1004=VECTOR('Line Direction',#1003,1.) ;
#1042=VECTOR('Line Direction',#1041,1.) ;
#1066=VECTOR('Line Direction',#1065,1.) ;
#1075=VECTOR('Line Direction',#1074,1.) ;
#1080=VECTOR('Line Direction',#1079,1.) ;
#1087=VECTOR('Line Direction',#1086,1.) ;
#1112=VECTOR('Line Direction',#1111,1.) ;
#1131=VECTOR('Line Direction',#1130,1.) ;
#1136=VECTOR('Line Direction',#1135,1.) ;
#1143=VECTOR('Line Direction',#1142,1.) ;
#1148=VECTOR('Line Direction',#1147,1.) ;
#1161=VECTOR('Line Direction',#1160,1.) ;
#1180=VECTOR('Line Direction',#1179,1.) ;
#1204=VECTOR('Line Direction',#1203,1.) ;
#1218=VECTOR('Line Direction',#1217,1.) ;
#1250=VECTOR('Line Direction',#1249,1.) ;
#1264=VECTOR('Line Direction',#1263,1.) ;
#1301=VECTOR('Line Direction',#1300,1.) ;
#1306=VECTOR('Line Direction',#1305,1.) ;
#1319=VECTOR('Line Direction',#1318,1.) ;
#1336=VECTOR('Line Direction',#1335,1.) ;
#1405=ADVANCED_BREP_SHAPE_REPRESENTATION('NONE',(#1404),#46) ;
#49=SHAPE_REPRESENTATION(' ',(#48),#46) ;
#91=ADVANCED_FACE('\X2\96F64EF651E04F554F53\X0\',(#90),#56,.T.) ;
#131=ADVANCED_FACE('\X2\96F64EF651E04F554F53\X0\',(#130),#96,.T.) ;
#372=ADVANCED_FACE('\X2\96F64EF651E04F554F53\X0\',(#161,#179,#197,#215,#233,#251,#269,#287,#329,#371),#136,.F.) ;
#435=ADVANCED_FACE('\X2\96F64EF651E04F554F53\X0\',(#434),#377,.T.) ;
#466=ADVANCED_FACE('\X2\96F64EF651E04F554F53\X0\',(#465),#440,.F.) ;
#478=ADVANCED_FACE('\X2\96F64EF651E04F554F53\X0\',(#477),#440,.F.) ;
#509=ADVANCED_FACE('\X2\96F64EF651E04F554F53\X0\',(#508),#483,.F.) ;
#521=ADVANCED_FACE('\X2\96F64EF651E04F554F53\X0\',(#520),#483,.F.) ;
#552=ADVANCED_FACE('\X2\96F64EF651E04F554F53\X0\',(#551),#526,.F.) ;
#564=ADVANCED_FACE('\X2\96F64EF651E04F554F53\X0\',(#563),#526,.F.) ;
#595=ADVANCED_FACE('\X2\96F64EF651E04F554F53\X0\',(#594),#569,.F.) ;
#607=ADVANCED_FACE('\X2\96F64EF651E04F554F53\X0\',(#606),#569,.F.) ;
#638=ADVANCED_FACE('\X2\96F64EF651E04F554F53\X0\',(#637),#612,.F.) ;
#650=ADVANCED_FACE('\X2\96F64EF651E04F554F53\X0\',(#649),#612,.F.) ;
#681=ADVANCED_FACE('\X2\96F64EF651E04F554F53\X0\',(#680),#655,.F.) ;
#693=ADVANCED_FACE('\X2\96F64EF651E04F554F53\X0\',(#692),#655,.F.) ;
#724=ADVANCED_FACE('\X2\96F64EF651E04F554F53\X0\',(#723),#698,.F.) ;
#736=ADVANCED_FACE('\X2\96F64EF651E04F554F53\X0\',(#735),#698,.F.) ;
#767=ADVANCED_FACE('\X2\96F64EF651E04F554F53\X0\',(#766),#741,.T.) ;
#791=ADVANCED_FACE('\X2\96F64EF651E04F554F53\X0\',(#790),#772,.T.) ;
#822=ADVANCED_FACE('\X2\96F64EF651E04F554F53\X0\',(#821),#796,.F.) ;
#839=ADVANCED_FACE('\X2\96F64EF651E04F554F53\X0\',(#838),#827,.F.) ;
#870=ADVANCED_FACE('\X2\96F64EF651E04F554F53\X0\',(#869),#844,.T.) ;
#894=ADVANCED_FACE('\X2\96F64EF651E04F554F53\X0\',(#893),#875,.T.) ;
#925=ADVANCED_FACE('\X2\96F64EF651E04F554F53\X0\',(#924),#899,.T.) ;
#937=ADVANCED_FACE('\X2\96F64EF651E04F554F53\X0\',(#936),#741,.T.) ;
#977=ADVANCED_FACE('\X2\96F64EF651E04F554F53\X0\',(#976),#942,.F.) ;
#1017=ADVANCED_FACE('\X2\96F64EF651E04F554F53\X0\',(#1016),#982,.F.) ;
#1034=ADVANCED_FACE('\X2\96F64EF651E04F554F53\X0\',(#1033),#1022,.F.) ;
#1058=ADVANCED_FACE('\X2\96F64EF651E04F554F53\X0\',(#1057),#1039,.F.) ;
#1097=ADVANCED_FACE('\X2\96F64EF651E04F554F53\X0\',(#1096),#1063,.T.) ;
#1128=ADVANCED_FACE('\X2\96F64EF651E04F554F53\X0\',(#1127),#1102,.F.) ;
#1158=ADVANCED_FACE('\X2\96F64EF651E04F554F53\X0\',(#1157),#899,.T.) ;
#1177=ADVANCED_FACE('\X2\96F64EF651E04F554F53\X0\',(#1176),#1039,.F.) ;
#1196=ADVANCED_FACE('\X2\96F64EF651E04F554F53\X0\',(#1195),#1039,.F.) ;
#1235=ADVANCED_FACE('\X2\96F64EF651E04F554F53\X0\',(#1234),#1201,.T.) ;
#1247=ADVANCED_FACE('\X2\96F64EF651E04F554F53\X0\',(#1246),#1022,.F.) ;
#1298=ADVANCED_FACE('\X2\96F64EF651E04F554F53\X0\',(#1297),#1022,.F.) ;
#1316=ADVANCED_FACE('\X2\96F64EF651E04F554F53\X0\',(#1315),#772,.T.) ;
#1328=ADVANCED_FACE('\X2\96F64EF651E04F554F53\X0\',(#1327),#1102,.F.) ;
#1346=ADVANCED_FACE('\X2\96F64EF651E04F554F53\X0\',(#1345),#1333,.T.) ;
#1403=ADVANCED_FACE('\X2\96F64EF651E04F554F53\X0\',(#1360,#1364,#1368,#1375,#1379,#1383,#1387,#1391,#1395,#1402),#1039,.T.) ;
#4=APPLICATION_PROTOCOL_DEFINITION('international standard','config_control_design',1994,#1) ;
#32=APPROVAL_DATE_TIME(#13,#21) ;
#1404=MANIFOLD_SOLID_BREP('\X2\96F64EF651E04F554F53\X0\',#51) ;
#11=CALENDAR_DATE(2026,2,5) ;
#30=CC_DESIGN_APPROVAL(#21,(#16,#6,#14)) ;
#18=CC_DESIGN_DATE_AND_TIME_ASSIGNMENT(#13,#17,(#16)) ;
#29=CC_DESIGN_DATE_AND_TIME_ASSIGNMENT(#13,#28,(#14)) ;
#17=DATE_TIME_ROLE('classification_date') ;
#28=DATE_TIME_ROLE('creation_date') ;
#27=CC_DESIGN_PERSON_AND_ORGANIZATION_ASSIGNMENT(#25,#26,(#16)) ;
#33=CC_DESIGN_PERSON_AND_ORGANIZATION_ASSIGNMENT(#25,#34,(#6)) ;
#35=CC_DESIGN_PERSON_AND_ORGANIZATION_ASSIGNMENT(#25,#36,(#6,#14)) ;
#37=CC_DESIGN_PERSON_AND_ORGANIZATION_ASSIGNMENT(#25,#38,(#5)) ;
#26=PERSON_AND_ORGANIZATION_ROLE('classification_officer') ;
#34=PERSON_AND_ORGANIZATION_ROLE('design_supplier') ;
#36=PERSON_AND_ORGANIZATION_ROLE('creator') ;
#38=PERSON_AND_ORGANIZATION_ROLE('design_owner') ;
#39=CC_DESIGN_SECURITY_CLASSIFICATION(#16,(#6)) ;
#69=CIRCLE('generated circle',#68,240.) ;
#83=CIRCLE('generated circle',#82,235.) ;
#109=CIRCLE('generated circle',#108,21.) ;
#123=CIRCLE('generated circle',#122,21.) ;
#147=CIRCLE('generated circle',#146,240.) ;
#165=CIRCLE('generated circle',#164,1.5) ;
#174=CIRCLE('generated circle',#173,1.5) ;
#183=CIRCLE('generated circle',#182,6.) ;
#192=CIRCLE('generated circle',#191,6.) ;
#201=CIRCLE('generated circle',#200,1.5) ;
#210=CIRCLE('generated circle',#209,1.5) ;
#219=CIRCLE('generated circle',#218,1.5) ;
#228=CIRCLE('generated circle',#227,1.5) ;
#237=CIRCLE('generated circle',#236,1.5) ;
#246=CIRCLE('generated circle',#245,1.5) ;
#255=CIRCLE('generated circle',#254,1.5) ;
#264=CIRCLE('generated circle',#263,1.5) ;
#273=CIRCLE('generated circle',#272,1.5) ;
#282=CIRCLE('generated circle',#281,1.5) ;
#307=CIRCLE('generated circle',#306,235.) ;
#321=CIRCLE('generated circle',#320,36.5) ;
#333=CIRCLE('generated circle',#332,36.5) ;
#349=CIRCLE('generated circle',#348,235.) ;
#395=CIRCLE('generated circle',#394,240.) ;
#402=CIRCLE('generated circle',#401,240.) ;
#409=CIRCLE('generated circle',#408,240.) ;
#416=CIRCLE('generated circle',#415,240.) ;
#423=CIRCLE('generated circle',#422,240.) ;
#444=CIRCLE('generated circle',#443,1.5) ;
#470=CIRCLE('generated circle',#469,1.5) ;
#487=CIRCLE('generated circle',#486,6.) ;
#513=CIRCLE('generated circle',#512,6.) ;
#530=CIRCLE('generated circle',#529,1.5) ;
#556=CIRCLE('generated circle',#555,1.5) ;
#573=CIRCLE('generated circle',#572,1.5) ;
#599=CIRCLE('generated circle',#598,1.5) ;
#616=CIRCLE('generated circle',#615,1.5) ;
#642=CIRCLE('generated circle',#641,1.5) ;
#659=CIRCLE('generated circle',#658,1.5) ;
#685=CIRCLE('generated circle',#684,1.5) ;
#702=CIRCLE('generated circle',#701,1.5) ;
#728=CIRCLE('generated circle',#727,1.5) ;
#745=CIRCLE('generated circle',#744,36.5) ;
#929=CIRCLE('generated circle',#928,36.5) ;
#1026=CIRCLE('generated circle',#1025,235.) ;
#1050=CIRCLE('generated circle',#1049,240.) ;
#1106=CIRCLE('generated circle',#1105,240.) ;
#1120=CIRCLE('generated circle',#1119,235.) ;
#1169=CIRCLE('generated circle',#1168,240.) ;
#1188=CIRCLE('generated circle',#1187,240.) ;
#1212=CIRCLE('generated circle',#1211,240.) ;
#1239=CIRCLE('generated circle',#1238,235.) ;
#1258=CIRCLE('generated circle',#1257,235.) ;
#1272=CIRCLE('generated circle',#1271,235.) ;
#1277=CIRCLE('generated circle',#1276,235.) ;
#1282=CIRCLE('generated circle',#1281,235.) ;
#1406=SHAPE_REPRESENTATION_RELATIONSHIP(' ',' ',#49,#1405) ;
#96=CYLINDRICAL_SURFACE('generated cylinder',#95,21.) ;
#377=CYLINDRICAL_SURFACE('generated cylinder',#376,240.) ;
#440=CYLINDRICAL_SURFACE('generated cylinder',#439,1.5) ;
#483=CYLINDRICAL_SURFACE('generated cylinder',#482,6.) ;
#526=CYLINDRICAL_SURFACE('generated cylinder',#525,1.5) ;
#569=CYLINDRICAL_SURFACE('generated cylinder',#568,1.5) ;
#612=CYLINDRICAL_SURFACE('generated cylinder',#611,1.5) ;
#655=CYLINDRICAL_SURFACE('generated cylinder',#654,1.5) ;
#698=CYLINDRICAL_SURFACE('generated cylinder',#697,1.5) ;
#741=CYLINDRICAL_SURFACE('generated cylinder',#740,36.5) ;
#1022=CYLINDRICAL_SURFACE('generated cylinder',#1021,235.) ;
#1201=CYLINDRICAL_SURFACE('generated cylinder',#1200,240.) ;
#3=DESIGN_CONTEXT(' ',#1,'design') ;
#65=EDGE_CURVE('',#62,#64,#60,.T.) ;
#72=EDGE_CURVE('',#64,#71,#69,.T.) ;
#79=EDGE_CURVE('',#71,#78,#76,.F.) ;
#84=EDGE_CURVE('',#78,#62,#83,.F.) ;
#105=EDGE_CURVE('',#102,#104,#100,.T.) ;
#112=EDGE_CURVE('',#102,#111,#109,.T.) ;
#119=EDGE_CURVE('',#111,#118,#116,.T.) ;
#124=EDGE_CURVE('',#104,#118,#123,.T.) ;
#143=EDGE_CURVE('',#142,#102,#140,.F.) ;
#150=EDGE_CURVE('',#149,#142,#147,.T.) ;
#155=EDGE_CURVE('',#111,#149,#154,.F.) ;
#170=EDGE_CURVE('',#167,#169,#165,.T.) ;
#175=EDGE_CURVE('',#169,#167,#174,.T.) ;
#188=EDGE_CURVE('',#185,#187,#183,.T.) ;
#193=EDGE_CURVE('',#187,#185,#192,.T.) ;
#206=EDGE_CURVE('',#203,#205,#201,.T.) ;
#211=EDGE_CURVE('',#205,#203,#210,.T.) ;
#224=EDGE_CURVE('',#221,#223,#219,.T.) ;
#229=EDGE_CURVE('',#223,#221,#228,.T.) ;
#242=EDGE_CURVE('',#239,#241,#237,.T.) ;
#247=EDGE_CURVE('',#241,#239,#246,.T.) ;
#260=EDGE_CURVE('',#257,#259,#255,.T.) ;
#265=EDGE_CURVE('',#259,#257,#264,.T.) ;
#278=EDGE_CURVE('',#275,#277,#273,.T.) ;
#283=EDGE_CURVE('',#277,#275,#282,.T.) ;
#296=EDGE_CURVE('',#293,#295,#291,.T.) ;
#303=EDGE_CURVE('',#295,#302,#300,.T.) ;
#310=EDGE_CURVE('',#302,#309,#307,.T.) ;
#317=EDGE_CURVE('',#309,#316,#314,.F.) ;
#322=EDGE_CURVE('',#316,#293,#321,.F.) ;
#338=EDGE_CURVE('',#335,#337,#333,.F.) ;
#345=EDGE_CURVE('',#337,#344,#342,.F.) ;
#352=EDGE_CURVE('',#344,#351,#349,.T.) ;
#359=EDGE_CURVE('',#351,#358,#356,.F.) ;
#364=EDGE_CURVE('',#358,#335,#363,.F.) ;
#384=EDGE_CURVE('',#149,#383,#381,.T.) ;
#391=EDGE_CURVE('',#142,#390,#388,.T.) ;
#398=EDGE_CURVE('',#397,#390,#395,.T.) ;
#405=EDGE_CURVE('',#404,#397,#402,.T.) ;
#412=EDGE_CURVE('',#411,#404,#409,.T.) ;
#419=EDGE_CURVE('',#418,#411,#416,.T.) ;
#424=EDGE_CURVE('',#383,#418,#423,.T.) ;
#449=EDGE_CURVE('',#446,#448,#444,.T.) ;
#454=EDGE_CURVE('',#167,#448,#453,.T.) ;
#459=EDGE_CURVE('',#169,#446,#458,.T.) ;
#471=EDGE_CURVE('',#448,#446,#470,.T.) ;
#492=EDGE_CURVE('',#489,#491,#487,.T.) ;
#497=EDGE_CURVE('',#185,#491,#496,.T.) ;
#502=EDGE_CURVE('',#187,#489,#501,.T.) ;
#514=EDGE_CURVE('',#491,#489,#513,.T.) ;
#535=EDGE_CURVE('',#532,#534,#530,.T.) ;
#540=EDGE_CURVE('',#203,#534,#539,.T.) ;
#545=EDGE_CURVE('',#205,#532,#544,.T.) ;
#557=EDGE_CURVE('',#534,#532,#556,.T.) ;
#578=EDGE_CURVE('',#575,#577,#573,.T.) ;
#583=EDGE_CURVE('',#221,#577,#582,.T.) ;
#588=EDGE_CURVE('',#223,#575,#587,.T.) ;
#600=EDGE_CURVE('',#577,#575,#599,.T.) ;
#621=EDGE_CURVE('',#618,#620,#616,.T.) ;
#626=EDGE_CURVE('',#239,#620,#625,.T.) ;
#631=EDGE_CURVE('',#241,#618,#630,.T.) ;
#643=EDGE_CURVE('',#620,#618,#642,.T.) ;
#664=EDGE_CURVE('',#661,#663,#659,.T.) ;
#669=EDGE_CURVE('',#257,#663,#668,.T.) ;
#674=EDGE_CURVE('',#259,#661,#673,.T.) ;
#686=EDGE_CURVE('',#663,#661,#685,.T.) ;
#707=EDGE_CURVE('',#704,#706,#702,.T.) ;
#712=EDGE_CURVE('',#275,#706,#711,.T.) ;
#717=EDGE_CURVE('',#277,#704,#716,.T.) ;
#729=EDGE_CURVE('',#706,#704,#728,.T.) ;
#750=EDGE_CURVE('',#747,#749,#745,.F.) ;
#755=EDGE_CURVE('',#293,#749,#754,.T.) ;
#760=EDGE_CURVE('',#316,#747,#759,.T.) ;
#779=EDGE_CURVE('',#778,#747,#776,.F.) ;
#784=EDGE_CURVE('',#309,#778,#783,.T.) ;
#805=EDGE_CURVE('',#802,#804,#800,.T.) ;
#810=EDGE_CURVE('',#302,#804,#809,.T.) ;
#815=EDGE_CURVE('',#295,#802,#814,.T.) ;
#832=EDGE_CURVE('',#749,#802,#831,.T.) ;
#853=EDGE_CURVE('',#850,#852,#848,.F.) ;
#858=EDGE_CURVE('',#335,#852,#857,.T.) ;
#863=EDGE_CURVE('',#358,#850,#862,.T.) ;
#882=EDGE_CURVE('',#881,#850,#879,.F.) ;
#887=EDGE_CURVE('',#351,#881,#886,.T.) ;
#908=EDGE_CURVE('',#905,#907,#903,.F.) ;
#913=EDGE_CURVE('',#344,#907,#912,.T.) ;
#918=EDGE_CURVE('',#337,#905,#917,.T.) ;
#930=EDGE_CURVE('',#852,#905,#929,.F.) ;
#949=EDGE_CURVE('',#948,#71,#946,.T.) ;
#954=EDGE_CURVE('',#948,#390,#953,.F.) ;
#961=EDGE_CURVE('',#960,#104,#958,.F.) ;
#966=EDGE_CURVE('',#960,#78,#965,.T.) ;
#989=EDGE_CURVE('',#988,#62,#986,.T.) ;
#994=EDGE_CURVE('',#118,#988,#993,.F.) ;
#1001=EDGE_CURVE('',#383,#1000,#998,.T.) ;
#1006=EDGE_CURVE('',#1000,#64,#1005,.T.) ;
#1027=EDGE_CURVE('',#907,#881,#1026,.T.) ;
#1046=EDGE_CURVE('',#397,#1045,#1043,.T.) ;
#1051=EDGE_CURVE('',#1045,#948,#1050,.T.) ;
#1072=EDGE_CURVE('',#1069,#1071,#1067,.T.) ;
#1077=EDGE_CURVE('',#1069,#397,#1076,.T.) ;
#1084=EDGE_CURVE('',#1045,#1083,#1081,.T.) ;
#1089=EDGE_CURVE('',#1083,#1071,#1088,.T.) ;
#1109=EDGE_CURVE('',#1108,#1083,#1106,.T.) ;
#1116=EDGE_CURVE('',#1108,#1115,#1113,.T.) ;
#1121=EDGE_CURVE('',#1115,#1071,#1120,.T.) ;
#1133=EDGE_CURVE('',#907,#1115,#1132,.T.) ;
#1140=EDGE_CURVE('',#1139,#1108,#1137,.T.) ;
#1145=EDGE_CURVE('',#404,#1139,#1144,.T.) ;
#1150=EDGE_CURVE('',#907,#404,#1149,.T.) ;
#1165=EDGE_CURVE('',#1164,#418,#1162,.T.) ;
#1170=EDGE_CURVE('',#1000,#1164,#1169,.T.) ;
#1184=EDGE_CURVE('',#1183,#411,#1181,.T.) ;
#1189=EDGE_CURVE('',#1183,#1139,#1188,.T.) ;
#1208=EDGE_CURVE('',#1164,#1207,#1205,.T.) ;
#1215=EDGE_CURVE('',#1207,#1214,#1212,.T.) ;
#1220=EDGE_CURVE('',#1183,#1214,#1219,.T.) ;
#1240=EDGE_CURVE('',#804,#778,#1239,.T.) ;
#1254=EDGE_CURVE('',#778,#1253,#1251,.T.) ;
#1261=EDGE_CURVE('',#1260,#1253,#1258,.T.) ;
#1268=EDGE_CURVE('',#1267,#1260,#1265,.T.) ;
#1273=EDGE_CURVE('',#1267,#988,#1272,.F.) ;
#1278=EDGE_CURVE('',#960,#1069,#1277,.F.) ;
#1283=EDGE_CURVE('',#907,#778,#1282,.F.) ;
#1303=EDGE_CURVE('',#411,#778,#1302,.T.) ;
#1308=EDGE_CURVE('',#1253,#1214,#1307,.F.) ;
#1321=EDGE_CURVE('',#1260,#1207,#1320,.F.) ;
#1338=EDGE_CURVE('',#418,#1267,#1337,.T.) ;
#85=EDGE_LOOP('',(#86,#87,#88,#89)) ;
#125=EDGE_LOOP('',(#126,#127,#128,#129)) ;
#156=EDGE_LOOP('',(#157,#158,#159,#160)) ;
#176=EDGE_LOOP('',(#177,#178)) ;
#194=EDGE_LOOP('',(#195,#196)) ;
#212=EDGE_LOOP('',(#213,#214)) ;
#230=EDGE_LOOP('',(#231,#232)) ;
#248=EDGE_LOOP('',(#249,#250)) ;
#266=EDGE_LOOP('',(#267,#268)) ;
#284=EDGE_LOOP('',(#285,#286)) ;
#323=EDGE_LOOP('',(#324,#325,#326,#327,#328)) ;
#365=EDGE_LOOP('',(#366,#367,#368,#369,#370)) ;
#425=EDGE_LOOP('',(#426,#427,#428,#429,#430,#431,#432,#433)) ;
#460=EDGE_LOOP('',(#461,#462,#463,#464)) ;
#472=EDGE_LOOP('',(#473,#474,#475,#476)) ;
#503=EDGE_LOOP('',(#504,#505,#506,#507)) ;
#515=EDGE_LOOP('',(#516,#517,#518,#519)) ;
#546=EDGE_LOOP('',(#547,#548,#549,#550)) ;
#558=EDGE_LOOP('',(#559,#560,#561,#562)) ;
#589=EDGE_LOOP('',(#590,#591,#592,#593)) ;
#601=EDGE_LOOP('',(#602,#603,#604,#605)) ;
#632=EDGE_LOOP('',(#633,#634,#635,#636)) ;
#644=EDGE_LOOP('',(#645,#646,#647,#648)) ;
#675=EDGE_LOOP('',(#676,#677,#678,#679)) ;
#687=EDGE_LOOP('',(#688,#689,#690,#691)) ;
#718=EDGE_LOOP('',(#719,#720,#721,#722)) ;
#730=EDGE_LOOP('',(#731,#732,#733,#734)) ;
#761=EDGE_LOOP('',(#762,#763,#764,#765)) ;
#785=EDGE_LOOP('',(#786,#787,#788,#789)) ;
#816=EDGE_LOOP('',(#817,#818,#819,#820)) ;
#833=EDGE_LOOP('',(#834,#835,#836,#837)) ;
#864=EDGE_LOOP('',(#865,#866,#867,#868)) ;
#888=EDGE_LOOP('',(#889,#890,#891,#892)) ;
#919=EDGE_LOOP('',(#920,#921,#922,#923)) ;
#931=EDGE_LOOP('',(#932,#933,#934,#935)) ;
#967=EDGE_LOOP('',(#968,#969,#970,#971,#972,#973,#974,#975)) ;
#1007=EDGE_LOOP('',(#1008,#1009,#1010,#1011,#1012,#1013,#1014,#1015)) ;
#1028=EDGE_LOOP('',(#1029,#1030,#1031,#1032)) ;
#1052=EDGE_LOOP('',(#1053,#1054,#1055,#1056)) ;
#1090=EDGE_LOOP('',(#1091,#1092,#1093,#1094,#1095)) ;
#1122=EDGE_LOOP('',(#1123,#1124,#1125,#1126)) ;
#1151=EDGE_LOOP('',(#1152,#1153,#1154,#1155,#1156)) ;
#1171=EDGE_LOOP('',(#1172,#1173,#1174,#1175)) ;
#1190=EDGE_LOOP('',(#1191,#1192,#1193,#1194)) ;
#1221=EDGE_LOOP('',(#1222,#1223,#1224,#1225,#1226,#1227,#1228,#1229,#1230,#1231,#1232,#1233)) ;
#1241=EDGE_LOOP('',(#1242,#1243,#1244,#1245)) ;
#1284=EDGE_LOOP('',(#1285,#1286,#1287,#1288,#1289,#1290,#1291,#1292,#1293,#1294,#1295,#1296)) ;
#1309=EDGE_LOOP('',(#1310,#1311,#1312,#1313,#1314)) ;
#1322=EDGE_LOOP('',(#1323,#1324,#1325,#1326)) ;
#1339=EDGE_LOOP('',(#1340,#1341,#1342,#1343,#1344)) ;
#1347=EDGE_LOOP('',(#1348,#1349,#1350,#1351,#1352,#1353,#1354,#1355,#1356,#1357,#1358,#1359)) ;
#1361=EDGE_LOOP('',(#1362,#1363)) ;
#1365=EDGE_LOOP('',(#1366,#1367)) ;
#1369=EDGE_LOOP('',(#1370,#1371,#1372,#1373,#1374)) ;
#1376=EDGE_LOOP('',(#1377,#1378)) ;
#1380=EDGE_LOOP('',(#1381,#1382)) ;
#1384=EDGE_LOOP('',(#1385,#1386)) ;
#1388=EDGE_LOOP('',(#1389,#1390)) ;
#1392=EDGE_LOOP('',(#1393,#1394)) ;
#1396=EDGE_LOOP('',(#1397,#1398,#1399,#1400,#1401)) ;
#90=FACE_OUTER_BOUND('',#85,.T.) ;
#130=FACE_OUTER_BOUND('',#125,.T.) ;
#161=FACE_OUTER_BOUND('',#156,.T.) ;
#434=FACE_OUTER_BOUND('',#425,.T.) ;
#465=FACE_OUTER_BOUND('',#460,.T.) ;
#477=FACE_OUTER_BOUND('',#472,.T.) ;
#508=FACE_OUTER_BOUND('',#503,.T.) ;
#520=FACE_OUTER_BOUND('',#515,.T.) ;
#551=FACE_OUTER_BOUND('',#546,.T.) ;
#563=FACE_OUTER_BOUND('',#558,.T.) ;
#594=FACE_OUTER_BOUND('',#589,.T.) ;
#606=FACE_OUTER_BOUND('',#601,.T.) ;
#637=FACE_OUTER_BOUND('',#632,.T.) ;
#649=FACE_OUTER_BOUND('',#644,.T.) ;
#680=FACE_OUTER_BOUND('',#675,.T.) ;
#692=FACE_OUTER_BOUND('',#687,.T.) ;
#723=FACE_OUTER_BOUND('',#718,.T.) ;
#735=FACE_OUTER_BOUND('',#730,.T.) ;
#766=FACE_OUTER_BOUND('',#761,.T.) ;
#790=FACE_OUTER_BOUND('',#785,.T.) ;
#821=FACE_OUTER_BOUND('',#816,.T.) ;
#838=FACE_OUTER_BOUND('',#833,.T.) ;
#869=FACE_OUTER_BOUND('',#864,.T.) ;
#893=FACE_OUTER_BOUND('',#888,.T.) ;
#924=FACE_OUTER_BOUND('',#919,.T.) ;
#936=FACE_OUTER_BOUND('',#931,.T.) ;
#976=FACE_OUTER_BOUND('',#967,.T.) ;
#1016=FACE_OUTER_BOUND('',#1007,.T.) ;
#1033=FACE_OUTER_BOUND('',#1028,.T.) ;
#1057=FACE_OUTER_BOUND('',#1052,.T.) ;
#1096=FACE_OUTER_BOUND('',#1090,.T.) ;
#1127=FACE_OUTER_BOUND('',#1122,.T.) ;
#1157=FACE_OUTER_BOUND('',#1151,.T.) ;
#1176=FACE_OUTER_BOUND('',#1171,.T.) ;
#1195=FACE_OUTER_BOUND('',#1190,.T.) ;
#1234=FACE_OUTER_BOUND('',#1221,.T.) ;
#1246=FACE_OUTER_BOUND('',#1241,.T.) ;
#1297=FACE_OUTER_BOUND('',#1284,.T.) ;
#1315=FACE_OUTER_BOUND('',#1309,.T.) ;
#1327=FACE_OUTER_BOUND('',#1322,.T.) ;
#1345=FACE_OUTER_BOUND('',#1339,.T.) ;
#1360=FACE_OUTER_BOUND('',#1347,.T.) ;
#45=UNCERTAINTY_MEASURE_WITH_UNIT(LENGTH_MEASURE(0.005),#41,'distance_accuracy_value','CONFUSED CURVE UNCERTAINTY') ;
#60=LINE('Line',#57,#59) ;
#76=LINE('Line',#73,#75) ;
#100=LINE('Line',#97,#99) ;
#116=LINE('Line',#113,#115) ;
#140=LINE('Line',#137,#139) ;
#154=LINE('Line',#151,#153) ;
#291=LINE('Line',#288,#290) ;
#300=LINE('Line',#297,#299) ;
#314=LINE('Line',#311,#313) ;
#342=LINE('Line',#339,#341) ;
#356=LINE('Line',#353,#355) ;
#363=LINE('Line',#360,#362) ;
#381=LINE('Line',#378,#380) ;
#388=LINE('Line',#385,#387) ;
#453=LINE('Line',#450,#452) ;
#458=LINE('Line',#455,#457) ;
#496=LINE('Line',#493,#495) ;
#501=LINE('Line',#498,#500) ;
#539=LINE('Line',#536,#538) ;
#544=LINE('Line',#541,#543) ;
#582=LINE('Line',#579,#581) ;
#587=LINE('Line',#584,#586) ;
#625=LINE('Line',#622,#624) ;
#630=LINE('Line',#627,#629) ;
#668=LINE('Line',#665,#667) ;
#673=LINE('Line',#670,#672) ;
#711=LINE('Line',#708,#710) ;
#716=LINE('Line',#713,#715) ;
#754=LINE('Line',#751,#753) ;
#759=LINE('Line',#756,#758) ;
#776=LINE('Line',#773,#775) ;
#783=LINE('Line',#780,#782) ;
#800=LINE('Line',#797,#799) ;
#809=LINE('Line',#806,#808) ;
#814=LINE('Line',#811,#813) ;
#831=LINE('Line',#828,#830) ;
#848=LINE('Line',#845,#847) ;
#857=LINE('Line',#854,#856) ;
#862=LINE('Line',#859,#861) ;
#879=LINE('Line',#876,#878) ;
#886=LINE('Line',#883,#885) ;
#903=LINE('Line',#900,#902) ;
#912=LINE('Line',#909,#911) ;
#917=LINE('Line',#914,#916) ;
#946=LINE('Line',#943,#945) ;
#953=LINE('Line',#950,#952) ;
#958=LINE('Line',#955,#957) ;
#965=LINE('Line',#962,#964) ;
#986=LINE('Line',#983,#985) ;
#993=LINE('Line',#990,#992) ;
#998=LINE('Line',#995,#997) ;
#1005=LINE('Line',#1002,#1004) ;
#1043=LINE('Line',#1040,#1042) ;
#1067=LINE('Line',#1064,#1066) ;
#1076=LINE('Line',#1073,#1075) ;
#1081=LINE('Line',#1078,#1080) ;
#1088=LINE('Line',#1085,#1087) ;
#1113=LINE('Line',#1110,#1112) ;
#1132=LINE('Line',#1129,#1131) ;
#1137=LINE('Line',#1134,#1136) ;
#1144=LINE('Line',#1141,#1143) ;
#1149=LINE('Line',#1146,#1148) ;
#1162=LINE('Line',#1159,#1161) ;
#1181=LINE('Line',#1178,#1180) ;
#1205=LINE('Line',#1202,#1204) ;
#1219=LINE('Line',#1216,#1218) ;
#1251=LINE('Line',#1248,#1250) ;
#1265=LINE('Line',#1262,#1264) ;
#1302=LINE('Line',#1299,#1301) ;
#1307=LINE('Line',#1304,#1306) ;
#1320=LINE('Line',#1317,#1319) ;
#1337=LINE('Line',#1334,#1336) ;
#2=MECHANICAL_CONTEXT(' ',#1,'mechanical') ;
#24=PERSONAL_ADDRESS(' ',' ',' ',' ',' ',' ',' ',' ',' ',' ',' ',' ',(#22),' ') ;
#56=PLANE('',#55) ;
#136=PLANE('',#135) ;
#772=PLANE('',#771) ;
#796=PLANE('',#795) ;
#827=PLANE('',#826) ;
#844=PLANE('',#843) ;
#875=PLANE('',#874) ;
#899=PLANE('',#898) ;
#942=PLANE('',#941) ;
#982=PLANE('',#981) ;
#1039=PLANE('',#1038) ;
#1063=PLANE('',#1062) ;
#1102=PLANE('',#1101) ;
#1333=PLANE('',#1332) ;
#43=PLANE_ANGLE_MEASURE_WITH_UNIT(PLANE_ANGLE_MEASURE(0.0174532925199),#42) ;
#7=PRODUCT_CATEGORY('part',$) ;
#9=PRODUCT_CATEGORY_RELATIONSHIP(' ',' ',#7,#8) ;
#6=PRODUCT_DEFINITION_FORMATION_WITH_SPECIFIED_SOURCE('',' ',#5,.NOT_KNOWN.) ;
#8=PRODUCT_RELATED_PRODUCT_CATEGORY('detail',$,(#5)) ;
#50=SHAPE_DEFINITION_REPRESENTATION(#40,#49) ;
#62=VERTEX_POINT('',#61) ;
#64=VERTEX_POINT('',#63) ;
#71=VERTEX_POINT('',#70) ;
#78=VERTEX_POINT('',#77) ;
#102=VERTEX_POINT('',#101) ;
#104=VERTEX_POINT('',#103) ;
#111=VERTEX_POINT('',#110) ;
#118=VERTEX_POINT('',#117) ;
#142=VERTEX_POINT('',#141) ;
#149=VERTEX_POINT('',#148) ;
#167=VERTEX_POINT('',#166) ;
#169=VERTEX_POINT('',#168) ;
#185=VERTEX_POINT('',#184) ;
#187=VERTEX_POINT('',#186) ;
#203=VERTEX_POINT('',#202) ;
#205=VERTEX_POINT('',#204) ;
#221=VERTEX_POINT('',#220) ;
#223=VERTEX_POINT('',#222) ;
#239=VERTEX_POINT('',#238) ;
#241=VERTEX_POINT('',#240) ;
#257=VERTEX_POINT('',#256) ;
#259=VERTEX_POINT('',#258) ;
#275=VERTEX_POINT('',#274) ;
#277=VERTEX_POINT('',#276) ;
#293=VERTEX_POINT('',#292) ;
#295=VERTEX_POINT('',#294) ;
#302=VERTEX_POINT('',#301) ;
#309=VERTEX_POINT('',#308) ;
#316=VERTEX_POINT('',#315) ;
#335=VERTEX_POINT('',#334) ;
#337=VERTEX_POINT('',#336) ;
#344=VERTEX_POINT('',#343) ;
#351=VERTEX_POINT('',#350) ;
#358=VERTEX_POINT('',#357) ;
#383=VERTEX_POINT('',#382) ;
#390=VERTEX_POINT('',#389) ;
#397=VERTEX_POINT('',#396) ;
#404=VERTEX_POINT('',#403) ;
#411=VERTEX_POINT('',#410) ;
#418=VERTEX_POINT('',#417) ;
#446=VERTEX_POINT('',#445) ;
#448=VERTEX_POINT('',#447) ;
#489=VERTEX_POINT('',#488) ;
#491=VERTEX_POINT('',#490) ;
#532=VERTEX_POINT('',#531) ;
#534=VERTEX_POINT('',#533) ;
#575=VERTEX_POINT('',#574) ;
#577=VERTEX_POINT('',#576) ;
#618=VERTEX_POINT('',#617) ;
#620=VERTEX_POINT('',#619) ;
#661=VERTEX_POINT('',#660) ;
#663=VERTEX_POINT('',#662) ;
#704=VERTEX_POINT('',#703) ;
#706=VERTEX_POINT('',#705) ;
#747=VERTEX_POINT('',#746) ;
#749=VERTEX_POINT('',#748) ;
#778=VERTEX_POINT('',#777) ;
#802=VERTEX_POINT('',#801) ;
#804=VERTEX_POINT('',#803) ;
#850=VERTEX_POINT('',#849) ;
#852=VERTEX_POINT('',#851) ;
#881=VERTEX_POINT('',#880) ;
#905=VERTEX_POINT('',#904) ;
#907=VERTEX_POINT('',#906) ;
#948=VERTEX_POINT('',#947) ;
#960=VERTEX_POINT('',#959) ;
#988=VERTEX_POINT('',#987) ;
#1000=VERTEX_POINT('',#999) ;
#1045=VERTEX_POINT('',#1044) ;
#1069=VERTEX_POINT('',#1068) ;
#1071=VERTEX_POINT('',#1070) ;
#1083=VERTEX_POINT('',#1082) ;
#1108=VERTEX_POINT('',#1107) ;
#1115=VERTEX_POINT('',#1114) ;
#1139=VERTEX_POINT('',#1138) ;
#1164=VERTEX_POINT('',#1163) ;
#1183=VERTEX_POINT('',#1182) ;
#1207=VERTEX_POINT('',#1206) ;
#1214=VERTEX_POINT('',#1213) ;
#1253=VERTEX_POINT('',#1252) ;
#1260=VERTEX_POINT('',#1259) ;
#1267=VERTEX_POINT('',#1266) ;
#41=(LENGTH_UNIT()NAMED_UNIT(*)SI_UNIT(.MILLI.,.METRE.)) ;
#42=(NAMED_UNIT(*)PLANE_ANGLE_UNIT()SI_UNIT($,.RADIAN.)) ;
#44=(NAMED_UNIT(*)SI_UNIT($,.STERADIAN.)SOLID_ANGLE_UNIT()) ;
#46=(GEOMETRIC_REPRESENTATION_CONTEXT(3)GLOBAL_UNCERTAINTY_ASSIGNED_CONTEXT((#45))GLOBAL_UNIT_ASSIGNED_CONTEXT((#41,#42,#44))REPRESENTATION_CONTEXT(' ',' ')) ;
ENDSEC;
END-ISO-10303-21;
