ISO-10303-21;
HEADER;
FILE_DESCRIPTION(('CATIA V5 STEP Exchange'),'2;1');

FILE_NAME('C:\\Users\\30628\\Desktop\\\X2\56FE4F20652F67B6\X0\\\2.stp','2026-09-09T05:28:41+00:00',('none'),('none'),'CATIA Version 5 Release 21 GA (IN-10)','CATIA V5 STEP AP203','none');

FILE_SCHEMA(('CONFIG_CONTROL_DESIGN'));

ENDSEC;
/* file written by CATIA V5R21 */
DATA;
#5=PRODUCT('Part1','','',(#2)) ;
#1=APPLICATION_CONTEXT('configuration controlled 3D design of mechanical parts and assemblies') ;
#14=PRODUCT_DEFINITION('',' ',#6,#3) ;
#16=SECURITY_CLASSIFICATION(' ',' ',#15) ;
#15=SECURITY_CLASSIFICATION_LEVEL('unclassified') ;
#47=CARTESIAN_POINT(' ',(0.,0.,0.)) ;
#52=CARTESIAN_POINT('Axis2P3D Location',(-20.,20.,0.)) ;
#57=CARTESIAN_POINT('Line Origine',(20.,20.,1.5)) ;
#61=CARTESIAN_POINT('Vertex',(20.,20.,0.)) ;
#63=CARTESIAN_POINT('Vertex',(20.,20.,3.)) ;
#66=CARTESIAN_POINT('Line Origine',(0.,20.,0.)) ;
#70=CARTESIAN_POINT('Vertex',(-20.,20.,0.)) ;
#73=CARTESIAN_POINT('Line Origine',(-20.,20.,1.5)) ;
#77=CARTESIAN_POINT('Vertex',(-20.,20.,3.)) ;
#80=CARTESIAN_POINT('Line Origine',(0.,20.,3.)) ;
#92=CARTESIAN_POINT('Axis2P3D Location',(-20.,-20.,0.)) ;
#97=CARTESIAN_POINT('Line Origine',(-20.,7.1054273576E-015,0.)) ;
#101=CARTESIAN_POINT('Vertex',(-20.,-20.,0.)) ;
#104=CARTESIAN_POINT('Line Origine',(-20.,-20.,1.5)) ;
#108=CARTESIAN_POINT('Vertex',(-20.,-20.,3.)) ;
#111=CARTESIAN_POINT('Line Origine',(-20.,7.1054273576E-015,3.)) ;
#123=CARTESIAN_POINT('Axis2P3D Location',(20.,-20.,0.)) ;
#128=CARTESIAN_POINT('Line Origine',(3.5527136788E-015,-20.,0.)) ;
#132=CARTESIAN_POINT('Vertex',(20.,-20.,0.)) ;
#135=CARTESIAN_POINT('Line Origine',(20.,-20.,1.5)) ;
#139=CARTESIAN_POINT('Vertex',(20.,-20.,3.)) ;
#142=CARTESIAN_POINT('Line Origine',(3.5527136788E-015,-20.,3.)) ;
#154=CARTESIAN_POINT('Axis2P3D Location',(20.,20.,0.)) ;
#159=CARTESIAN_POINT('Line Origine',(20.,-7.1054273576E-015,0.)) ;
#164=CARTESIAN_POINT('Line Origine',(20.,-7.1054273576E-015,3.)) ;
#176=CARTESIAN_POINT('Axis2P3D Location',(18.5,17.,1.5)) ;
#181=CARTESIAN_POINT('Axis2P3D Location',(18.5,17.,3.)) ;
#185=CARTESIAN_POINT('Vertex',(17.5,17.,3.)) ;
#187=CARTESIAN_POINT('Vertex',(19.5,17.,3.)) ;
#190=CARTESIAN_POINT('Line Origine',(19.5,17.,1.5)) ;
#194=CARTESIAN_POINT('Vertex',(19.5,17.,0.)) ;
#197=CARTESIAN_POINT('Axis2P3D Location',(18.5,17.,0.)) ;
#201=CARTESIAN_POINT('Vertex',(17.5,17.,0.)) ;
#204=CARTESIAN_POINT('Line Origine',(17.5,17.,1.5)) ;
#216=CARTESIAN_POINT('Axis2P3D Location',(18.5,17.,3.)) ;
#221=CARTESIAN_POINT('Axis2P3D Location',(18.5,17.,0.)) ;
#233=CARTESIAN_POINT('Axis2P3D Location',(18.5,-17.,1.5)) ;
#238=CARTESIAN_POINT('Axis2P3D Location',(18.5,-17.,3.)) ;
#242=CARTESIAN_POINT('Vertex',(17.5,-17.,3.)) ;
#244=CARTESIAN_POINT('Vertex',(19.5,-17.,3.)) ;
#247=CARTESIAN_POINT('Line Origine',(19.5,-17.,1.5)) ;
#251=CARTESIAN_POINT('Vertex',(19.5,-17.,0.)) ;
#254=CARTESIAN_POINT('Axis2P3D Location',(18.5,-17.,0.)) ;
#258=CARTESIAN_POINT('Vertex',(17.5,-17.,0.)) ;
#261=CARTESIAN_POINT('Line Origine',(17.5,-17.,1.5)) ;
#273=CARTESIAN_POINT('Axis2P3D Location',(18.5,-17.,3.)) ;
#278=CARTESIAN_POINT('Axis2P3D Location',(18.5,-17.,0.)) ;
#290=CARTESIAN_POINT('Axis2P3D Location',(-18.5,17.,1.5)) ;
#295=CARTESIAN_POINT('Axis2P3D Location',(-18.5,17.,3.)) ;
#299=CARTESIAN_POINT('Vertex',(-17.5,17.,3.)) ;
#301=CARTESIAN_POINT('Vertex',(-19.5,17.,3.)) ;
#304=CARTESIAN_POINT('Line Origine',(-19.5,17.,1.5)) ;
#308=CARTESIAN_POINT('Vertex',(-19.5,17.,0.)) ;
#311=CARTESIAN_POINT('Axis2P3D Location',(-18.5,17.,0.)) ;
#315=CARTESIAN_POINT('Vertex',(-17.5,17.,0.)) ;
#318=CARTESIAN_POINT('Line Origine',(-17.5,17.,1.5)) ;
#330=CARTESIAN_POINT('Axis2P3D Location',(-18.5,17.,3.)) ;
#335=CARTESIAN_POINT('Axis2P3D Location',(-18.5,17.,0.)) ;
#347=CARTESIAN_POINT('Axis2P3D Location',(-18.5,-17.,1.5)) ;
#352=CARTESIAN_POINT('Axis2P3D Location',(-18.5,-17.,3.)) ;
#356=CARTESIAN_POINT('Vertex',(-17.5,-17.,3.)) ;
#358=CARTESIAN_POINT('Vertex',(-19.5,-17.,3.)) ;
#361=CARTESIAN_POINT('Line Origine',(-19.5,-17.,1.5)) ;
#365=CARTESIAN_POINT('Vertex',(-19.5,-17.,0.)) ;
#368=CARTESIAN_POINT('Axis2P3D Location',(-18.5,-17.,0.)) ;
#372=CARTESIAN_POINT('Vertex',(-17.5,-17.,0.)) ;
#375=CARTESIAN_POINT('Line Origine',(-17.5,-17.,1.5)) ;
#387=CARTESIAN_POINT('Axis2P3D Location',(-18.5,-17.,3.)) ;
#392=CARTESIAN_POINT('Axis2P3D Location',(-18.5,-17.,0.)) ;
#404=CARTESIAN_POINT('Axis2P3D Location',(0.,0.,0.)) ;
#432=CARTESIAN_POINT('Axis2P3D Location',(0.,0.,3.)) ;
#53=DIRECTION('Axis2P3D Direction',(0.,-1.,0.)) ;
#54=DIRECTION('Axis2P3D XDirection',(1.,0.,0.)) ;
#58=DIRECTION('Vector Direction',(0.,0.,1.)) ;
#67=DIRECTION('Vector Direction',(1.,0.,0.)) ;
#74=DIRECTION('Vector Direction',(0.,0.,1.)) ;
#81=DIRECTION('Vector Direction',(1.,0.,0.)) ;
#93=DIRECTION('Axis2P3D Direction',(1.,0.,0.)) ;
#94=DIRECTION('Axis2P3D XDirection',(0.,1.,0.)) ;
#98=DIRECTION('Vector Direction',(0.,1.,0.)) ;
#105=DIRECTION('Vector Direction',(0.,0.,1.)) ;
#112=DIRECTION('Vector Direction',(0.,1.,0.)) ;
#124=DIRECTION('Axis2P3D Direction',(0.,1.,-0.)) ;
#125=DIRECTION('Axis2P3D XDirection',(-1.,0.,0.)) ;
#129=DIRECTION('Vector Direction',(-1.,0.,0.)) ;
#136=DIRECTION('Vector Direction',(0.,0.,1.)) ;
#143=DIRECTION('Vector Direction',(-1.,0.,0.)) ;
#155=DIRECTION('Axis2P3D Direction',(-1.,0.,0.)) ;
#156=DIRECTION('Axis2P3D XDirection',(0.,-1.,0.)) ;
#160=DIRECTION('Vector Direction',(0.,-1.,0.)) ;
#165=DIRECTION('Vector Direction',(0.,-1.,0.)) ;
#177=DIRECTION('Axis2P3D Direction',(0.,0.,1.)) ;
#178=DIRECTION('Axis2P3D XDirection',(1.,0.,0.)) ;
#182=DIRECTION('Axis2P3D Direction',(0.,0.,1.)) ;
#191=DIRECTION('Vector Direction',(0.,0.,1.)) ;
#198=DIRECTION('Axis2P3D Direction',(0.,0.,1.)) ;
#205=DIRECTION('Vector Direction',(0.,0.,1.)) ;
#217=DIRECTION('Axis2P3D Direction',(0.,0.,1.)) ;
#222=DIRECTION('Axis2P3D Direction',(0.,0.,1.)) ;
#234=DIRECTION('Axis2P3D Direction',(0.,0.,1.)) ;
#235=DIRECTION('Axis2P3D XDirection',(1.,0.,0.)) ;
#239=DIRECTION('Axis2P3D Direction',(0.,0.,1.)) ;
#248=DIRECTION('Vector Direction',(0.,0.,1.)) ;
#255=DIRECTION('Axis2P3D Direction',(0.,0.,1.)) ;
#262=DIRECTION('Vector Direction',(0.,0.,1.)) ;
#274=DIRECTION('Axis2P3D Direction',(0.,0.,1.)) ;
#279=DIRECTION('Axis2P3D Direction',(0.,0.,1.)) ;
#291=DIRECTION('Axis2P3D Direction',(0.,0.,1.)) ;
#292=DIRECTION('Axis2P3D XDirection',(-1.,1.22460635382E-016,0.)) ;
#296=DIRECTION('Axis2P3D Direction',(0.,0.,1.)) ;
#305=DIRECTION('Vector Direction',(0.,0.,1.)) ;
#312=DIRECTION('Axis2P3D Direction',(0.,0.,1.)) ;
#319=DIRECTION('Vector Direction',(0.,0.,1.)) ;
#331=DIRECTION('Axis2P3D Direction',(0.,0.,1.)) ;
#336=DIRECTION('Axis2P3D Direction',(0.,0.,1.)) ;
#348=DIRECTION('Axis2P3D Direction',(0.,0.,1.)) ;
#349=DIRECTION('Axis2P3D XDirection',(-1.,1.22460635382E-016,0.)) ;
#353=DIRECTION('Axis2P3D Direction',(0.,0.,1.)) ;
#362=DIRECTION('Vector Direction',(0.,0.,1.)) ;
#369=DIRECTION('Axis2P3D Direction',(0.,0.,1.)) ;
#376=DIRECTION('Vector Direction',(0.,0.,1.)) ;
#388=DIRECTION('Axis2P3D Direction',(0.,0.,1.)) ;
#393=DIRECTION('Axis2P3D Direction',(0.,0.,1.)) ;
#405=DIRECTION('Axis2P3D Direction',(0.,0.,1.)) ;
#406=DIRECTION('Axis2P3D XDirection',(1.,0.,0.)) ;
#433=DIRECTION('Axis2P3D Direction',(0.,0.,1.)) ;
#434=DIRECTION('Axis2P3D XDirection',(1.,0.,0.)) ;
#48=AXIS2_PLACEMENT_3D(' ',#47,$,$) ;
#55=AXIS2_PLACEMENT_3D('Plane Axis2P3D',#52,#53,#54) ;
#95=AXIS2_PLACEMENT_3D('Plane Axis2P3D',#92,#93,#94) ;
#126=AXIS2_PLACEMENT_3D('Plane Axis2P3D',#123,#124,#125) ;
#157=AXIS2_PLACEMENT_3D('Plane Axis2P3D',#154,#155,#156) ;
#179=AXIS2_PLACEMENT_3D('Cylinder Axis2P3D',#176,#177,#178) ;
#183=AXIS2_PLACEMENT_3D('Circle Axis2P3D',#181,#182,$) ;
#199=AXIS2_PLACEMENT_3D('Circle Axis2P3D',#197,#198,$) ;
#218=AXIS2_PLACEMENT_3D('Circle Axis2P3D',#216,#217,$) ;
#223=AXIS2_PLACEMENT_3D('Circle Axis2P3D',#221,#222,$) ;
#236=AXIS2_PLACEMENT_3D('Cylinder Axis2P3D',#233,#234,#235) ;
#240=AXIS2_PLACEMENT_3D('Circle Axis2P3D',#238,#239,$) ;
#256=AXIS2_PLACEMENT_3D('Circle Axis2P3D',#254,#255,$) ;
#275=AXIS2_PLACEMENT_3D('Circle Axis2P3D',#273,#274,$) ;
#280=AXIS2_PLACEMENT_3D('Circle Axis2P3D',#278,#279,$) ;
#293=AXIS2_PLACEMENT_3D('Cylinder Axis2P3D',#290,#291,#292) ;
#297=AXIS2_PLACEMENT_3D('Circle Axis2P3D',#295,#296,$) ;
#313=AXIS2_PLACEMENT_3D('Circle Axis2P3D',#311,#312,$) ;
#332=AXIS2_PLACEMENT_3D('Circle Axis2P3D',#330,#331,$) ;
#337=AXIS2_PLACEMENT_3D('Circle Axis2P3D',#335,#336,$) ;
#350=AXIS2_PLACEMENT_3D('Cylinder Axis2P3D',#347,#348,#349) ;
#354=AXIS2_PLACEMENT_3D('Circle Axis2P3D',#352,#353,$) ;
#370=AXIS2_PLACEMENT_3D('Circle Axis2P3D',#368,#369,$) ;
#389=AXIS2_PLACEMENT_3D('Circle Axis2P3D',#387,#388,$) ;
#394=AXIS2_PLACEMENT_3D('Circle Axis2P3D',#392,#393,$) ;
#407=AXIS2_PLACEMENT_3D('Plane Axis2P3D',#404,#405,#406) ;
#435=AXIS2_PLACEMENT_3D('Plane Axis2P3D',#432,#433,#434) ;
#40=PRODUCT_DEFINITION_SHAPE(' ',' ',#14) ;
#31=APPROVAL_PERSON_ORGANIZATION(#25,#21,#19) ;
#25=PERSON_AND_ORGANIZATION(#22,#23) ;
#22=PERSON(' ',' ',' ',$,$,$) ;
#23=ORGANIZATION(' ',' ',' ') ;
#21=APPROVAL(#20,' ') ;
#20=APPROVAL_STATUS('not_yet_approved') ;
#19=APPROVAL_ROLE('APPROVER') ;
#13=DATE_AND_TIME(#11,#12) ;
#12=LOCAL_TIME(13,28,41.,#10) ;
#10=COORDINATED_UNIVERSAL_TIME_OFFSET(0,0,.AHEAD.) ;
#86=ORIENTED_EDGE('',*,*,#65,.F.) ;
#87=ORIENTED_EDGE('',*,*,#72,.T.) ;
#88=ORIENTED_EDGE('',*,*,#79,.T.) ;
#89=ORIENTED_EDGE('',*,*,#84,.F.) ;
#117=ORIENTED_EDGE('',*,*,#79,.F.) ;
#118=ORIENTED_EDGE('',*,*,#103,.T.) ;
#119=ORIENTED_EDGE('',*,*,#110,.T.) ;
#120=ORIENTED_EDGE('',*,*,#115,.F.) ;
#148=ORIENTED_EDGE('',*,*,#110,.F.) ;
#149=ORIENTED_EDGE('',*,*,#134,.T.) ;
#150=ORIENTED_EDGE('',*,*,#141,.T.) ;
#151=ORIENTED_EDGE('',*,*,#146,.F.) ;
#170=ORIENTED_EDGE('',*,*,#141,.F.) ;
#171=ORIENTED_EDGE('',*,*,#163,.T.) ;
#172=ORIENTED_EDGE('',*,*,#65,.T.) ;
#173=ORIENTED_EDGE('',*,*,#168,.F.) ;
#210=ORIENTED_EDGE('',*,*,#189,.T.) ;
#211=ORIENTED_EDGE('',*,*,#196,.F.) ;
#212=ORIENTED_EDGE('',*,*,#203,.F.) ;
#213=ORIENTED_EDGE('',*,*,#208,.T.) ;
#227=ORIENTED_EDGE('',*,*,#220,.T.) ;
#228=ORIENTED_EDGE('',*,*,#208,.F.) ;
#229=ORIENTED_EDGE('',*,*,#225,.F.) ;
#230=ORIENTED_EDGE('',*,*,#196,.T.) ;
#267=ORIENTED_EDGE('',*,*,#246,.T.) ;
#268=ORIENTED_EDGE('',*,*,#253,.F.) ;
#269=ORIENTED_EDGE('',*,*,#260,.F.) ;
#270=ORIENTED_EDGE('',*,*,#265,.T.) ;
#284=ORIENTED_EDGE('',*,*,#277,.T.) ;
#285=ORIENTED_EDGE('',*,*,#265,.F.) ;
#286=ORIENTED_EDGE('',*,*,#282,.F.) ;
#287=ORIENTED_EDGE('',*,*,#253,.T.) ;
#324=ORIENTED_EDGE('',*,*,#303,.T.) ;
#325=ORIENTED_EDGE('',*,*,#310,.F.) ;
#326=ORIENTED_EDGE('',*,*,#317,.F.) ;
#327=ORIENTED_EDGE('',*,*,#322,.T.) ;
#341=ORIENTED_EDGE('',*,*,#334,.T.) ;
#342=ORIENTED_EDGE('',*,*,#322,.F.) ;
#343=ORIENTED_EDGE('',*,*,#339,.F.) ;
#344=ORIENTED_EDGE('',*,*,#310,.T.) ;
#381=ORIENTED_EDGE('',*,*,#360,.T.) ;
#382=ORIENTED_EDGE('',*,*,#367,.F.) ;
#383=ORIENTED_EDGE('',*,*,#374,.F.) ;
#384=ORIENTED_EDGE('',*,*,#379,.T.) ;
#398=ORIENTED_EDGE('',*,*,#391,.T.) ;
#399=ORIENTED_EDGE('',*,*,#379,.F.) ;
#400=ORIENTED_EDGE('',*,*,#396,.F.) ;
#401=ORIENTED_EDGE('',*,*,#367,.T.) ;
#410=ORIENTED_EDGE('',*,*,#163,.F.) ;
#411=ORIENTED_EDGE('',*,*,#134,.F.) ;
#412=ORIENTED_EDGE('',*,*,#103,.F.) ;
#413=ORIENTED_EDGE('',*,*,#72,.F.) ;
#416=ORIENTED_EDGE('',*,*,#225,.T.) ;
#417=ORIENTED_EDGE('',*,*,#203,.T.) ;
#420=ORIENTED_EDGE('',*,*,#282,.T.) ;
#421=ORIENTED_EDGE('',*,*,#260,.T.) ;
#424=ORIENTED_EDGE('',*,*,#339,.T.) ;
#425=ORIENTED_EDGE('',*,*,#317,.T.) ;
#428=ORIENTED_EDGE('',*,*,#396,.T.) ;
#429=ORIENTED_EDGE('',*,*,#374,.T.) ;
#438=ORIENTED_EDGE('',*,*,#84,.T.) ;
#439=ORIENTED_EDGE('',*,*,#115,.T.) ;
#440=ORIENTED_EDGE('',*,*,#146,.T.) ;
#441=ORIENTED_EDGE('',*,*,#168,.T.) ;
#444=ORIENTED_EDGE('',*,*,#189,.F.) ;
#445=ORIENTED_EDGE('',*,*,#220,.F.) ;
#448=ORIENTED_EDGE('',*,*,#246,.F.) ;
#449=ORIENTED_EDGE('',*,*,#277,.F.) ;
#452=ORIENTED_EDGE('',*,*,#303,.F.) ;
#453=ORIENTED_EDGE('',*,*,#334,.F.) ;
#456=ORIENTED_EDGE('',*,*,#360,.F.) ;
#457=ORIENTED_EDGE('',*,*,#391,.F.) ;
#418=FACE_BOUND('',#415,.T.) ;
#422=FACE_BOUND('',#419,.T.) ;
#426=FACE_BOUND('',#423,.T.) ;
#430=FACE_BOUND('',#427,.T.) ;
#446=FACE_BOUND('',#443,.T.) ;
#450=FACE_BOUND('',#447,.T.) ;
#454=FACE_BOUND('',#451,.T.) ;
#458=FACE_BOUND('',#455,.T.) ;
#51=CLOSED_SHELL('Closed Shell',(#91,#122,#153,#175,#215,#232,#272,#289,#329,#346,#386,#403,#431,#459)) ;
#59=VECTOR('Line Direction',#58,1.) ;
#68=VECTOR('Line Direction',#67,1.) ;
#75=VECTOR('Line Direction',#74,1.) ;
#82=VECTOR('Line Direction',#81,1.) ;
#99=VECTOR('Line Direction',#98,1.) ;
#106=VECTOR('Line Direction',#105,1.) ;
#113=VECTOR('Line Direction',#112,1.) ;
#130=VECTOR('Line Direction',#129,1.) ;
#137=VECTOR('Line Direction',#136,1.) ;
#144=VECTOR('Line Direction',#143,1.) ;
#161=VECTOR('Line Direction',#160,1.) ;
#166=VECTOR('Line Direction',#165,1.) ;
#192=VECTOR('Line Direction',#191,1.) ;
#206=VECTOR('Line Direction',#205,1.) ;
#249=VECTOR('Line Direction',#248,1.) ;
#263=VECTOR('Line Direction',#262,1.) ;
#306=VECTOR('Line Direction',#305,1.) ;
#320=VECTOR('Line Direction',#319,1.) ;
#363=VECTOR('Line Direction',#362,1.) ;
#377=VECTOR('Line Direction',#376,1.) ;
#461=ADVANCED_BREP_SHAPE_REPRESENTATION('NONE',(#460),#46) ;
#49=SHAPE_REPRESENTATION(' ',(#48),#46) ;
#91=ADVANCED_FACE('\X2\96F64EF651E04F554F53\X0\',(#90),#56,.F.) ;
#122=ADVANCED_FACE('\X2\96F64EF651E04F554F53\X0\',(#121),#96,.F.) ;
#153=ADVANCED_FACE('\X2\96F64EF651E04F554F53\X0\',(#152),#127,.F.) ;
#175=ADVANCED_FACE('\X2\96F64EF651E04F554F53\X0\',(#174),#158,.F.) ;
#215=ADVANCED_FACE('\X2\96F64EF651E04F554F53\X0\',(#214),#180,.F.) ;
#232=ADVANCED_FACE('\X2\96F64EF651E04F554F53\X0\',(#231),#180,.F.) ;
#272=ADVANCED_FACE('\X2\96F64EF651E04F554F53\X0\',(#271),#237,.F.) ;
#289=ADVANCED_FACE('\X2\96F64EF651E04F554F53\X0\',(#288),#237,.F.) ;
#329=ADVANCED_FACE('\X2\96F64EF651E04F554F53\X0\',(#328),#294,.F.) ;
#346=ADVANCED_FACE('\X2\96F64EF651E04F554F53\X0\',(#345),#294,.F.) ;
#386=ADVANCED_FACE('\X2\96F64EF651E04F554F53\X0\',(#385),#351,.F.) ;
#403=ADVANCED_FACE('\X2\96F64EF651E04F554F53\X0\',(#402),#351,.F.) ;
#431=ADVANCED_FACE('\X2\96F64EF651E04F554F53\X0\',(#414,#418,#422,#426,#430),#408,.F.) ;
#459=ADVANCED_FACE('\X2\96F64EF651E04F554F53\X0\',(#442,#446,#450,#454,#458),#436,.T.) ;
#4=APPLICATION_PROTOCOL_DEFINITION('international standard','config_control_design',1994,#1) ;
#32=APPROVAL_DATE_TIME(#13,#21) ;
#460=MANIFOLD_SOLID_BREP('\X2\96F64EF651E04F554F53\X0\',#51) ;
#11=CALENDAR_DATE(2026,9,9) ;
#30=CC_DESIGN_APPROVAL(#21,(#16,#6,#14)) ;
#18=CC_DESIGN_DATE_AND_TIME_ASSIGNMENT(#13,#17,(#16)) ;
#29=CC_DESIGN_DATE_AND_TIME_ASSIGNMENT(#13,#28,(#14)) ;
#17=DATE_TIME_ROLE('classification_date') ;
#28=DATE_TIME_ROLE('creation_date') ;
#27=CC_DESIGN_PERSON_AND_ORGANIZATION_ASSIGNMENT(#25,#26,(#16)) ;
#33=CC_DESIGN_PERSON_AND_ORGANIZATION_ASSIGNMENT(#25,#34,(#6)) ;
#35=CC_DESIGN_PERSON_AND_ORGANIZATION_ASSIGNMENT(#25,#36,(#6,#14)) ;
#37=CC_DESIGN_PERSON_AND_ORGANIZATION_ASSIGNMENT(#25,#38,(#5)) ;
#26=PERSON_AND_ORGANIZATION_ROLE('classification_officer') ;
#34=PERSON_AND_ORGANIZATION_ROLE('design_supplier') ;
#36=PERSON_AND_ORGANIZATION_ROLE('creator') ;
#38=PERSON_AND_ORGANIZATION_ROLE('design_owner') ;
#39=CC_DESIGN_SECURITY_CLASSIFICATION(#16,(#6)) ;
#184=CIRCLE('generated circle',#183,1.) ;
#200=CIRCLE('generated circle',#199,1.) ;
#219=CIRCLE('generated circle',#218,1.) ;
#224=CIRCLE('generated circle',#223,1.) ;
#241=CIRCLE('generated circle',#240,1.) ;
#257=CIRCLE('generated circle',#256,1.) ;
#276=CIRCLE('generated circle',#275,1.) ;
#281=CIRCLE('generated circle',#280,1.) ;
#298=CIRCLE('generated circle',#297,1.) ;
#314=CIRCLE('generated circle',#313,1.) ;
#333=CIRCLE('generated circle',#332,1.) ;
#338=CIRCLE('generated circle',#337,1.) ;
#355=CIRCLE('generated circle',#354,1.) ;
#371=CIRCLE('generated circle',#370,1.) ;
#390=CIRCLE('generated circle',#389,1.) ;
#395=CIRCLE('generated circle',#394,1.) ;
#462=SHAPE_REPRESENTATION_RELATIONSHIP(' ',' ',#49,#461) ;
#180=CYLINDRICAL_SURFACE('generated cylinder',#179,1.) ;
#237=CYLINDRICAL_SURFACE('generated cylinder',#236,1.) ;
#294=CYLINDRICAL_SURFACE('generated cylinder',#293,1.) ;
#351=CYLINDRICAL_SURFACE('generated cylinder',#350,1.) ;
#3=DESIGN_CONTEXT(' ',#1,'design') ;
#65=EDGE_CURVE('',#62,#64,#60,.T.) ;
#72=EDGE_CURVE('',#62,#71,#69,.F.) ;
#79=EDGE_CURVE('',#71,#78,#76,.T.) ;
#84=EDGE_CURVE('',#64,#78,#83,.F.) ;
#103=EDGE_CURVE('',#71,#102,#100,.F.) ;
#110=EDGE_CURVE('',#102,#109,#107,.T.) ;
#115=EDGE_CURVE('',#78,#109,#114,.F.) ;
#134=EDGE_CURVE('',#102,#133,#131,.F.) ;
#141=EDGE_CURVE('',#133,#140,#138,.T.) ;
#146=EDGE_CURVE('',#109,#140,#145,.F.) ;
#163=EDGE_CURVE('',#133,#62,#162,.F.) ;
#168=EDGE_CURVE('',#140,#64,#167,.F.) ;
#189=EDGE_CURVE('',#186,#188,#184,.T.) ;
#196=EDGE_CURVE('',#195,#188,#193,.T.) ;
#203=EDGE_CURVE('',#202,#195,#200,.T.) ;
#208=EDGE_CURVE('',#202,#186,#207,.T.) ;
#220=EDGE_CURVE('',#188,#186,#219,.T.) ;
#225=EDGE_CURVE('',#195,#202,#224,.T.) ;
#246=EDGE_CURVE('',#243,#245,#241,.T.) ;
#253=EDGE_CURVE('',#252,#245,#250,.T.) ;
#260=EDGE_CURVE('',#259,#252,#257,.T.) ;
#265=EDGE_CURVE('',#259,#243,#264,.T.) ;
#277=EDGE_CURVE('',#245,#243,#276,.T.) ;
#282=EDGE_CURVE('',#252,#259,#281,.T.) ;
#303=EDGE_CURVE('',#300,#302,#298,.T.) ;
#310=EDGE_CURVE('',#309,#302,#307,.T.) ;
#317=EDGE_CURVE('',#316,#309,#314,.T.) ;
#322=EDGE_CURVE('',#316,#300,#321,.T.) ;
#334=EDGE_CURVE('',#302,#300,#333,.T.) ;
#339=EDGE_CURVE('',#309,#316,#338,.T.) ;
#360=EDGE_CURVE('',#357,#359,#355,.T.) ;
#367=EDGE_CURVE('',#366,#359,#364,.T.) ;
#374=EDGE_CURVE('',#373,#366,#371,.T.) ;
#379=EDGE_CURVE('',#373,#357,#378,.T.) ;
#391=EDGE_CURVE('',#359,#357,#390,.T.) ;
#396=EDGE_CURVE('',#366,#373,#395,.T.) ;
#85=EDGE_LOOP('',(#86,#87,#88,#89)) ;
#116=EDGE_LOOP('',(#117,#118,#119,#120)) ;
#147=EDGE_LOOP('',(#148,#149,#150,#151)) ;
#169=EDGE_LOOP('',(#170,#171,#172,#173)) ;
#209=EDGE_LOOP('',(#210,#211,#212,#213)) ;
#226=EDGE_LOOP('',(#227,#228,#229,#230)) ;
#266=EDGE_LOOP('',(#267,#268,#269,#270)) ;
#283=EDGE_LOOP('',(#284,#285,#286,#287)) ;
#323=EDGE_LOOP('',(#324,#325,#326,#327)) ;
#340=EDGE_LOOP('',(#341,#342,#343,#344)) ;
#380=EDGE_LOOP('',(#381,#382,#383,#384)) ;
#397=EDGE_LOOP('',(#398,#399,#400,#401)) ;
#409=EDGE_LOOP('',(#410,#411,#412,#413)) ;
#415=EDGE_LOOP('',(#416,#417)) ;
#419=EDGE_LOOP('',(#420,#421)) ;
#423=EDGE_LOOP('',(#424,#425)) ;
#427=EDGE_LOOP('',(#428,#429)) ;
#437=EDGE_LOOP('',(#438,#439,#440,#441)) ;
#443=EDGE_LOOP('',(#444,#445)) ;
#447=EDGE_LOOP('',(#448,#449)) ;
#451=EDGE_LOOP('',(#452,#453)) ;
#455=EDGE_LOOP('',(#456,#457)) ;
#90=FACE_OUTER_BOUND('',#85,.T.) ;
#121=FACE_OUTER_BOUND('',#116,.T.) ;
#152=FACE_OUTER_BOUND('',#147,.T.) ;
#174=FACE_OUTER_BOUND('',#169,.T.) ;
#214=FACE_OUTER_BOUND('',#209,.T.) ;
#231=FACE_OUTER_BOUND('',#226,.T.) ;
#271=FACE_OUTER_BOUND('',#266,.T.) ;
#288=FACE_OUTER_BOUND('',#283,.T.) ;
#328=FACE_OUTER_BOUND('',#323,.T.) ;
#345=FACE_OUTER_BOUND('',#340,.T.) ;
#385=FACE_OUTER_BOUND('',#380,.T.) ;
#402=FACE_OUTER_BOUND('',#397,.T.) ;
#414=FACE_OUTER_BOUND('',#409,.T.) ;
#442=FACE_OUTER_BOUND('',#437,.T.) ;
#45=UNCERTAINTY_MEASURE_WITH_UNIT(LENGTH_MEASURE(0.005),#41,'distance_accuracy_value','CONFUSED CURVE UNCERTAINTY') ;
#60=LINE('Line',#57,#59) ;
#69=LINE('Line',#66,#68) ;
#76=LINE('Line',#73,#75) ;
#83=LINE('Line',#80,#82) ;
#100=LINE('Line',#97,#99) ;
#107=LINE('Line',#104,#106) ;
#114=LINE('Line',#111,#113) ;
#131=LINE('Line',#128,#130) ;
#138=LINE('Line',#135,#137) ;
#145=LINE('Line',#142,#144) ;
#162=LINE('Line',#159,#161) ;
#167=LINE('Line',#164,#166) ;
#193=LINE('Line',#190,#192) ;
#207=LINE('Line',#204,#206) ;
#250=LINE('Line',#247,#249) ;
#264=LINE('Line',#261,#263) ;
#307=LINE('Line',#304,#306) ;
#321=LINE('Line',#318,#320) ;
#364=LINE('Line',#361,#363) ;
#378=LINE('Line',#375,#377) ;
#2=MECHANICAL_CONTEXT(' ',#1,'mechanical') ;
#24=PERSONAL_ADDRESS(' ',' ',' ',' ',' ',' ',' ',' ',' ',' ',' ',' ',(#22),' ') ;
#56=PLANE('',#55) ;
#96=PLANE('',#95) ;
#127=PLANE('',#126) ;
#158=PLANE('',#157) ;
#408=PLANE('',#407) ;
#436=PLANE('',#435) ;
#43=PLANE_ANGLE_MEASURE_WITH_UNIT(PLANE_ANGLE_MEASURE(0.0174532925199),#42) ;
#7=PRODUCT_CATEGORY('part',$) ;
#9=PRODUCT_CATEGORY_RELATIONSHIP(' ',' ',#7,#8) ;
#6=PRODUCT_DEFINITION_FORMATION_WITH_SPECIFIED_SOURCE('',' ',#5,.NOT_KNOWN.) ;
#8=PRODUCT_RELATED_PRODUCT_CATEGORY('detail',$,(#5)) ;
#50=SHAPE_DEFINITION_REPRESENTATION(#40,#49) ;
#62=VERTEX_POINT('',#61) ;
#64=VERTEX_POINT('',#63) ;
#71=VERTEX_POINT('',#70) ;
#78=VERTEX_POINT('',#77) ;
#102=VERTEX_POINT('',#101) ;
#109=VERTEX_POINT('',#108) ;
#133=VERTEX_POINT('',#132) ;
#140=VERTEX_POINT('',#139) ;
#186=VERTEX_POINT('',#185) ;
#188=VERTEX_POINT('',#187) ;
#195=VERTEX_POINT('',#194) ;
#202=VERTEX_POINT('',#201) ;
#243=VERTEX_POINT('',#242) ;
#245=VERTEX_POINT('',#244) ;
#252=VERTEX_POINT('',#251) ;
#259=VERTEX_POINT('',#258) ;
#300=VERTEX_POINT('',#299) ;
#302=VERTEX_POINT('',#301) ;
#309=VERTEX_POINT('',#308) ;
#316=VERTEX_POINT('',#315) ;
#357=VERTEX_POINT('',#356) ;
#359=VERTEX_POINT('',#358) ;
#366=VERTEX_POINT('',#365) ;
#373=VERTEX_POINT('',#372) ;
#41=(LENGTH_UNIT()NAMED_UNIT(*)SI_UNIT(.MILLI.,.METRE.)) ;
#42=(NAMED_UNIT(*)PLANE_ANGLE_UNIT()SI_UNIT($,.RADIAN.)) ;
#44=(NAMED_UNIT(*)SI_UNIT($,.STERADIAN.)SOLID_ANGLE_UNIT()) ;
#46=(GEOMETRIC_REPRESENTATION_CONTEXT(3)GLOBAL_UNCERTAINTY_ASSIGNED_CONTEXT((#45))GLOBAL_UNIT_ASSIGNED_CONTEXT((#41,#42,#44))REPRESENTATION_CONTEXT(' ',' ')) ;
ENDSEC;
END-ISO-10303-21;
