ISO-10303-21;
HEADER;
FILE_DESCRIPTION(('CATIA V5 STEP Exchange'),'2;1');

FILE_NAME('C:\\Users\\30628\\Desktop\\\X2\56FE4F20659C6491\X0\\\Part1.stp','2026-09-09T05:28:25+00:00',('none'),('none'),'CATIA Version 5 Release 21 GA (IN-10)','CATIA V5 STEP AP203','none');

FILE_SCHEMA(('CONFIG_CONTROL_DESIGN'));

ENDSEC;
/* file written by CATIA V5R21 */
DATA;
#5=PRODUCT('Part1','','',(#2)) ;
#1=APPLICATION_CONTEXT('configuration controlled 3D design of mechanical parts and assemblies') ;
#14=PRODUCT_DEFINITION('',' ',#6,#3) ;
#16=SECURITY_CLASSIFICATION(' ',' ',#15) ;
#15=SECURITY_CLASSIFICATION_LEVEL('unclassified') ;
#47=CARTESIAN_POINT(' ',(0.,0.,0.)) ;
#52=CARTESIAN_POINT('Axis2P3D Location',(17.5,10.6666666667,3.)) ;
#57=CARTESIAN_POINT('Line Origine',(-14.5,-2.66666666667,-7.)) ;
#61=CARTESIAN_POINT('Vertex',(-14.5,6.66666666667,0.)) ;
#63=CARTESIAN_POINT('Vertex',(-14.5,-12.,-14.)) ;
#66=CARTESIAN_POINT('Line Origine',(-16.,-12.,-14.)) ;
#70=CARTESIAN_POINT('Vertex',(-17.5,-12.,-14.)) ;
#73=CARTESIAN_POINT('Line Origine',(-17.5,-2.66666666667,-7.)) ;
#77=CARTESIAN_POINT('Vertex',(-17.5,6.66666666667,0.)) ;
#80=CARTESIAN_POINT('Line Origine',(-16.,6.66666666667,-2.17603712827E-014)) ;
#92=CARTESIAN_POINT('Axis2P3D Location',(-14.5,0.,0.)) ;
#97=CARTESIAN_POINT('Line Origine',(-14.5,-2.66666666667,-1.59872115546E-014)) ;
#101=CARTESIAN_POINT('Vertex',(-14.5,-12.,0.)) ;
#104=CARTESIAN_POINT('Line Origine',(-14.5,-12.,-7.)) ;
#115=CARTESIAN_POINT('Axis2P3D Location',(10.5,10.,0.)) ;
#120=CARTESIAN_POINT('Line Origine',(10.5,5.,3.)) ;
#124=CARTESIAN_POINT('Vertex',(10.5,-3.67381906147E-016,3.)) ;
#126=CARTESIAN_POINT('Vertex',(10.5,10.,3.)) ;
#129=CARTESIAN_POINT('Line Origine',(10.5,10.,1.5)) ;
#133=CARTESIAN_POINT('Vertex',(10.5,10.,0.)) ;
#136=CARTESIAN_POINT('Line Origine',(10.5,5.,0.)) ;
#140=CARTESIAN_POINT('Vertex',(10.5,-3.67381906147E-016,0.)) ;
#143=CARTESIAN_POINT('Line Origine',(10.5,0.,1.5)) ;
#155=CARTESIAN_POINT('Axis2P3D Location',(0.,0.,3.)) ;
#160=CARTESIAN_POINT('Line Origine',(-3.5527136788E-015,15.,3.)) ;
#164=CARTESIAN_POINT('Vertex',(17.5,15.,3.)) ;
#166=CARTESIAN_POINT('Vertex',(-17.5,15.,3.)) ;
#169=CARTESIAN_POINT('Line Origine',(-17.5,3.5527136788E-015,3.)) ;
#173=CARTESIAN_POINT('Vertex',(-17.5,-15.,3.)) ;
#176=CARTESIAN_POINT('Line Origine',(3.5527136788E-015,-15.,3.)) ;
#180=CARTESIAN_POINT('Vertex',(17.5,-15.,3.)) ;
#183=CARTESIAN_POINT('Line Origine',(17.5,3.5527136788E-015,3.)) ;
#194=CARTESIAN_POINT('Axis2P3D Location',(9.,10.,3.)) ;
#198=CARTESIAN_POINT('Vertex',(7.5,10.,3.)) ;
#201=CARTESIAN_POINT('Axis2P3D Location',(9.,0.,3.)) ;
#205=CARTESIAN_POINT('Vertex',(7.5,0.,3.)) ;
#208=CARTESIAN_POINT('Line Origine',(7.5,5.,3.)) ;
#219=CARTESIAN_POINT('Line Origine',(-10.5,5.,3.)) ;
#223=CARTESIAN_POINT('Vertex',(-10.5,10.,3.)) ;
#225=CARTESIAN_POINT('Vertex',(-10.5,0.,3.)) ;
#228=CARTESIAN_POINT('Axis2P3D Location',(-9.,10.,3.)) ;
#232=CARTESIAN_POINT('Vertex',(-7.5,10.,3.)) ;
#235=CARTESIAN_POINT('Line Origine',(-7.5,5.,3.)) ;
#239=CARTESIAN_POINT('Vertex',(-7.5,-3.67381906147E-016,3.)) ;
#242=CARTESIAN_POINT('Axis2P3D Location',(-9.,0.,3.)) ;
#254=CARTESIAN_POINT('Axis2P3D Location',(9.,10.,1.5)) ;
#259=CARTESIAN_POINT('Line Origine',(7.5,10.,1.5)) ;
#263=CARTESIAN_POINT('Vertex',(7.5,10.,0.)) ;
#266=CARTESIAN_POINT('Axis2P3D Location',(9.,10.,0.)) ;
#278=CARTESIAN_POINT('Axis2P3D Location',(0.,0.,0.)) ;
#283=CARTESIAN_POINT('Line Origine',(-17.5,10.8333333333,0.)) ;
#287=CARTESIAN_POINT('Vertex',(-17.5,15.,0.)) ;
#290=CARTESIAN_POINT('Line Origine',(-3.5527136788E-015,15.,0.)) ;
#294=CARTESIAN_POINT('Vertex',(17.5,15.,0.)) ;
#297=CARTESIAN_POINT('Line Origine',(17.5,10.8333333333,0.)) ;
#301=CARTESIAN_POINT('Vertex',(17.5,6.66666666667,-1.7763568394E-014)) ;
#304=CARTESIAN_POINT('Line Origine',(16.,6.66666666667,0.)) ;
#308=CARTESIAN_POINT('Vertex',(14.5,6.66666666667,-1.7763568394E-014)) ;
#311=CARTESIAN_POINT('Line Origine',(14.5,-2.66666666667,0.)) ;
#315=CARTESIAN_POINT('Vertex',(14.5,-12.,0.)) ;
#318=CARTESIAN_POINT('Line Origine',(7.1054273576E-015,-12.,0.)) ;
#333=CARTESIAN_POINT('Line Origine',(7.5,5.,0.)) ;
#337=CARTESIAN_POINT('Vertex',(7.5,0.,0.)) ;
#340=CARTESIAN_POINT('Axis2P3D Location',(9.,0.,0.)) ;
#351=CARTESIAN_POINT('Line Origine',(-10.5,5.,0.)) ;
#355=CARTESIAN_POINT('Vertex',(-10.5,10.,0.)) ;
#357=CARTESIAN_POINT('Vertex',(-10.5,0.,0.)) ;
#360=CARTESIAN_POINT('Axis2P3D Location',(-9.,0.,0.)) ;
#364=CARTESIAN_POINT('Vertex',(-7.5,-3.67381906147E-016,0.)) ;
#367=CARTESIAN_POINT('Line Origine',(-7.5,5.,0.)) ;
#371=CARTESIAN_POINT('Vertex',(-7.5,10.,0.)) ;
#374=CARTESIAN_POINT('Axis2P3D Location',(-9.,10.,0.)) ;
#386=CARTESIAN_POINT('Axis2P3D Location',(9.,0.,1.5)) ;
#391=CARTESIAN_POINT('Line Origine',(7.5,1.83690953073E-016,1.5)) ;
#403=CARTESIAN_POINT('Axis2P3D Location',(-17.5,15.,0.)) ;
#408=CARTESIAN_POINT('Line Origine',(17.5,15.,1.5)) ;
#413=CARTESIAN_POINT('Line Origine',(-17.5,15.,1.5)) ;
#425=CARTESIAN_POINT('Axis2P3D Location',(17.5,-15.,0.)) ;
#430=CARTESIAN_POINT('Line Origine',(-17.5,-15.,-7.)) ;
#434=CARTESIAN_POINT('Vertex',(-17.5,-15.,-17.)) ;
#437=CARTESIAN_POINT('Line Origine',(0.,-15.,-17.)) ;
#441=CARTESIAN_POINT('Vertex',(17.5,-15.,-17.)) ;
#444=CARTESIAN_POINT('Line Origine',(17.5,-15.,-7.)) ;
#456=CARTESIAN_POINT('Axis2P3D Location',(17.5,15.,0.)) ;
#461=CARTESIAN_POINT('Line Origine',(17.5,-13.5,-17.)) ;
#465=CARTESIAN_POINT('Vertex',(17.5,-12.,-17.)) ;
#468=CARTESIAN_POINT('Line Origine',(17.5,-12.,-15.5)) ;
#472=CARTESIAN_POINT('Vertex',(17.5,-12.,-14.)) ;
#475=CARTESIAN_POINT('Line Origine',(17.5,-2.66666666667,-7.)) ;
#490=CARTESIAN_POINT('Axis2P3D Location',(7.5,10.,0.)) ;
#502=CARTESIAN_POINT('Axis2P3D Location',(-10.5,10.,0.)) ;
#507=CARTESIAN_POINT('Line Origine',(-10.5,0.,1.5)) ;
#512=CARTESIAN_POINT('Line Origine',(-10.5,10.,1.5)) ;
#524=CARTESIAN_POINT('Axis2P3D Location',(-9.,10.,1.5)) ;
#529=CARTESIAN_POINT('Line Origine',(-7.5,10.,1.5)) ;
#541=CARTESIAN_POINT('Axis2P3D Location',(-7.5,10.,0.)) ;
#546=CARTESIAN_POINT('Line Origine',(-7.5,0.,1.5)) ;
#558=CARTESIAN_POINT('Axis2P3D Location',(-9.,0.,1.5)) ;
#570=CARTESIAN_POINT('Axis2P3D Location',(0.,-12.,0.)) ;
#575=CARTESIAN_POINT('Line Origine',(14.5,-12.,-7.)) ;
#579=CARTESIAN_POINT('Vertex',(14.5,-12.,-14.)) ;
#582=CARTESIAN_POINT('Line Origine',(16.,-12.,-14.)) ;
#587=CARTESIAN_POINT('Line Origine',(0.,-12.,-17.)) ;
#591=CARTESIAN_POINT('Vertex',(-17.5,-12.,-17.)) ;
#594=CARTESIAN_POINT('Line Origine',(-17.5,-12.,-15.5)) ;
#610=CARTESIAN_POINT('Axis2P3D Location',(14.5,0.,0.)) ;
#615=CARTESIAN_POINT('Line Origine',(14.5,-2.66666666667,-7.)) ;
#633=CARTESIAN_POINT('Axis2P3D Location',(17.5,-15.,-17.)) ;
#638=CARTESIAN_POINT('Line Origine',(-17.5,-13.5,-17.)) ;
#650=CARTESIAN_POINT('Axis2P3D Location',(-17.5,-15.,0.)) ;
#53=DIRECTION('Axis2P3D Direction',(0.,0.6,-0.8)) ;
#54=DIRECTION('Axis2P3D XDirection',(-0.,-0.8,-0.6)) ;
#58=DIRECTION('Vector Direction',(0.,0.8,0.6)) ;
#67=DIRECTION('Vector Direction',(1.,0.,0.)) ;
#74=DIRECTION('Vector Direction',(0.,0.8,0.6)) ;
#81=DIRECTION('Vector Direction',(1.,0.,0.)) ;
#93=DIRECTION('Axis2P3D Direction',(-1.,-0.,0.)) ;
#94=DIRECTION('Axis2P3D XDirection',(0.,-1.,-0.)) ;
#98=DIRECTION('Vector Direction',(0.,-1.,0.)) ;
#105=DIRECTION('Vector Direction',(0.,0.,1.)) ;
#116=DIRECTION('Axis2P3D Direction',(-1.,0.,0.)) ;
#117=DIRECTION('Axis2P3D XDirection',(0.,-1.,0.)) ;
#121=DIRECTION('Vector Direction',(0.,-1.,0.)) ;
#130=DIRECTION('Vector Direction',(0.,0.,1.)) ;
#137=DIRECTION('Vector Direction',(0.,-1.,0.)) ;
#144=DIRECTION('Vector Direction',(0.,0.,1.)) ;
#156=DIRECTION('Axis2P3D Direction',(0.,0.,1.)) ;
#157=DIRECTION('Axis2P3D XDirection',(1.,0.,0.)) ;
#161=DIRECTION('Vector Direction',(1.,0.,0.)) ;
#170=DIRECTION('Vector Direction',(0.,1.,0.)) ;
#177=DIRECTION('Vector Direction',(1.,0.,0.)) ;
#184=DIRECTION('Vector Direction',(0.,-1.,0.)) ;
#195=DIRECTION('Axis2P3D Direction',(0.,0.,1.)) ;
#202=DIRECTION('Axis2P3D Direction',(0.,0.,1.)) ;
#209=DIRECTION('Vector Direction',(0.,-1.,0.)) ;
#220=DIRECTION('Vector Direction',(0.,-1.,0.)) ;
#229=DIRECTION('Axis2P3D Direction',(0.,0.,1.)) ;
#236=DIRECTION('Vector Direction',(0.,-1.,0.)) ;
#243=DIRECTION('Axis2P3D Direction',(0.,0.,1.)) ;
#255=DIRECTION('Axis2P3D Direction',(0.,0.,1.)) ;
#256=DIRECTION('Axis2P3D XDirection',(1.,0.,0.)) ;
#260=DIRECTION('Vector Direction',(0.,0.,1.)) ;
#267=DIRECTION('Axis2P3D Direction',(0.,0.,1.)) ;
#279=DIRECTION('Axis2P3D Direction',(0.,0.,1.)) ;
#280=DIRECTION('Axis2P3D XDirection',(1.,0.,0.)) ;
#284=DIRECTION('Vector Direction',(0.,1.,0.)) ;
#291=DIRECTION('Vector Direction',(1.,0.,0.)) ;
#298=DIRECTION('Vector Direction',(0.,-1.,0.)) ;
#305=DIRECTION('Vector Direction',(-1.,4.73695157173E-015,0.)) ;
#312=DIRECTION('Vector Direction',(0.,1.,0.)) ;
#319=DIRECTION('Vector Direction',(1.,0.,0.)) ;
#334=DIRECTION('Vector Direction',(0.,-1.,0.)) ;
#341=DIRECTION('Axis2P3D Direction',(0.,0.,1.)) ;
#352=DIRECTION('Vector Direction',(0.,-1.,0.)) ;
#361=DIRECTION('Axis2P3D Direction',(0.,0.,1.)) ;
#368=DIRECTION('Vector Direction',(0.,-1.,0.)) ;
#375=DIRECTION('Axis2P3D Direction',(0.,0.,1.)) ;
#387=DIRECTION('Axis2P3D Direction',(0.,0.,1.)) ;
#388=DIRECTION('Axis2P3D XDirection',(-1.,1.22460635382E-016,0.)) ;
#392=DIRECTION('Vector Direction',(0.,0.,1.)) ;
#404=DIRECTION('Axis2P3D Direction',(0.,-1.,0.)) ;
#405=DIRECTION('Axis2P3D XDirection',(1.,0.,0.)) ;
#409=DIRECTION('Vector Direction',(0.,0.,1.)) ;
#414=DIRECTION('Vector Direction',(0.,0.,1.)) ;
#426=DIRECTION('Axis2P3D Direction',(0.,1.,-0.)) ;
#427=DIRECTION('Axis2P3D XDirection',(-1.,0.,0.)) ;
#431=DIRECTION('Vector Direction',(0.,0.,-1.)) ;
#438=DIRECTION('Vector Direction',(-1.,0.,0.)) ;
#445=DIRECTION('Vector Direction',(0.,0.,-1.)) ;
#457=DIRECTION('Axis2P3D Direction',(-1.,0.,0.)) ;
#458=DIRECTION('Axis2P3D XDirection',(0.,-1.,0.)) ;
#462=DIRECTION('Vector Direction',(0.,1.,0.)) ;
#469=DIRECTION('Vector Direction',(0.,0.,-1.)) ;
#476=DIRECTION('Vector Direction',(0.,-0.8,-0.6)) ;
#491=DIRECTION('Axis2P3D Direction',(-1.,0.,0.)) ;
#492=DIRECTION('Axis2P3D XDirection',(0.,-1.,0.)) ;
#503=DIRECTION('Axis2P3D Direction',(-1.,0.,0.)) ;
#504=DIRECTION('Axis2P3D XDirection',(0.,-1.,0.)) ;
#508=DIRECTION('Vector Direction',(0.,0.,1.)) ;
#513=DIRECTION('Vector Direction',(0.,0.,1.)) ;
#525=DIRECTION('Axis2P3D Direction',(0.,0.,1.)) ;
#526=DIRECTION('Axis2P3D XDirection',(1.,0.,0.)) ;
#530=DIRECTION('Vector Direction',(0.,0.,1.)) ;
#542=DIRECTION('Axis2P3D Direction',(-1.,0.,0.)) ;
#543=DIRECTION('Axis2P3D XDirection',(0.,-1.,0.)) ;
#547=DIRECTION('Vector Direction',(0.,0.,1.)) ;
#559=DIRECTION('Axis2P3D Direction',(0.,0.,1.)) ;
#560=DIRECTION('Axis2P3D XDirection',(-1.,1.22460635382E-016,0.)) ;
#571=DIRECTION('Axis2P3D Direction',(-0.,-1.,0.)) ;
#572=DIRECTION('Axis2P3D XDirection',(1.,-0.,0.)) ;
#576=DIRECTION('Vector Direction',(0.,0.,-1.)) ;
#583=DIRECTION('Vector Direction',(-1.,0.,2.36847578587E-015)) ;
#588=DIRECTION('Vector Direction',(-1.,0.,0.)) ;
#595=DIRECTION('Vector Direction',(0.,0.,-1.)) ;
#611=DIRECTION('Axis2P3D Direction',(1.,-0.,0.)) ;
#612=DIRECTION('Axis2P3D XDirection',(0.,1.,-0.)) ;
#616=DIRECTION('Vector Direction',(0.,-0.8,-0.6)) ;
#634=DIRECTION('Axis2P3D Direction',(0.,0.,-1.)) ;
#635=DIRECTION('Axis2P3D XDirection',(-1.,0.,0.)) ;
#639=DIRECTION('Vector Direction',(0.,1.,0.)) ;
#651=DIRECTION('Axis2P3D Direction',(1.,0.,0.)) ;
#652=DIRECTION('Axis2P3D XDirection',(0.,1.,0.)) ;
#48=AXIS2_PLACEMENT_3D(' ',#47,$,$) ;
#55=AXIS2_PLACEMENT_3D('Plane Axis2P3D',#52,#53,#54) ;
#95=AXIS2_PLACEMENT_3D('Plane Axis2P3D',#92,#93,#94) ;
#118=AXIS2_PLACEMENT_3D('Plane Axis2P3D',#115,#116,#117) ;
#158=AXIS2_PLACEMENT_3D('Plane Axis2P3D',#155,#156,#157) ;
#196=AXIS2_PLACEMENT_3D('Circle Axis2P3D',#194,#195,$) ;
#203=AXIS2_PLACEMENT_3D('Circle Axis2P3D',#201,#202,$) ;
#230=AXIS2_PLACEMENT_3D('Circle Axis2P3D',#228,#229,$) ;
#244=AXIS2_PLACEMENT_3D('Circle Axis2P3D',#242,#243,$) ;
#257=AXIS2_PLACEMENT_3D('Cylinder Axis2P3D',#254,#255,#256) ;
#268=AXIS2_PLACEMENT_3D('Circle Axis2P3D',#266,#267,$) ;
#281=AXIS2_PLACEMENT_3D('Plane Axis2P3D',#278,#279,#280) ;
#342=AXIS2_PLACEMENT_3D('Circle Axis2P3D',#340,#341,$) ;
#362=AXIS2_PLACEMENT_3D('Circle Axis2P3D',#360,#361,$) ;
#376=AXIS2_PLACEMENT_3D('Circle Axis2P3D',#374,#375,$) ;
#389=AXIS2_PLACEMENT_3D('Cylinder Axis2P3D',#386,#387,#388) ;
#406=AXIS2_PLACEMENT_3D('Plane Axis2P3D',#403,#404,#405) ;
#428=AXIS2_PLACEMENT_3D('Plane Axis2P3D',#425,#426,#427) ;
#459=AXIS2_PLACEMENT_3D('Plane Axis2P3D',#456,#457,#458) ;
#493=AXIS2_PLACEMENT_3D('Plane Axis2P3D',#490,#491,#492) ;
#505=AXIS2_PLACEMENT_3D('Plane Axis2P3D',#502,#503,#504) ;
#527=AXIS2_PLACEMENT_3D('Cylinder Axis2P3D',#524,#525,#526) ;
#544=AXIS2_PLACEMENT_3D('Plane Axis2P3D',#541,#542,#543) ;
#561=AXIS2_PLACEMENT_3D('Cylinder Axis2P3D',#558,#559,#560) ;
#573=AXIS2_PLACEMENT_3D('Plane Axis2P3D',#570,#571,#572) ;
#613=AXIS2_PLACEMENT_3D('Plane Axis2P3D',#610,#611,#612) ;
#636=AXIS2_PLACEMENT_3D('Plane Axis2P3D',#633,#634,#635) ;
#653=AXIS2_PLACEMENT_3D('Plane Axis2P3D',#650,#651,#652) ;
#40=PRODUCT_DEFINITION_SHAPE(' ',' ',#14) ;
#31=APPROVAL_PERSON_ORGANIZATION(#25,#21,#19) ;
#25=PERSON_AND_ORGANIZATION(#22,#23) ;
#22=PERSON(' ',' ',' ',$,$,$) ;
#23=ORGANIZATION(' ',' ',' ') ;
#21=APPROVAL(#20,' ') ;
#20=APPROVAL_STATUS('not_yet_approved') ;
#19=APPROVAL_ROLE('APPROVER') ;
#13=DATE_AND_TIME(#11,#12) ;
#12=LOCAL_TIME(13,28,21.,#10) ;
#10=COORDINATED_UNIVERSAL_TIME_OFFSET(0,0,.AHEAD.) ;
#86=ORIENTED_EDGE('',*,*,#65,.T.) ;
#87=ORIENTED_EDGE('',*,*,#72,.F.) ;
#88=ORIENTED_EDGE('',*,*,#79,.F.) ;
#89=ORIENTED_EDGE('',*,*,#84,.T.) ;
#110=ORIENTED_EDGE('',*,*,#65,.F.) ;
#111=ORIENTED_EDGE('',*,*,#103,.F.) ;
#112=ORIENTED_EDGE('',*,*,#108,.F.) ;
#149=ORIENTED_EDGE('',*,*,#128,.T.) ;
#150=ORIENTED_EDGE('',*,*,#135,.F.) ;
#151=ORIENTED_EDGE('',*,*,#142,.F.) ;
#152=ORIENTED_EDGE('',*,*,#147,.T.) ;
#189=ORIENTED_EDGE('',*,*,#168,.T.) ;
#190=ORIENTED_EDGE('',*,*,#175,.T.) ;
#191=ORIENTED_EDGE('',*,*,#182,.F.) ;
#192=ORIENTED_EDGE('',*,*,#187,.T.) ;
#214=ORIENTED_EDGE('',*,*,#200,.F.) ;
#215=ORIENTED_EDGE('',*,*,#128,.F.) ;
#216=ORIENTED_EDGE('',*,*,#207,.F.) ;
#217=ORIENTED_EDGE('',*,*,#212,.F.) ;
#248=ORIENTED_EDGE('',*,*,#227,.F.) ;
#249=ORIENTED_EDGE('',*,*,#234,.F.) ;
#250=ORIENTED_EDGE('',*,*,#241,.F.) ;
#251=ORIENTED_EDGE('',*,*,#246,.F.) ;
#272=ORIENTED_EDGE('',*,*,#200,.T.) ;
#273=ORIENTED_EDGE('',*,*,#265,.F.) ;
#274=ORIENTED_EDGE('',*,*,#270,.F.) ;
#275=ORIENTED_EDGE('',*,*,#135,.T.) ;
#324=ORIENTED_EDGE('',*,*,#103,.T.) ;
#325=ORIENTED_EDGE('',*,*,#84,.F.) ;
#326=ORIENTED_EDGE('',*,*,#289,.F.) ;
#327=ORIENTED_EDGE('',*,*,#296,.F.) ;
#328=ORIENTED_EDGE('',*,*,#303,.F.) ;
#329=ORIENTED_EDGE('',*,*,#310,.T.) ;
#330=ORIENTED_EDGE('',*,*,#317,.F.) ;
#331=ORIENTED_EDGE('',*,*,#322,.F.) ;
#346=ORIENTED_EDGE('',*,*,#270,.T.) ;
#347=ORIENTED_EDGE('',*,*,#339,.T.) ;
#348=ORIENTED_EDGE('',*,*,#344,.T.) ;
#349=ORIENTED_EDGE('',*,*,#142,.T.) ;
#380=ORIENTED_EDGE('',*,*,#359,.T.) ;
#381=ORIENTED_EDGE('',*,*,#366,.T.) ;
#382=ORIENTED_EDGE('',*,*,#373,.T.) ;
#383=ORIENTED_EDGE('',*,*,#378,.T.) ;
#397=ORIENTED_EDGE('',*,*,#207,.T.) ;
#398=ORIENTED_EDGE('',*,*,#147,.F.) ;
#399=ORIENTED_EDGE('',*,*,#344,.F.) ;
#400=ORIENTED_EDGE('',*,*,#395,.T.) ;
#419=ORIENTED_EDGE('',*,*,#412,.F.) ;
#420=ORIENTED_EDGE('',*,*,#296,.T.) ;
#421=ORIENTED_EDGE('',*,*,#417,.T.) ;
#422=ORIENTED_EDGE('',*,*,#168,.F.) ;
#450=ORIENTED_EDGE('',*,*,#436,.T.) ;
#451=ORIENTED_EDGE('',*,*,#443,.T.) ;
#452=ORIENTED_EDGE('',*,*,#448,.T.) ;
#453=ORIENTED_EDGE('',*,*,#182,.T.) ;
#481=ORIENTED_EDGE('',*,*,#187,.F.) ;
#482=ORIENTED_EDGE('',*,*,#448,.F.) ;
#483=ORIENTED_EDGE('',*,*,#467,.T.) ;
#484=ORIENTED_EDGE('',*,*,#474,.T.) ;
#485=ORIENTED_EDGE('',*,*,#479,.T.) ;
#486=ORIENTED_EDGE('',*,*,#303,.T.) ;
#487=ORIENTED_EDGE('',*,*,#412,.T.) ;
#496=ORIENTED_EDGE('',*,*,#212,.T.) ;
#497=ORIENTED_EDGE('',*,*,#395,.F.) ;
#498=ORIENTED_EDGE('',*,*,#339,.F.) ;
#499=ORIENTED_EDGE('',*,*,#265,.T.) ;
#518=ORIENTED_EDGE('',*,*,#227,.T.) ;
#519=ORIENTED_EDGE('',*,*,#511,.F.) ;
#520=ORIENTED_EDGE('',*,*,#359,.F.) ;
#521=ORIENTED_EDGE('',*,*,#516,.T.) ;
#535=ORIENTED_EDGE('',*,*,#234,.T.) ;
#536=ORIENTED_EDGE('',*,*,#516,.F.) ;
#537=ORIENTED_EDGE('',*,*,#378,.F.) ;
#538=ORIENTED_EDGE('',*,*,#533,.T.) ;
#552=ORIENTED_EDGE('',*,*,#241,.T.) ;
#553=ORIENTED_EDGE('',*,*,#533,.F.) ;
#554=ORIENTED_EDGE('',*,*,#373,.F.) ;
#555=ORIENTED_EDGE('',*,*,#550,.T.) ;
#564=ORIENTED_EDGE('',*,*,#246,.T.) ;
#565=ORIENTED_EDGE('',*,*,#550,.F.) ;
#566=ORIENTED_EDGE('',*,*,#366,.F.) ;
#567=ORIENTED_EDGE('',*,*,#511,.T.) ;
#600=ORIENTED_EDGE('',*,*,#72,.T.) ;
#601=ORIENTED_EDGE('',*,*,#108,.T.) ;
#602=ORIENTED_EDGE('',*,*,#322,.T.) ;
#603=ORIENTED_EDGE('',*,*,#581,.T.) ;
#604=ORIENTED_EDGE('',*,*,#586,.F.) ;
#605=ORIENTED_EDGE('',*,*,#474,.F.) ;
#606=ORIENTED_EDGE('',*,*,#593,.F.) ;
#607=ORIENTED_EDGE('',*,*,#598,.F.) ;
#621=ORIENTED_EDGE('',*,*,#581,.F.) ;
#622=ORIENTED_EDGE('',*,*,#317,.T.) ;
#623=ORIENTED_EDGE('',*,*,#619,.F.) ;
#627=ORIENTED_EDGE('',*,*,#310,.F.) ;
#628=ORIENTED_EDGE('',*,*,#479,.F.) ;
#629=ORIENTED_EDGE('',*,*,#586,.T.) ;
#630=ORIENTED_EDGE('',*,*,#619,.T.) ;
#644=ORIENTED_EDGE('',*,*,#593,.T.) ;
#645=ORIENTED_EDGE('',*,*,#467,.F.) ;
#646=ORIENTED_EDGE('',*,*,#443,.F.) ;
#647=ORIENTED_EDGE('',*,*,#642,.T.) ;
#656=ORIENTED_EDGE('',*,*,#79,.T.) ;
#657=ORIENTED_EDGE('',*,*,#598,.T.) ;
#658=ORIENTED_EDGE('',*,*,#642,.F.) ;
#659=ORIENTED_EDGE('',*,*,#436,.F.) ;
#660=ORIENTED_EDGE('',*,*,#175,.F.) ;
#661=ORIENTED_EDGE('',*,*,#417,.F.) ;
#662=ORIENTED_EDGE('',*,*,#289,.T.) ;
#218=FACE_BOUND('',#213,.T.) ;
#252=FACE_BOUND('',#247,.T.) ;
#350=FACE_BOUND('',#345,.T.) ;
#384=FACE_BOUND('',#379,.T.) ;
#51=CLOSED_SHELL('Closed Shell',(#91,#114,#154,#253,#277,#385,#402,#424,#455,#489,#501,#523,#540,#557,#569,#609,#625,#632,#649,#664)) ;
#59=VECTOR('Line Direction',#58,1.) ;
#68=VECTOR('Line Direction',#67,1.) ;
#75=VECTOR('Line Direction',#74,1.) ;
#82=VECTOR('Line Direction',#81,1.) ;
#99=VECTOR('Line Direction',#98,1.) ;
#106=VECTOR('Line Direction',#105,1.) ;
#122=VECTOR('Line Direction',#121,1.) ;
#131=VECTOR('Line Direction',#130,1.) ;
#138=VECTOR('Line Direction',#137,1.) ;
#145=VECTOR('Line Direction',#144,1.) ;
#162=VECTOR('Line Direction',#161,1.) ;
#171=VECTOR('Line Direction',#170,1.) ;
#178=VECTOR('Line Direction',#177,1.) ;
#185=VECTOR('Line Direction',#184,1.) ;
#210=VECTOR('Line Direction',#209,1.) ;
#221=VECTOR('Line Direction',#220,1.) ;
#237=VECTOR('Line Direction',#236,1.) ;
#261=VECTOR('Line Direction',#260,1.) ;
#285=VECTOR('Line Direction',#284,1.) ;
#292=VECTOR('Line Direction',#291,1.) ;
#299=VECTOR('Line Direction',#298,1.) ;
#306=VECTOR('Line Direction',#305,1.) ;
#313=VECTOR('Line Direction',#312,1.) ;
#320=VECTOR('Line Direction',#319,1.) ;
#335=VECTOR('Line Direction',#334,1.) ;
#353=VECTOR('Line Direction',#352,1.) ;
#369=VECTOR('Line Direction',#368,1.) ;
#393=VECTOR('Line Direction',#392,1.) ;
#410=VECTOR('Line Direction',#409,1.) ;
#415=VECTOR('Line Direction',#414,1.) ;
#432=VECTOR('Line Direction',#431,1.) ;
#439=VECTOR('Line Direction',#438,1.) ;
#446=VECTOR('Line Direction',#445,1.) ;
#463=VECTOR('Line Direction',#462,1.) ;
#470=VECTOR('Line Direction',#469,1.) ;
#477=VECTOR('Line Direction',#476,1.) ;
#509=VECTOR('Line Direction',#508,1.) ;
#514=VECTOR('Line Direction',#513,1.) ;
#531=VECTOR('Line Direction',#530,1.) ;
#548=VECTOR('Line Direction',#547,1.) ;
#577=VECTOR('Line Direction',#576,1.) ;
#584=VECTOR('Line Direction',#583,1.) ;
#589=VECTOR('Line Direction',#588,1.) ;
#596=VECTOR('Line Direction',#595,1.) ;
#617=VECTOR('Line Direction',#616,1.) ;
#640=VECTOR('Line Direction',#639,1.) ;
#666=ADVANCED_BREP_SHAPE_REPRESENTATION('NONE',(#665),#46) ;
#49=SHAPE_REPRESENTATION(' ',(#48),#46) ;
#91=ADVANCED_FACE('\X2\96F64EF651E04F554F53\X0\',(#90),#56,.T.) ;
#114=ADVANCED_FACE('\X2\96F64EF651E04F554F53\X0\',(#113),#96,.F.) ;
#154=ADVANCED_FACE('\X2\96F64EF651E04F554F53\X0\',(#153),#119,.T.) ;
#253=ADVANCED_FACE('\X2\96F64EF651E04F554F53\X0\',(#193,#218,#252),#159,.T.) ;
#277=ADVANCED_FACE('\X2\96F64EF651E04F554F53\X0\',(#276),#258,.F.) ;
#385=ADVANCED_FACE('\X2\96F64EF651E04F554F53\X0\',(#332,#350,#384),#282,.F.) ;
#402=ADVANCED_FACE('\X2\96F64EF651E04F554F53\X0\',(#401),#390,.F.) ;
#424=ADVANCED_FACE('\X2\96F64EF651E04F554F53\X0\',(#423),#407,.F.) ;
#455=ADVANCED_FACE('\X2\96F64EF651E04F554F53\X0\',(#454),#429,.F.) ;
#489=ADVANCED_FACE('\X2\96F64EF651E04F554F53\X0\',(#488),#460,.F.) ;
#501=ADVANCED_FACE('\X2\96F64EF651E04F554F53\X0\',(#500),#494,.F.) ;
#523=ADVANCED_FACE('\X2\96F64EF651E04F554F53\X0\',(#522),#506,.F.) ;
#540=ADVANCED_FACE('\X2\96F64EF651E04F554F53\X0\',(#539),#528,.F.) ;
#557=ADVANCED_FACE('\X2\96F64EF651E04F554F53\X0\',(#556),#545,.T.) ;
#569=ADVANCED_FACE('\X2\96F64EF651E04F554F53\X0\',(#568),#562,.F.) ;
#609=ADVANCED_FACE('\X2\96F64EF651E04F554F53\X0\',(#608),#574,.F.) ;
#625=ADVANCED_FACE('\X2\96F64EF651E04F554F53\X0\',(#624),#614,.F.) ;
#632=ADVANCED_FACE('\X2\96F64EF651E04F554F53\X0\',(#631),#56,.T.) ;
#649=ADVANCED_FACE('\X2\96F64EF651E04F554F53\X0\',(#648),#637,.T.) ;
#664=ADVANCED_FACE('\X2\96F64EF651E04F554F53\X0\',(#663),#654,.F.) ;
#4=APPLICATION_PROTOCOL_DEFINITION('international standard','config_control_design',1994,#1) ;
#32=APPROVAL_DATE_TIME(#13,#21) ;
#665=MANIFOLD_SOLID_BREP('\X2\96F64EF651E04F554F53\X0\',#51) ;
#11=CALENDAR_DATE(2026,9,9) ;
#30=CC_DESIGN_APPROVAL(#21,(#16,#6,#14)) ;
#18=CC_DESIGN_DATE_AND_TIME_ASSIGNMENT(#13,#17,(#16)) ;
#29=CC_DESIGN_DATE_AND_TIME_ASSIGNMENT(#13,#28,(#14)) ;
#17=DATE_TIME_ROLE('classification_date') ;
#28=DATE_TIME_ROLE('creation_date') ;
#27=CC_DESIGN_PERSON_AND_ORGANIZATION_ASSIGNMENT(#25,#26,(#16)) ;
#33=CC_DESIGN_PERSON_AND_ORGANIZATION_ASSIGNMENT(#25,#34,(#6)) ;
#35=CC_DESIGN_PERSON_AND_ORGANIZATION_ASSIGNMENT(#25,#36,(#6,#14)) ;
#37=CC_DESIGN_PERSON_AND_ORGANIZATION_ASSIGNMENT(#25,#38,(#5)) ;
#26=PERSON_AND_ORGANIZATION_ROLE('classification_officer') ;
#34=PERSON_AND_ORGANIZATION_ROLE('design_supplier') ;
#36=PERSON_AND_ORGANIZATION_ROLE('creator') ;
#38=PERSON_AND_ORGANIZATION_ROLE('design_owner') ;
#39=CC_DESIGN_SECURITY_CLASSIFICATION(#16,(#6)) ;
#197=CIRCLE('generated circle',#196,1.5) ;
#204=CIRCLE('generated circle',#203,1.5) ;
#231=CIRCLE('generated circle',#230,1.5) ;
#245=CIRCLE('generated circle',#244,1.5) ;
#269=CIRCLE('generated circle',#268,1.5) ;
#343=CIRCLE('generated circle',#342,1.5) ;
#363=CIRCLE('generated circle',#362,1.5) ;
#377=CIRCLE('generated circle',#376,1.5) ;
#667=SHAPE_REPRESENTATION_RELATIONSHIP(' ',' ',#49,#666) ;
#258=CYLINDRICAL_SURFACE('generated cylinder',#257,1.5) ;
#390=CYLINDRICAL_SURFACE('generated cylinder',#389,1.5) ;
#528=CYLINDRICAL_SURFACE('generated cylinder',#527,1.5) ;
#562=CYLINDRICAL_SURFACE('generated cylinder',#561,1.5) ;
#3=DESIGN_CONTEXT(' ',#1,'design') ;
#65=EDGE_CURVE('',#62,#64,#60,.F.) ;
#72=EDGE_CURVE('',#71,#64,#69,.T.) ;
#79=EDGE_CURVE('',#78,#71,#76,.F.) ;
#84=EDGE_CURVE('',#78,#62,#83,.T.) ;
#103=EDGE_CURVE('',#102,#62,#100,.F.) ;
#108=EDGE_CURVE('',#64,#102,#107,.T.) ;
#128=EDGE_CURVE('',#125,#127,#123,.F.) ;
#135=EDGE_CURVE('',#134,#127,#132,.T.) ;
#142=EDGE_CURVE('',#141,#134,#139,.F.) ;
#147=EDGE_CURVE('',#141,#125,#146,.T.) ;
#168=EDGE_CURVE('',#165,#167,#163,.F.) ;
#175=EDGE_CURVE('',#167,#174,#172,.F.) ;
#182=EDGE_CURVE('',#181,#174,#179,.F.) ;
#187=EDGE_CURVE('',#181,#165,#186,.F.) ;
#200=EDGE_CURVE('',#127,#199,#197,.T.) ;
#207=EDGE_CURVE('',#206,#125,#204,.T.) ;
#212=EDGE_CURVE('',#199,#206,#211,.T.) ;
#227=EDGE_CURVE('',#224,#226,#222,.T.) ;
#234=EDGE_CURVE('',#233,#224,#231,.T.) ;
#241=EDGE_CURVE('',#240,#233,#238,.F.) ;
#246=EDGE_CURVE('',#226,#240,#245,.T.) ;
#265=EDGE_CURVE('',#264,#199,#262,.T.) ;
#270=EDGE_CURVE('',#134,#264,#269,.T.) ;
#289=EDGE_CURVE('',#288,#78,#286,.F.) ;
#296=EDGE_CURVE('',#295,#288,#293,.F.) ;
#303=EDGE_CURVE('',#302,#295,#300,.F.) ;
#310=EDGE_CURVE('',#302,#309,#307,.T.) ;
#317=EDGE_CURVE('',#316,#309,#314,.T.) ;
#322=EDGE_CURVE('',#102,#316,#321,.T.) ;
#339=EDGE_CURVE('',#264,#338,#336,.T.) ;
#344=EDGE_CURVE('',#338,#141,#343,.T.) ;
#359=EDGE_CURVE('',#356,#358,#354,.T.) ;
#366=EDGE_CURVE('',#358,#365,#363,.T.) ;
#373=EDGE_CURVE('',#365,#372,#370,.F.) ;
#378=EDGE_CURVE('',#372,#356,#377,.T.) ;
#395=EDGE_CURVE('',#338,#206,#394,.T.) ;
#412=EDGE_CURVE('',#295,#165,#411,.T.) ;
#417=EDGE_CURVE('',#288,#167,#416,.T.) ;
#436=EDGE_CURVE('',#174,#435,#433,.T.) ;
#443=EDGE_CURVE('',#435,#442,#440,.F.) ;
#448=EDGE_CURVE('',#442,#181,#447,.F.) ;
#467=EDGE_CURVE('',#442,#466,#464,.T.) ;
#474=EDGE_CURVE('',#466,#473,#471,.F.) ;
#479=EDGE_CURVE('',#473,#302,#478,.F.) ;
#511=EDGE_CURVE('',#358,#226,#510,.T.) ;
#516=EDGE_CURVE('',#356,#224,#515,.T.) ;
#533=EDGE_CURVE('',#372,#233,#532,.T.) ;
#550=EDGE_CURVE('',#365,#240,#549,.T.) ;
#581=EDGE_CURVE('',#316,#580,#578,.T.) ;
#586=EDGE_CURVE('',#473,#580,#585,.T.) ;
#593=EDGE_CURVE('',#592,#466,#590,.F.) ;
#598=EDGE_CURVE('',#71,#592,#597,.T.) ;
#619=EDGE_CURVE('',#580,#309,#618,.F.) ;
#642=EDGE_CURVE('',#435,#592,#641,.T.) ;
#85=EDGE_LOOP('',(#86,#87,#88,#89)) ;
#109=EDGE_LOOP('',(#110,#111,#112)) ;
#148=EDGE_LOOP('',(#149,#150,#151,#152)) ;
#188=EDGE_LOOP('',(#189,#190,#191,#192)) ;
#213=EDGE_LOOP('',(#214,#215,#216,#217)) ;
#247=EDGE_LOOP('',(#248,#249,#250,#251)) ;
#271=EDGE_LOOP('',(#272,#273,#274,#275)) ;
#323=EDGE_LOOP('',(#324,#325,#326,#327,#328,#329,#330,#331)) ;
#345=EDGE_LOOP('',(#346,#347,#348,#349)) ;
#379=EDGE_LOOP('',(#380,#381,#382,#383)) ;
#396=EDGE_LOOP('',(#397,#398,#399,#400)) ;
#418=EDGE_LOOP('',(#419,#420,#421,#422)) ;
#449=EDGE_LOOP('',(#450,#451,#452,#453)) ;
#480=EDGE_LOOP('',(#481,#482,#483,#484,#485,#486,#487)) ;
#495=EDGE_LOOP('',(#496,#497,#498,#499)) ;
#517=EDGE_LOOP('',(#518,#519,#520,#521)) ;
#534=EDGE_LOOP('',(#535,#536,#537,#538)) ;
#551=EDGE_LOOP('',(#552,#553,#554,#555)) ;
#563=EDGE_LOOP('',(#564,#565,#566,#567)) ;
#599=EDGE_LOOP('',(#600,#601,#602,#603,#604,#605,#606,#607)) ;
#620=EDGE_LOOP('',(#621,#622,#623)) ;
#626=EDGE_LOOP('',(#627,#628,#629,#630)) ;
#643=EDGE_LOOP('',(#644,#645,#646,#647)) ;
#655=EDGE_LOOP('',(#656,#657,#658,#659,#660,#661,#662)) ;
#90=FACE_OUTER_BOUND('',#85,.T.) ;
#113=FACE_OUTER_BOUND('',#109,.T.) ;
#153=FACE_OUTER_BOUND('',#148,.T.) ;
#193=FACE_OUTER_BOUND('',#188,.T.) ;
#276=FACE_OUTER_BOUND('',#271,.T.) ;
#332=FACE_OUTER_BOUND('',#323,.T.) ;
#401=FACE_OUTER_BOUND('',#396,.T.) ;
#423=FACE_OUTER_BOUND('',#418,.T.) ;
#454=FACE_OUTER_BOUND('',#449,.T.) ;
#488=FACE_OUTER_BOUND('',#480,.T.) ;
#500=FACE_OUTER_BOUND('',#495,.T.) ;
#522=FACE_OUTER_BOUND('',#517,.T.) ;
#539=FACE_OUTER_BOUND('',#534,.T.) ;
#556=FACE_OUTER_BOUND('',#551,.T.) ;
#568=FACE_OUTER_BOUND('',#563,.T.) ;
#608=FACE_OUTER_BOUND('',#599,.T.) ;
#624=FACE_OUTER_BOUND('',#620,.T.) ;
#631=FACE_OUTER_BOUND('',#626,.T.) ;
#648=FACE_OUTER_BOUND('',#643,.T.) ;
#663=FACE_OUTER_BOUND('',#655,.T.) ;
#45=UNCERTAINTY_MEASURE_WITH_UNIT(LENGTH_MEASURE(0.005),#41,'distance_accuracy_value','CONFUSED CURVE UNCERTAINTY') ;
#60=LINE('Line',#57,#59) ;
#69=LINE('Line',#66,#68) ;
#76=LINE('Line',#73,#75) ;
#83=LINE('Line',#80,#82) ;
#100=LINE('Line',#97,#99) ;
#107=LINE('Line',#104,#106) ;
#123=LINE('Line',#120,#122) ;
#132=LINE('Line',#129,#131) ;
#139=LINE('Line',#136,#138) ;
#146=LINE('Line',#143,#145) ;
#163=LINE('Line',#160,#162) ;
#172=LINE('Line',#169,#171) ;
#179=LINE('Line',#176,#178) ;
#186=LINE('Line',#183,#185) ;
#211=LINE('Line',#208,#210) ;
#222=LINE('Line',#219,#221) ;
#238=LINE('Line',#235,#237) ;
#262=LINE('Line',#259,#261) ;
#286=LINE('Line',#283,#285) ;
#293=LINE('Line',#290,#292) ;
#300=LINE('Line',#297,#299) ;
#307=LINE('Line',#304,#306) ;
#314=LINE('Line',#311,#313) ;
#321=LINE('Line',#318,#320) ;
#336=LINE('Line',#333,#335) ;
#354=LINE('Line',#351,#353) ;
#370=LINE('Line',#367,#369) ;
#394=LINE('Line',#391,#393) ;
#411=LINE('Line',#408,#410) ;
#416=LINE('Line',#413,#415) ;
#433=LINE('Line',#430,#432) ;
#440=LINE('Line',#437,#439) ;
#447=LINE('Line',#444,#446) ;
#464=LINE('Line',#461,#463) ;
#471=LINE('Line',#468,#470) ;
#478=LINE('Line',#475,#477) ;
#510=LINE('Line',#507,#509) ;
#515=LINE('Line',#512,#514) ;
#532=LINE('Line',#529,#531) ;
#549=LINE('Line',#546,#548) ;
#578=LINE('Line',#575,#577) ;
#585=LINE('Line',#582,#584) ;
#590=LINE('Line',#587,#589) ;
#597=LINE('Line',#594,#596) ;
#618=LINE('Line',#615,#617) ;
#641=LINE('Line',#638,#640) ;
#2=MECHANICAL_CONTEXT(' ',#1,'mechanical') ;
#24=PERSONAL_ADDRESS(' ',' ',' ',' ',' ',' ',' ',' ',' ',' ',' ',' ',(#22),' ') ;
#56=PLANE('',#55) ;
#96=PLANE('',#95) ;
#119=PLANE('',#118) ;
#159=PLANE('',#158) ;
#282=PLANE('',#281) ;
#407=PLANE('',#406) ;
#429=PLANE('',#428) ;
#460=PLANE('',#459) ;
#494=PLANE('',#493) ;
#506=PLANE('',#505) ;
#545=PLANE('',#544) ;
#574=PLANE('',#573) ;
#614=PLANE('',#613) ;
#637=PLANE('',#636) ;
#654=PLANE('',#653) ;
#43=PLANE_ANGLE_MEASURE_WITH_UNIT(PLANE_ANGLE_MEASURE(0.0174532925199),#42) ;
#7=PRODUCT_CATEGORY('part',$) ;
#9=PRODUCT_CATEGORY_RELATIONSHIP(' ',' ',#7,#8) ;
#6=PRODUCT_DEFINITION_FORMATION_WITH_SPECIFIED_SOURCE('',' ',#5,.NOT_KNOWN.) ;
#8=PRODUCT_RELATED_PRODUCT_CATEGORY('detail',$,(#5)) ;
#50=SHAPE_DEFINITION_REPRESENTATION(#40,#49) ;
#62=VERTEX_POINT('',#61) ;
#64=VERTEX_POINT('',#63) ;
#71=VERTEX_POINT('',#70) ;
#78=VERTEX_POINT('',#77) ;
#102=VERTEX_POINT('',#101) ;
#125=VERTEX_POINT('',#124) ;
#127=VERTEX_POINT('',#126) ;
#134=VERTEX_POINT('',#133) ;
#141=VERTEX_POINT('',#140) ;
#165=VERTEX_POINT('',#164) ;
#167=VERTEX_POINT('',#166) ;
#174=VERTEX_POINT('',#173) ;
#181=VERTEX_POINT('',#180) ;
#199=VERTEX_POINT('',#198) ;
#206=VERTEX_POINT('',#205) ;
#224=VERTEX_POINT('',#223) ;
#226=VERTEX_POINT('',#225) ;
#233=VERTEX_POINT('',#232) ;
#240=VERTEX_POINT('',#239) ;
#264=VERTEX_POINT('',#263) ;
#288=VERTEX_POINT('',#287) ;
#295=VERTEX_POINT('',#294) ;
#302=VERTEX_POINT('',#301) ;
#309=VERTEX_POINT('',#308) ;
#316=VERTEX_POINT('',#315) ;
#338=VERTEX_POINT('',#337) ;
#356=VERTEX_POINT('',#355) ;
#358=VERTEX_POINT('',#357) ;
#365=VERTEX_POINT('',#364) ;
#372=VERTEX_POINT('',#371) ;
#435=VERTEX_POINT('',#434) ;
#442=VERTEX_POINT('',#441) ;
#466=VERTEX_POINT('',#465) ;
#473=VERTEX_POINT('',#472) ;
#580=VERTEX_POINT('',#579) ;
#592=VERTEX_POINT('',#591) ;
#41=(LENGTH_UNIT()NAMED_UNIT(*)SI_UNIT(.MILLI.,.METRE.)) ;
#42=(NAMED_UNIT(*)PLANE_ANGLE_UNIT()SI_UNIT($,.RADIAN.)) ;
#44=(NAMED_UNIT(*)SI_UNIT($,.STERADIAN.)SOLID_ANGLE_UNIT()) ;
#46=(GEOMETRIC_REPRESENTATION_CONTEXT(3)GLOBAL_UNCERTAINTY_ASSIGNED_CONTEXT((#45))GLOBAL_UNIT_ASSIGNED_CONTEXT((#41,#42,#44))REPRESENTATION_CONTEXT(' ',' ')) ;
ENDSEC;
END-ISO-10303-21;
