ISO-10303-21;
HEADER;
FILE_DESCRIPTION(('CATIA V5 STEP Exchange'),'2;1');

FILE_NAME('C:\\Users\\30628\\Desktop\\Part1.stp','2026-08-06T17:06:09+00:00',('none'),('none'),'CATIA Version 5 Release 21 GA (IN-10)','CATIA V5 STEP AP203','none');

FILE_SCHEMA(('CONFIG_CONTROL_DESIGN'));

ENDSEC;
/* file written by CATIA V5R21 */
DATA;
#5=PRODUCT('Part1','','',(#2)) ;
#1=APPLICATION_CONTEXT('configuration controlled 3D design of mechanical parts and assemblies') ;
#14=PRODUCT_DEFINITION('',' ',#6,#3) ;
#16=SECURITY_CLASSIFICATION(' ',' ',#15) ;
#15=SECURITY_CLASSIFICATION_LEVEL('unclassified') ;
#47=CARTESIAN_POINT(' ',(0.,0.,0.)) ;
#52=CARTESIAN_POINT('Axis2P3D Location',(0.,0.,1.5)) ;
#57=CARTESIAN_POINT('Line Origine',(164.544826719,95.,1.5)) ;
#61=CARTESIAN_POINT('Vertex',(164.544826719,95.,0.)) ;
#63=CARTESIAN_POINT('Vertex',(164.544826719,95.,3.)) ;
#66=CARTESIAN_POINT('Axis2P3D Location',(0.,0.,0.)) ;
#70=CARTESIAN_POINT('Vertex',(-164.544826719,95.,0.)) ;
#73=CARTESIAN_POINT('Line Origine',(-164.544826719,95.,1.5)) ;
#77=CARTESIAN_POINT('Vertex',(-164.544826719,95.,3.)) ;
#80=CARTESIAN_POINT('Axis2P3D Location',(0.,0.,3.)) ;
#92=CARTESIAN_POINT('Axis2P3D Location',(-17.3205080757,10.,0.)) ;
#97=CARTESIAN_POINT('Line Origine',(-90.9326673974,52.5,0.)) ;
#101=CARTESIAN_POINT('Vertex',(-17.3205080757,10.,0.)) ;
#104=CARTESIAN_POINT('Line Origine',(-17.3205080757,10.,1.5)) ;
#108=CARTESIAN_POINT('Vertex',(-17.3205080757,10.,3.)) ;
#111=CARTESIAN_POINT('Line Origine',(-90.9326673974,52.5,3.)) ;
#123=CARTESIAN_POINT('Axis2P3D Location',(0.,0.,1.5)) ;
#128=CARTESIAN_POINT('Axis2P3D Location',(0.,0.,0.)) ;
#132=CARTESIAN_POINT('Vertex',(17.3205080757,10.,0.)) ;
#135=CARTESIAN_POINT('Line Origine',(17.3205080757,10.,1.5)) ;
#139=CARTESIAN_POINT('Vertex',(17.3205080757,10.,3.)) ;
#142=CARTESIAN_POINT('Axis2P3D Location',(0.,0.,3.)) ;
#154=CARTESIAN_POINT('Axis2P3D Location',(164.544826719,95.,0.)) ;
#159=CARTESIAN_POINT('Line Origine',(90.9326673974,52.5,0.)) ;
#164=CARTESIAN_POINT('Line Origine',(90.9326673974,52.5,3.)) ;
#176=CARTESIAN_POINT('Axis2P3D Location',(-11.5,-12.5,1.5)) ;
#181=CARTESIAN_POINT('Axis2P3D Location',(-11.5,-12.5,3.)) ;
#185=CARTESIAN_POINT('Vertex',(-13.,-12.5,3.)) ;
#187=CARTESIAN_POINT('Vertex',(-10.,-12.5,3.)) ;
#190=CARTESIAN_POINT('Line Origine',(-10.,-12.5,1.5)) ;
#194=CARTESIAN_POINT('Vertex',(-10.,-12.5,0.)) ;
#197=CARTESIAN_POINT('Axis2P3D Location',(-11.5,-12.5,0.)) ;
#201=CARTESIAN_POINT('Vertex',(-13.,-12.5,0.)) ;
#204=CARTESIAN_POINT('Line Origine',(-13.,-12.5,1.5)) ;
#216=CARTESIAN_POINT('Axis2P3D Location',(-13.,12.5,0.)) ;
#221=CARTESIAN_POINT('Line Origine',(-13.,0.,3.)) ;
#225=CARTESIAN_POINT('Vertex',(-13.,12.5,3.)) ;
#228=CARTESIAN_POINT('Line Origine',(-13.,0.,0.)) ;
#232=CARTESIAN_POINT('Vertex',(-13.,12.5,0.)) ;
#235=CARTESIAN_POINT('Line Origine',(-13.,12.5,1.5)) ;
#247=CARTESIAN_POINT('Axis2P3D Location',(-11.5,12.5,1.5)) ;
#252=CARTESIAN_POINT('Axis2P3D Location',(-11.5,12.5,3.)) ;
#256=CARTESIAN_POINT('Vertex',(-10.,12.5,3.)) ;
#259=CARTESIAN_POINT('Axis2P3D Location',(-11.5,12.5,0.)) ;
#263=CARTESIAN_POINT('Vertex',(-10.,12.5,0.)) ;
#266=CARTESIAN_POINT('Line Origine',(-10.,12.5,1.5)) ;
#278=CARTESIAN_POINT('Axis2P3D Location',(-10.,12.5,0.)) ;
#283=CARTESIAN_POINT('Line Origine',(-10.,0.,3.)) ;
#288=CARTESIAN_POINT('Line Origine',(-10.,0.,0.)) ;
#300=CARTESIAN_POINT('Axis2P3D Location',(11.5,12.5,1.5)) ;
#305=CARTESIAN_POINT('Axis2P3D Location',(11.5,12.5,3.)) ;
#309=CARTESIAN_POINT('Vertex',(13.,12.5,3.)) ;
#311=CARTESIAN_POINT('Vertex',(10.,12.5,3.)) ;
#314=CARTESIAN_POINT('Line Origine',(10.,12.5,1.5)) ;
#318=CARTESIAN_POINT('Vertex',(10.,12.5,0.)) ;
#321=CARTESIAN_POINT('Axis2P3D Location',(11.5,12.5,0.)) ;
#325=CARTESIAN_POINT('Vertex',(13.,12.5,0.)) ;
#328=CARTESIAN_POINT('Line Origine',(13.,12.5,1.5)) ;
#340=CARTESIAN_POINT('Axis2P3D Location',(13.,12.5,0.)) ;
#345=CARTESIAN_POINT('Line Origine',(13.,0.,3.)) ;
#349=CARTESIAN_POINT('Vertex',(13.,-12.5,3.)) ;
#352=CARTESIAN_POINT('Line Origine',(13.,0.,0.)) ;
#356=CARTESIAN_POINT('Vertex',(13.,-12.5,0.)) ;
#359=CARTESIAN_POINT('Line Origine',(13.,-12.5,1.5)) ;
#371=CARTESIAN_POINT('Axis2P3D Location',(11.5,-12.5,1.5)) ;
#376=CARTESIAN_POINT('Axis2P3D Location',(11.5,-12.5,3.)) ;
#380=CARTESIAN_POINT('Vertex',(10.,-12.5,3.)) ;
#383=CARTESIAN_POINT('Axis2P3D Location',(11.5,-12.5,0.)) ;
#387=CARTESIAN_POINT('Vertex',(10.,-12.5,0.)) ;
#390=CARTESIAN_POINT('Line Origine',(10.,-12.5,1.5)) ;
#402=CARTESIAN_POINT('Axis2P3D Location',(10.,12.5,0.)) ;
#407=CARTESIAN_POINT('Line Origine',(10.,0.,3.)) ;
#412=CARTESIAN_POINT('Line Origine',(10.,0.,0.)) ;
#424=CARTESIAN_POINT('Axis2P3D Location',(0.,0.,3.)) ;
#428=CARTESIAN_POINT('Vertex',(-14.2705098312,14.0125853844,3.)) ;
#430=CARTESIAN_POINT('Vertex',(-2.5,19.843134833,3.)) ;
#433=CARTESIAN_POINT('Line Origine',(-2.5,19.843134833,1.5)) ;
#437=CARTESIAN_POINT('Vertex',(-2.5,19.843134833,0.)) ;
#440=CARTESIAN_POINT('Axis2P3D Location',(0.,0.,0.)) ;
#444=CARTESIAN_POINT('Vertex',(-14.2705098312,14.0125853844,0.)) ;
#447=CARTESIAN_POINT('Line Origine',(-14.2705098312,14.0125853844,1.5)) ;
#459=CARTESIAN_POINT('Axis2P3D Location',(-157.65617378,96.7963370635,0.)) ;
#464=CARTESIAN_POINT('Line Origine',(-85.9633418059,55.4044612239,3.)) ;
#468=CARTESIAN_POINT('Vertex',(-157.65617378,96.7963370635,3.)) ;
#471=CARTESIAN_POINT('Line Origine',(-85.9633418059,55.4044612239,0.)) ;
#475=CARTESIAN_POINT('Vertex',(-157.65617378,96.7963370635,0.)) ;
#478=CARTESIAN_POINT('Line Origine',(-157.65617378,96.7963370635,1.5)) ;
#490=CARTESIAN_POINT('Axis2P3D Location',(0.,0.,1.5)) ;
#495=CARTESIAN_POINT('Axis2P3D Location',(0.,0.,3.)) ;
#499=CARTESIAN_POINT('Vertex',(-2.5,184.983107337,3.)) ;
#502=CARTESIAN_POINT('Axis2P3D Location',(0.,0.,0.)) ;
#506=CARTESIAN_POINT('Vertex',(-2.5,184.983107337,0.)) ;
#509=CARTESIAN_POINT('Line Origine',(-2.5,184.983107337,1.5)) ;
#521=CARTESIAN_POINT('Axis2P3D Location',(-2.5,184.983107337,0.)) ;
#526=CARTESIAN_POINT('Line Origine',(-2.5,102.413121085,3.)) ;
#531=CARTESIAN_POINT('Line Origine',(-2.5,102.413121085,0.)) ;
#543=CARTESIAN_POINT('Axis2P3D Location',(157.65617378,96.7963370635,0.)) ;
#548=CARTESIAN_POINT('Line Origine',(85.9633418059,55.4044612239,3.)) ;
#552=CARTESIAN_POINT('Vertex',(14.2705098312,14.0125853844,3.)) ;
#554=CARTESIAN_POINT('Vertex',(157.65617378,96.7963370635,3.)) ;
#557=CARTESIAN_POINT('Line Origine',(157.65617378,96.7963370635,1.5)) ;
#561=CARTESIAN_POINT('Vertex',(157.65617378,96.7963370635,0.)) ;
#564=CARTESIAN_POINT('Line Origine',(85.9633418059,55.4044612239,0.)) ;
#568=CARTESIAN_POINT('Vertex',(14.2705098312,14.0125853844,0.)) ;
#571=CARTESIAN_POINT('Line Origine',(14.2705098312,14.0125853844,1.5)) ;
#583=CARTESIAN_POINT('Axis2P3D Location',(0.,0.,1.5)) ;
#588=CARTESIAN_POINT('Axis2P3D Location',(0.,0.,3.)) ;
#592=CARTESIAN_POINT('Vertex',(2.5,19.843134833,3.)) ;
#595=CARTESIAN_POINT('Axis2P3D Location',(0.,0.,0.)) ;
#599=CARTESIAN_POINT('Vertex',(2.5,19.843134833,0.)) ;
#602=CARTESIAN_POINT('Line Origine',(2.5,19.843134833,1.5)) ;
#614=CARTESIAN_POINT('Axis2P3D Location',(2.5,184.983107337,0.)) ;
#619=CARTESIAN_POINT('Line Origine',(2.5,102.413121085,3.)) ;
#623=CARTESIAN_POINT('Vertex',(2.5,184.983107337,3.)) ;
#626=CARTESIAN_POINT('Line Origine',(2.5,102.413121085,0.)) ;
#630=CARTESIAN_POINT('Vertex',(2.5,184.983107337,0.)) ;
#633=CARTESIAN_POINT('Line Origine',(2.5,184.983107337,1.5)) ;
#645=CARTESIAN_POINT('Axis2P3D Location',(0.,0.,3.)) ;
#650=CARTESIAN_POINT('Axis2P3D Location',(0.,0.,0.)) ;
#662=CARTESIAN_POINT('Axis2P3D Location',(0.,0.,0.)) ;
#698=CARTESIAN_POINT('Axis2P3D Location',(0.,0.,3.)) ;
#53=DIRECTION('Axis2P3D Direction',(0.,0.,1.)) ;
#54=DIRECTION('Axis2P3D XDirection',(0.866025403784,0.5,0.)) ;
#58=DIRECTION('Vector Direction',(0.,0.,1.)) ;
#67=DIRECTION('Axis2P3D Direction',(0.,0.,1.)) ;
#74=DIRECTION('Vector Direction',(0.,0.,1.)) ;
#81=DIRECTION('Axis2P3D Direction',(0.,0.,1.)) ;
#93=DIRECTION('Axis2P3D Direction',(0.5,0.866025403784,-0.)) ;
#94=DIRECTION('Axis2P3D XDirection',(-0.866025403784,0.5,0.)) ;
#98=DIRECTION('Vector Direction',(-0.866025403784,0.5,0.)) ;
#105=DIRECTION('Vector Direction',(0.,0.,1.)) ;
#112=DIRECTION('Vector Direction',(-0.866025403784,0.5,0.)) ;
#124=DIRECTION('Axis2P3D Direction',(0.,0.,1.)) ;
#125=DIRECTION('Axis2P3D XDirection',(-0.125,0.992156741649,0.)) ;
#129=DIRECTION('Axis2P3D Direction',(0.,0.,1.)) ;
#136=DIRECTION('Vector Direction',(0.,0.,1.)) ;
#143=DIRECTION('Axis2P3D Direction',(0.,0.,1.)) ;
#155=DIRECTION('Axis2P3D Direction',(-0.5,0.866025403784,0.)) ;
#156=DIRECTION('Axis2P3D XDirection',(-0.866025403784,-0.5,-0.)) ;
#160=DIRECTION('Vector Direction',(-0.866025403784,-0.5,0.)) ;
#165=DIRECTION('Vector Direction',(-0.866025403784,-0.5,0.)) ;
#177=DIRECTION('Axis2P3D Direction',(0.,0.,1.)) ;
#178=DIRECTION('Axis2P3D XDirection',(-1.,1.22460635382E-016,0.)) ;
#182=DIRECTION('Axis2P3D Direction',(0.,0.,1.)) ;
#191=DIRECTION('Vector Direction',(0.,0.,1.)) ;
#198=DIRECTION('Axis2P3D Direction',(0.,0.,1.)) ;
#205=DIRECTION('Vector Direction',(0.,0.,1.)) ;
#217=DIRECTION('Axis2P3D Direction',(-1.,0.,0.)) ;
#218=DIRECTION('Axis2P3D XDirection',(0.,-1.,0.)) ;
#222=DIRECTION('Vector Direction',(0.,-1.,0.)) ;
#229=DIRECTION('Vector Direction',(0.,-1.,0.)) ;
#236=DIRECTION('Vector Direction',(0.,0.,1.)) ;
#248=DIRECTION('Axis2P3D Direction',(0.,0.,1.)) ;
#249=DIRECTION('Axis2P3D XDirection',(1.,0.,0.)) ;
#253=DIRECTION('Axis2P3D Direction',(0.,0.,1.)) ;
#260=DIRECTION('Axis2P3D Direction',(0.,0.,1.)) ;
#267=DIRECTION('Vector Direction',(0.,0.,1.)) ;
#279=DIRECTION('Axis2P3D Direction',(-1.,0.,0.)) ;
#280=DIRECTION('Axis2P3D XDirection',(0.,-1.,0.)) ;
#284=DIRECTION('Vector Direction',(0.,-1.,0.)) ;
#289=DIRECTION('Vector Direction',(0.,-1.,0.)) ;
#301=DIRECTION('Axis2P3D Direction',(0.,0.,1.)) ;
#302=DIRECTION('Axis2P3D XDirection',(1.,-2.02127811016E-015,0.)) ;
#306=DIRECTION('Axis2P3D Direction',(0.,0.,1.)) ;
#315=DIRECTION('Vector Direction',(0.,0.,1.)) ;
#322=DIRECTION('Axis2P3D Direction',(0.,0.,1.)) ;
#329=DIRECTION('Vector Direction',(0.,0.,1.)) ;
#341=DIRECTION('Axis2P3D Direction',(-1.,0.,0.)) ;
#342=DIRECTION('Axis2P3D XDirection',(0.,-1.,0.)) ;
#346=DIRECTION('Vector Direction',(0.,-1.,0.)) ;
#353=DIRECTION('Vector Direction',(0.,-1.,0.)) ;
#360=DIRECTION('Vector Direction',(0.,0.,1.)) ;
#372=DIRECTION('Axis2P3D Direction',(0.,0.,1.)) ;
#373=DIRECTION('Axis2P3D XDirection',(-1.,1.22460635382E-016,0.)) ;
#377=DIRECTION('Axis2P3D Direction',(0.,0.,1.)) ;
#384=DIRECTION('Axis2P3D Direction',(0.,0.,1.)) ;
#391=DIRECTION('Vector Direction',(0.,0.,1.)) ;
#403=DIRECTION('Axis2P3D Direction',(-1.,0.,0.)) ;
#404=DIRECTION('Axis2P3D XDirection',(0.,-1.,0.)) ;
#408=DIRECTION('Vector Direction',(0.,-1.,0.)) ;
#413=DIRECTION('Vector Direction',(0.,-1.,0.)) ;
#425=DIRECTION('Axis2P3D Direction',(0.,0.,1.)) ;
#434=DIRECTION('Vector Direction',(0.,0.,1.)) ;
#441=DIRECTION('Axis2P3D Direction',(0.,0.,1.)) ;
#448=DIRECTION('Vector Direction',(0.,0.,1.)) ;
#460=DIRECTION('Axis2P3D Direction',(-0.5,-0.866025403784,0.)) ;
#461=DIRECTION('Axis2P3D XDirection',(0.866025403784,-0.5,0.)) ;
#465=DIRECTION('Vector Direction',(0.866025403784,-0.5,0.)) ;
#472=DIRECTION('Vector Direction',(0.866025403784,-0.5,0.)) ;
#479=DIRECTION('Vector Direction',(0.,0.,1.)) ;
#491=DIRECTION('Axis2P3D Direction',(0.,0.,1.)) ;
#492=DIRECTION('Axis2P3D XDirection',(0.852195533948,0.523223443586,0.)) ;
#496=DIRECTION('Axis2P3D Direction',(0.,0.,1.)) ;
#503=DIRECTION('Axis2P3D Direction',(0.,0.,1.)) ;
#510=DIRECTION('Vector Direction',(0.,0.,1.)) ;
#522=DIRECTION('Axis2P3D Direction',(-1.,0.,0.)) ;
#523=DIRECTION('Axis2P3D XDirection',(0.,-1.,0.)) ;
#527=DIRECTION('Vector Direction',(0.,-1.,0.)) ;
#532=DIRECTION('Vector Direction',(0.,-1.,0.)) ;
#544=DIRECTION('Axis2P3D Direction',(-0.5,0.866025403784,0.)) ;
#545=DIRECTION('Axis2P3D XDirection',(-0.866025403784,-0.5,-0.)) ;
#549=DIRECTION('Vector Direction',(-0.866025403784,-0.5,0.)) ;
#558=DIRECTION('Vector Direction',(0.,0.,1.)) ;
#565=DIRECTION('Vector Direction',(-0.866025403784,-0.5,0.)) ;
#572=DIRECTION('Vector Direction',(0.,0.,1.)) ;
#584=DIRECTION('Axis2P3D Direction',(0.,0.,1.)) ;
#585=DIRECTION('Axis2P3D XDirection',(0.713525491562,0.700629269222,0.)) ;
#589=DIRECTION('Axis2P3D Direction',(0.,0.,1.)) ;
#596=DIRECTION('Axis2P3D Direction',(0.,0.,1.)) ;
#603=DIRECTION('Vector Direction',(0.,0.,1.)) ;
#615=DIRECTION('Axis2P3D Direction',(-1.,0.,0.)) ;
#616=DIRECTION('Axis2P3D XDirection',(0.,-1.,0.)) ;
#620=DIRECTION('Vector Direction',(0.,-1.,0.)) ;
#627=DIRECTION('Vector Direction',(0.,-1.,0.)) ;
#634=DIRECTION('Vector Direction',(0.,0.,1.)) ;
#646=DIRECTION('Axis2P3D Direction',(0.,0.,1.)) ;
#651=DIRECTION('Axis2P3D Direction',(0.,0.,1.)) ;
#663=DIRECTION('Axis2P3D Direction',(0.,0.,1.)) ;
#664=DIRECTION('Axis2P3D XDirection',(1.,0.,0.)) ;
#699=DIRECTION('Axis2P3D Direction',(0.,0.,1.)) ;
#700=DIRECTION('Axis2P3D XDirection',(1.,0.,0.)) ;
#48=AXIS2_PLACEMENT_3D(' ',#47,$,$) ;
#55=AXIS2_PLACEMENT_3D('Cylinder Axis2P3D',#52,#53,#54) ;
#68=AXIS2_PLACEMENT_3D('Circle Axis2P3D',#66,#67,$) ;
#82=AXIS2_PLACEMENT_3D('Circle Axis2P3D',#80,#81,$) ;
#95=AXIS2_PLACEMENT_3D('Plane Axis2P3D',#92,#93,#94) ;
#126=AXIS2_PLACEMENT_3D('Cylinder Axis2P3D',#123,#124,#125) ;
#130=AXIS2_PLACEMENT_3D('Circle Axis2P3D',#128,#129,$) ;
#144=AXIS2_PLACEMENT_3D('Circle Axis2P3D',#142,#143,$) ;
#157=AXIS2_PLACEMENT_3D('Plane Axis2P3D',#154,#155,#156) ;
#179=AXIS2_PLACEMENT_3D('Cylinder Axis2P3D',#176,#177,#178) ;
#183=AXIS2_PLACEMENT_3D('Circle Axis2P3D',#181,#182,$) ;
#199=AXIS2_PLACEMENT_3D('Circle Axis2P3D',#197,#198,$) ;
#219=AXIS2_PLACEMENT_3D('Plane Axis2P3D',#216,#217,#218) ;
#250=AXIS2_PLACEMENT_3D('Cylinder Axis2P3D',#247,#248,#249) ;
#254=AXIS2_PLACEMENT_3D('Circle Axis2P3D',#252,#253,$) ;
#261=AXIS2_PLACEMENT_3D('Circle Axis2P3D',#259,#260,$) ;
#281=AXIS2_PLACEMENT_3D('Plane Axis2P3D',#278,#279,#280) ;
#303=AXIS2_PLACEMENT_3D('Cylinder Axis2P3D',#300,#301,#302) ;
#307=AXIS2_PLACEMENT_3D('Circle Axis2P3D',#305,#306,$) ;
#323=AXIS2_PLACEMENT_3D('Circle Axis2P3D',#321,#322,$) ;
#343=AXIS2_PLACEMENT_3D('Plane Axis2P3D',#340,#341,#342) ;
#374=AXIS2_PLACEMENT_3D('Cylinder Axis2P3D',#371,#372,#373) ;
#378=AXIS2_PLACEMENT_3D('Circle Axis2P3D',#376,#377,$) ;
#385=AXIS2_PLACEMENT_3D('Circle Axis2P3D',#383,#384,$) ;
#405=AXIS2_PLACEMENT_3D('Plane Axis2P3D',#402,#403,#404) ;
#426=AXIS2_PLACEMENT_3D('Circle Axis2P3D',#424,#425,$) ;
#442=AXIS2_PLACEMENT_3D('Circle Axis2P3D',#440,#441,$) ;
#462=AXIS2_PLACEMENT_3D('Plane Axis2P3D',#459,#460,#461) ;
#493=AXIS2_PLACEMENT_3D('Cylinder Axis2P3D',#490,#491,#492) ;
#497=AXIS2_PLACEMENT_3D('Circle Axis2P3D',#495,#496,$) ;
#504=AXIS2_PLACEMENT_3D('Circle Axis2P3D',#502,#503,$) ;
#524=AXIS2_PLACEMENT_3D('Plane Axis2P3D',#521,#522,#523) ;
#546=AXIS2_PLACEMENT_3D('Plane Axis2P3D',#543,#544,#545) ;
#586=AXIS2_PLACEMENT_3D('Cylinder Axis2P3D',#583,#584,#585) ;
#590=AXIS2_PLACEMENT_3D('Circle Axis2P3D',#588,#589,$) ;
#597=AXIS2_PLACEMENT_3D('Circle Axis2P3D',#595,#596,$) ;
#617=AXIS2_PLACEMENT_3D('Plane Axis2P3D',#614,#615,#616) ;
#647=AXIS2_PLACEMENT_3D('Circle Axis2P3D',#645,#646,$) ;
#652=AXIS2_PLACEMENT_3D('Circle Axis2P3D',#650,#651,$) ;
#665=AXIS2_PLACEMENT_3D('Plane Axis2P3D',#662,#663,#664) ;
#701=AXIS2_PLACEMENT_3D('Plane Axis2P3D',#698,#699,#700) ;
#40=PRODUCT_DEFINITION_SHAPE(' ',' ',#14) ;
#31=APPROVAL_PERSON_ORGANIZATION(#25,#21,#19) ;
#25=PERSON_AND_ORGANIZATION(#22,#23) ;
#22=PERSON(' ',' ',' ',$,$,$) ;
#23=ORGANIZATION(' ',' ',' ') ;
#21=APPROVAL(#20,' ') ;
#20=APPROVAL_STATUS('not_yet_approved') ;
#19=APPROVAL_ROLE('APPROVER') ;
#13=DATE_AND_TIME(#11,#12) ;
#12=LOCAL_TIME(1,6,9.,#10) ;
#10=COORDINATED_UNIVERSAL_TIME_OFFSET(0,0,.AHEAD.) ;
#86=ORIENTED_EDGE('',*,*,#65,.F.) ;
#87=ORIENTED_EDGE('',*,*,#72,.T.) ;
#88=ORIENTED_EDGE('',*,*,#79,.T.) ;
#89=ORIENTED_EDGE('',*,*,#84,.F.) ;
#117=ORIENTED_EDGE('',*,*,#79,.F.) ;
#118=ORIENTED_EDGE('',*,*,#103,.T.) ;
#119=ORIENTED_EDGE('',*,*,#110,.T.) ;
#120=ORIENTED_EDGE('',*,*,#115,.F.) ;
#148=ORIENTED_EDGE('',*,*,#110,.F.) ;
#149=ORIENTED_EDGE('',*,*,#134,.T.) ;
#150=ORIENTED_EDGE('',*,*,#141,.T.) ;
#151=ORIENTED_EDGE('',*,*,#146,.F.) ;
#170=ORIENTED_EDGE('',*,*,#141,.F.) ;
#171=ORIENTED_EDGE('',*,*,#163,.T.) ;
#172=ORIENTED_EDGE('',*,*,#65,.T.) ;
#173=ORIENTED_EDGE('',*,*,#168,.F.) ;
#210=ORIENTED_EDGE('',*,*,#189,.T.) ;
#211=ORIENTED_EDGE('',*,*,#196,.F.) ;
#212=ORIENTED_EDGE('',*,*,#203,.F.) ;
#213=ORIENTED_EDGE('',*,*,#208,.T.) ;
#241=ORIENTED_EDGE('',*,*,#227,.T.) ;
#242=ORIENTED_EDGE('',*,*,#208,.F.) ;
#243=ORIENTED_EDGE('',*,*,#234,.F.) ;
#244=ORIENTED_EDGE('',*,*,#239,.T.) ;
#272=ORIENTED_EDGE('',*,*,#258,.T.) ;
#273=ORIENTED_EDGE('',*,*,#239,.F.) ;
#274=ORIENTED_EDGE('',*,*,#265,.F.) ;
#275=ORIENTED_EDGE('',*,*,#270,.T.) ;
#294=ORIENTED_EDGE('',*,*,#287,.T.) ;
#295=ORIENTED_EDGE('',*,*,#270,.F.) ;
#296=ORIENTED_EDGE('',*,*,#292,.F.) ;
#297=ORIENTED_EDGE('',*,*,#196,.T.) ;
#334=ORIENTED_EDGE('',*,*,#313,.T.) ;
#335=ORIENTED_EDGE('',*,*,#320,.F.) ;
#336=ORIENTED_EDGE('',*,*,#327,.F.) ;
#337=ORIENTED_EDGE('',*,*,#332,.T.) ;
#365=ORIENTED_EDGE('',*,*,#351,.T.) ;
#366=ORIENTED_EDGE('',*,*,#332,.F.) ;
#367=ORIENTED_EDGE('',*,*,#358,.F.) ;
#368=ORIENTED_EDGE('',*,*,#363,.T.) ;
#396=ORIENTED_EDGE('',*,*,#382,.T.) ;
#397=ORIENTED_EDGE('',*,*,#363,.F.) ;
#398=ORIENTED_EDGE('',*,*,#389,.F.) ;
#399=ORIENTED_EDGE('',*,*,#394,.T.) ;
#418=ORIENTED_EDGE('',*,*,#411,.T.) ;
#419=ORIENTED_EDGE('',*,*,#394,.F.) ;
#420=ORIENTED_EDGE('',*,*,#416,.F.) ;
#421=ORIENTED_EDGE('',*,*,#320,.T.) ;
#453=ORIENTED_EDGE('',*,*,#432,.T.) ;
#454=ORIENTED_EDGE('',*,*,#439,.F.) ;
#455=ORIENTED_EDGE('',*,*,#446,.F.) ;
#456=ORIENTED_EDGE('',*,*,#451,.T.) ;
#484=ORIENTED_EDGE('',*,*,#470,.T.) ;
#485=ORIENTED_EDGE('',*,*,#451,.F.) ;
#486=ORIENTED_EDGE('',*,*,#477,.F.) ;
#487=ORIENTED_EDGE('',*,*,#482,.T.) ;
#515=ORIENTED_EDGE('',*,*,#501,.T.) ;
#516=ORIENTED_EDGE('',*,*,#482,.F.) ;
#517=ORIENTED_EDGE('',*,*,#508,.F.) ;
#518=ORIENTED_EDGE('',*,*,#513,.T.) ;
#537=ORIENTED_EDGE('',*,*,#530,.T.) ;
#538=ORIENTED_EDGE('',*,*,#513,.F.) ;
#539=ORIENTED_EDGE('',*,*,#535,.F.) ;
#540=ORIENTED_EDGE('',*,*,#439,.T.) ;
#577=ORIENTED_EDGE('',*,*,#556,.T.) ;
#578=ORIENTED_EDGE('',*,*,#563,.F.) ;
#579=ORIENTED_EDGE('',*,*,#570,.F.) ;
#580=ORIENTED_EDGE('',*,*,#575,.T.) ;
#608=ORIENTED_EDGE('',*,*,#594,.T.) ;
#609=ORIENTED_EDGE('',*,*,#575,.F.) ;
#610=ORIENTED_EDGE('',*,*,#601,.F.) ;
#611=ORIENTED_EDGE('',*,*,#606,.T.) ;
#639=ORIENTED_EDGE('',*,*,#625,.T.) ;
#640=ORIENTED_EDGE('',*,*,#606,.F.) ;
#641=ORIENTED_EDGE('',*,*,#632,.F.) ;
#642=ORIENTED_EDGE('',*,*,#637,.T.) ;
#656=ORIENTED_EDGE('',*,*,#649,.T.) ;
#657=ORIENTED_EDGE('',*,*,#637,.F.) ;
#658=ORIENTED_EDGE('',*,*,#654,.F.) ;
#659=ORIENTED_EDGE('',*,*,#563,.T.) ;
#668=ORIENTED_EDGE('',*,*,#163,.F.) ;
#669=ORIENTED_EDGE('',*,*,#134,.F.) ;
#670=ORIENTED_EDGE('',*,*,#103,.F.) ;
#671=ORIENTED_EDGE('',*,*,#72,.F.) ;
#674=ORIENTED_EDGE('',*,*,#292,.T.) ;
#675=ORIENTED_EDGE('',*,*,#265,.T.) ;
#676=ORIENTED_EDGE('',*,*,#234,.T.) ;
#677=ORIENTED_EDGE('',*,*,#203,.T.) ;
#680=ORIENTED_EDGE('',*,*,#416,.T.) ;
#681=ORIENTED_EDGE('',*,*,#389,.T.) ;
#682=ORIENTED_EDGE('',*,*,#358,.T.) ;
#683=ORIENTED_EDGE('',*,*,#327,.T.) ;
#686=ORIENTED_EDGE('',*,*,#535,.T.) ;
#687=ORIENTED_EDGE('',*,*,#508,.T.) ;
#688=ORIENTED_EDGE('',*,*,#477,.T.) ;
#689=ORIENTED_EDGE('',*,*,#446,.T.) ;
#692=ORIENTED_EDGE('',*,*,#654,.T.) ;
#693=ORIENTED_EDGE('',*,*,#632,.T.) ;
#694=ORIENTED_EDGE('',*,*,#601,.T.) ;
#695=ORIENTED_EDGE('',*,*,#570,.T.) ;
#704=ORIENTED_EDGE('',*,*,#84,.T.) ;
#705=ORIENTED_EDGE('',*,*,#115,.T.) ;
#706=ORIENTED_EDGE('',*,*,#146,.T.) ;
#707=ORIENTED_EDGE('',*,*,#168,.T.) ;
#710=ORIENTED_EDGE('',*,*,#189,.F.) ;
#711=ORIENTED_EDGE('',*,*,#227,.F.) ;
#712=ORIENTED_EDGE('',*,*,#258,.F.) ;
#713=ORIENTED_EDGE('',*,*,#287,.F.) ;
#716=ORIENTED_EDGE('',*,*,#313,.F.) ;
#717=ORIENTED_EDGE('',*,*,#351,.F.) ;
#718=ORIENTED_EDGE('',*,*,#382,.F.) ;
#719=ORIENTED_EDGE('',*,*,#411,.F.) ;
#722=ORIENTED_EDGE('',*,*,#432,.F.) ;
#723=ORIENTED_EDGE('',*,*,#470,.F.) ;
#724=ORIENTED_EDGE('',*,*,#501,.F.) ;
#725=ORIENTED_EDGE('',*,*,#530,.F.) ;
#728=ORIENTED_EDGE('',*,*,#556,.F.) ;
#729=ORIENTED_EDGE('',*,*,#594,.F.) ;
#730=ORIENTED_EDGE('',*,*,#625,.F.) ;
#731=ORIENTED_EDGE('',*,*,#649,.F.) ;
#678=FACE_BOUND('',#673,.T.) ;
#684=FACE_BOUND('',#679,.T.) ;
#690=FACE_BOUND('',#685,.T.) ;
#696=FACE_BOUND('',#691,.T.) ;
#714=FACE_BOUND('',#709,.T.) ;
#720=FACE_BOUND('',#715,.T.) ;
#726=FACE_BOUND('',#721,.T.) ;
#732=FACE_BOUND('',#727,.T.) ;
#51=CLOSED_SHELL('Closed Shell',(#91,#122,#153,#175,#215,#246,#277,#299,#339,#370,#401,#423,#458,#489,#520,#542,#582,#613,#644,#661,#697,#733)) ;
#59=VECTOR('Line Direction',#58,1.) ;
#75=VECTOR('Line Direction',#74,1.) ;
#99=VECTOR('Line Direction',#98,1.) ;
#106=VECTOR('Line Direction',#105,1.) ;
#113=VECTOR('Line Direction',#112,1.) ;
#137=VECTOR('Line Direction',#136,1.) ;
#161=VECTOR('Line Direction',#160,1.) ;
#166=VECTOR('Line Direction',#165,1.) ;
#192=VECTOR('Line Direction',#191,1.) ;
#206=VECTOR('Line Direction',#205,1.) ;
#223=VECTOR('Line Direction',#222,1.) ;
#230=VECTOR('Line Direction',#229,1.) ;
#237=VECTOR('Line Direction',#236,1.) ;
#268=VECTOR('Line Direction',#267,1.) ;
#285=VECTOR('Line Direction',#284,1.) ;
#290=VECTOR('Line Direction',#289,1.) ;
#316=VECTOR('Line Direction',#315,1.) ;
#330=VECTOR('Line Direction',#329,1.) ;
#347=VECTOR('Line Direction',#346,1.) ;
#354=VECTOR('Line Direction',#353,1.) ;
#361=VECTOR('Line Direction',#360,1.) ;
#392=VECTOR('Line Direction',#391,1.) ;
#409=VECTOR('Line Direction',#408,1.) ;
#414=VECTOR('Line Direction',#413,1.) ;
#435=VECTOR('Line Direction',#434,1.) ;
#449=VECTOR('Line Direction',#448,1.) ;
#466=VECTOR('Line Direction',#465,1.) ;
#473=VECTOR('Line Direction',#472,1.) ;
#480=VECTOR('Line Direction',#479,1.) ;
#511=VECTOR('Line Direction',#510,1.) ;
#528=VECTOR('Line Direction',#527,1.) ;
#533=VECTOR('Line Direction',#532,1.) ;
#550=VECTOR('Line Direction',#549,1.) ;
#559=VECTOR('Line Direction',#558,1.) ;
#566=VECTOR('Line Direction',#565,1.) ;
#573=VECTOR('Line Direction',#572,1.) ;
#604=VECTOR('Line Direction',#603,1.) ;
#621=VECTOR('Line Direction',#620,1.) ;
#628=VECTOR('Line Direction',#627,1.) ;
#635=VECTOR('Line Direction',#634,1.) ;
#735=ADVANCED_BREP_SHAPE_REPRESENTATION('NONE',(#734),#46) ;
#49=SHAPE_REPRESENTATION(' ',(#48),#46) ;
#91=ADVANCED_FACE('\X2\96F64EF651E04F554F53\X0\',(#90),#56,.T.) ;
#122=ADVANCED_FACE('\X2\96F64EF651E04F554F53\X0\',(#121),#96,.F.) ;
#153=ADVANCED_FACE('\X2\96F64EF651E04F554F53\X0\',(#152),#127,.T.) ;
#175=ADVANCED_FACE('\X2\96F64EF651E04F554F53\X0\',(#174),#158,.F.) ;
#215=ADVANCED_FACE('\X2\96F64EF651E04F554F53\X0\',(#214),#180,.F.) ;
#246=ADVANCED_FACE('\X2\96F64EF651E04F554F53\X0\',(#245),#220,.F.) ;
#277=ADVANCED_FACE('\X2\96F64EF651E04F554F53\X0\',(#276),#251,.F.) ;
#299=ADVANCED_FACE('\X2\96F64EF651E04F554F53\X0\',(#298),#282,.T.) ;
#339=ADVANCED_FACE('\X2\96F64EF651E04F554F53\X0\',(#338),#304,.F.) ;
#370=ADVANCED_FACE('\X2\96F64EF651E04F554F53\X0\',(#369),#344,.T.) ;
#401=ADVANCED_FACE('\X2\96F64EF651E04F554F53\X0\',(#400),#375,.F.) ;
#423=ADVANCED_FACE('\X2\96F64EF651E04F554F53\X0\',(#422),#406,.F.) ;
#458=ADVANCED_FACE('\X2\96F64EF651E04F554F53\X0\',(#457),#127,.T.) ;
#489=ADVANCED_FACE('\X2\96F64EF651E04F554F53\X0\',(#488),#463,.F.) ;
#520=ADVANCED_FACE('\X2\96F64EF651E04F554F53\X0\',(#519),#494,.F.) ;
#542=ADVANCED_FACE('\X2\96F64EF651E04F554F53\X0\',(#541),#525,.T.) ;
#582=ADVANCED_FACE('\X2\96F64EF651E04F554F53\X0\',(#581),#547,.T.) ;
#613=ADVANCED_FACE('\X2\96F64EF651E04F554F53\X0\',(#612),#587,.T.) ;
#644=ADVANCED_FACE('\X2\96F64EF651E04F554F53\X0\',(#643),#618,.F.) ;
#661=ADVANCED_FACE('\X2\96F64EF651E04F554F53\X0\',(#660),#494,.F.) ;
#697=ADVANCED_FACE('\X2\96F64EF651E04F554F53\X0\',(#672,#678,#684,#690,#696),#666,.F.) ;
#733=ADVANCED_FACE('\X2\96F64EF651E04F554F53\X0\',(#708,#714,#720,#726,#732),#702,.T.) ;
#4=APPLICATION_PROTOCOL_DEFINITION('international standard','config_control_design',1994,#1) ;
#32=APPROVAL_DATE_TIME(#13,#21) ;
#734=MANIFOLD_SOLID_BREP('\X2\96F64EF651E04F554F53\X0\',#51) ;
#11=CALENDAR_DATE(2026,7,8) ;
#30=CC_DESIGN_APPROVAL(#21,(#16,#6,#14)) ;
#18=CC_DESIGN_DATE_AND_TIME_ASSIGNMENT(#13,#17,(#16)) ;
#29=CC_DESIGN_DATE_AND_TIME_ASSIGNMENT(#13,#28,(#14)) ;
#17=DATE_TIME_ROLE('classification_date') ;
#28=DATE_TIME_ROLE('creation_date') ;
#27=CC_DESIGN_PERSON_AND_ORGANIZATION_ASSIGNMENT(#25,#26,(#16)) ;
#33=CC_DESIGN_PERSON_AND_ORGANIZATION_ASSIGNMENT(#25,#34,(#6)) ;
#35=CC_DESIGN_PERSON_AND_ORGANIZATION_ASSIGNMENT(#25,#36,(#6,#14)) ;
#37=CC_DESIGN_PERSON_AND_ORGANIZATION_ASSIGNMENT(#25,#38,(#5)) ;
#26=PERSON_AND_ORGANIZATION_ROLE('classification_officer') ;
#34=PERSON_AND_ORGANIZATION_ROLE('design_supplier') ;
#36=PERSON_AND_ORGANIZATION_ROLE('creator') ;
#38=PERSON_AND_ORGANIZATION_ROLE('design_owner') ;
#39=CC_DESIGN_SECURITY_CLASSIFICATION(#16,(#6)) ;
#69=CIRCLE('generated circle',#68,190.) ;
#83=CIRCLE('generated circle',#82,190.) ;
#131=CIRCLE('generated circle',#130,20.) ;
#145=CIRCLE('generated circle',#144,20.) ;
#184=CIRCLE('generated circle',#183,1.5) ;
#200=CIRCLE('generated circle',#199,1.5) ;
#255=CIRCLE('generated circle',#254,1.5) ;
#262=CIRCLE('generated circle',#261,1.5) ;
#308=CIRCLE('generated circle',#307,1.5) ;
#324=CIRCLE('generated circle',#323,1.5) ;
#379=CIRCLE('generated circle',#378,1.5) ;
#386=CIRCLE('generated circle',#385,1.5) ;
#427=CIRCLE('generated circle',#426,20.) ;
#443=CIRCLE('generated circle',#442,20.) ;
#498=CIRCLE('generated circle',#497,185.) ;
#505=CIRCLE('generated circle',#504,185.) ;
#591=CIRCLE('generated circle',#590,20.) ;
#598=CIRCLE('generated circle',#597,20.) ;
#648=CIRCLE('generated circle',#647,185.) ;
#653=CIRCLE('generated circle',#652,185.) ;
#736=SHAPE_REPRESENTATION_RELATIONSHIP(' ',' ',#49,#735) ;
#56=CYLINDRICAL_SURFACE('generated cylinder',#55,190.) ;
#127=CYLINDRICAL_SURFACE('generated cylinder',#126,20.) ;
#180=CYLINDRICAL_SURFACE('generated cylinder',#179,1.5) ;
#251=CYLINDRICAL_SURFACE('generated cylinder',#250,1.5) ;
#304=CYLINDRICAL_SURFACE('generated cylinder',#303,1.5) ;
#375=CYLINDRICAL_SURFACE('generated cylinder',#374,1.5) ;
#494=CYLINDRICAL_SURFACE('generated cylinder',#493,185.) ;
#587=CYLINDRICAL_SURFACE('generated cylinder',#586,20.) ;
#3=DESIGN_CONTEXT(' ',#1,'design') ;
#65=EDGE_CURVE('',#62,#64,#60,.T.) ;
#72=EDGE_CURVE('',#62,#71,#69,.T.) ;
#79=EDGE_CURVE('',#71,#78,#76,.T.) ;
#84=EDGE_CURVE('',#64,#78,#83,.T.) ;
#103=EDGE_CURVE('',#71,#102,#100,.F.) ;
#110=EDGE_CURVE('',#102,#109,#107,.T.) ;
#115=EDGE_CURVE('',#78,#109,#114,.F.) ;
#134=EDGE_CURVE('',#102,#133,#131,.T.) ;
#141=EDGE_CURVE('',#133,#140,#138,.T.) ;
#146=EDGE_CURVE('',#109,#140,#145,.T.) ;
#163=EDGE_CURVE('',#133,#62,#162,.F.) ;
#168=EDGE_CURVE('',#140,#64,#167,.F.) ;
#189=EDGE_CURVE('',#186,#188,#184,.T.) ;
#196=EDGE_CURVE('',#195,#188,#193,.T.) ;
#203=EDGE_CURVE('',#202,#195,#200,.T.) ;
#208=EDGE_CURVE('',#202,#186,#207,.T.) ;
#227=EDGE_CURVE('',#226,#186,#224,.T.) ;
#234=EDGE_CURVE('',#233,#202,#231,.T.) ;
#239=EDGE_CURVE('',#233,#226,#238,.T.) ;
#258=EDGE_CURVE('',#257,#226,#255,.T.) ;
#265=EDGE_CURVE('',#264,#233,#262,.T.) ;
#270=EDGE_CURVE('',#264,#257,#269,.T.) ;
#287=EDGE_CURVE('',#188,#257,#286,.F.) ;
#292=EDGE_CURVE('',#195,#264,#291,.F.) ;
#313=EDGE_CURVE('',#310,#312,#308,.T.) ;
#320=EDGE_CURVE('',#319,#312,#317,.T.) ;
#327=EDGE_CURVE('',#326,#319,#324,.T.) ;
#332=EDGE_CURVE('',#326,#310,#331,.T.) ;
#351=EDGE_CURVE('',#350,#310,#348,.F.) ;
#358=EDGE_CURVE('',#357,#326,#355,.F.) ;
#363=EDGE_CURVE('',#357,#350,#362,.T.) ;
#382=EDGE_CURVE('',#381,#350,#379,.T.) ;
#389=EDGE_CURVE('',#388,#357,#386,.T.) ;
#394=EDGE_CURVE('',#388,#381,#393,.T.) ;
#411=EDGE_CURVE('',#312,#381,#410,.T.) ;
#416=EDGE_CURVE('',#319,#388,#415,.T.) ;
#432=EDGE_CURVE('',#429,#431,#427,.F.) ;
#439=EDGE_CURVE('',#438,#431,#436,.T.) ;
#446=EDGE_CURVE('',#445,#438,#443,.F.) ;
#451=EDGE_CURVE('',#445,#429,#450,.T.) ;
#470=EDGE_CURVE('',#469,#429,#467,.T.) ;
#477=EDGE_CURVE('',#476,#445,#474,.T.) ;
#482=EDGE_CURVE('',#476,#469,#481,.T.) ;
#501=EDGE_CURVE('',#500,#469,#498,.T.) ;
#508=EDGE_CURVE('',#507,#476,#505,.T.) ;
#513=EDGE_CURVE('',#507,#500,#512,.T.) ;
#530=EDGE_CURVE('',#431,#500,#529,.F.) ;
#535=EDGE_CURVE('',#438,#507,#534,.F.) ;
#556=EDGE_CURVE('',#553,#555,#551,.F.) ;
#563=EDGE_CURVE('',#562,#555,#560,.T.) ;
#570=EDGE_CURVE('',#569,#562,#567,.F.) ;
#575=EDGE_CURVE('',#569,#553,#574,.T.) ;
#594=EDGE_CURVE('',#593,#553,#591,.F.) ;
#601=EDGE_CURVE('',#600,#569,#598,.F.) ;
#606=EDGE_CURVE('',#600,#593,#605,.T.) ;
#625=EDGE_CURVE('',#624,#593,#622,.T.) ;
#632=EDGE_CURVE('',#631,#600,#629,.T.) ;
#637=EDGE_CURVE('',#631,#624,#636,.T.) ;
#649=EDGE_CURVE('',#555,#624,#648,.T.) ;
#654=EDGE_CURVE('',#562,#631,#653,.T.) ;
#85=EDGE_LOOP('',(#86,#87,#88,#89)) ;
#116=EDGE_LOOP('',(#117,#118,#119,#120)) ;
#147=EDGE_LOOP('',(#148,#149,#150,#151)) ;
#169=EDGE_LOOP('',(#170,#171,#172,#173)) ;
#209=EDGE_LOOP('',(#210,#211,#212,#213)) ;
#240=EDGE_LOOP('',(#241,#242,#243,#244)) ;
#271=EDGE_LOOP('',(#272,#273,#274,#275)) ;
#293=EDGE_LOOP('',(#294,#295,#296,#297)) ;
#333=EDGE_LOOP('',(#334,#335,#336,#337)) ;
#364=EDGE_LOOP('',(#365,#366,#367,#368)) ;
#395=EDGE_LOOP('',(#396,#397,#398,#399)) ;
#417=EDGE_LOOP('',(#418,#419,#420,#421)) ;
#452=EDGE_LOOP('',(#453,#454,#455,#456)) ;
#483=EDGE_LOOP('',(#484,#485,#486,#487)) ;
#514=EDGE_LOOP('',(#515,#516,#517,#518)) ;
#536=EDGE_LOOP('',(#537,#538,#539,#540)) ;
#576=EDGE_LOOP('',(#577,#578,#579,#580)) ;
#607=EDGE_LOOP('',(#608,#609,#610,#611)) ;
#638=EDGE_LOOP('',(#639,#640,#641,#642)) ;
#655=EDGE_LOOP('',(#656,#657,#658,#659)) ;
#667=EDGE_LOOP('',(#668,#669,#670,#671)) ;
#673=EDGE_LOOP('',(#674,#675,#676,#677)) ;
#679=EDGE_LOOP('',(#680,#681,#682,#683)) ;
#685=EDGE_LOOP('',(#686,#687,#688,#689)) ;
#691=EDGE_LOOP('',(#692,#693,#694,#695)) ;
#703=EDGE_LOOP('',(#704,#705,#706,#707)) ;
#709=EDGE_LOOP('',(#710,#711,#712,#713)) ;
#715=EDGE_LOOP('',(#716,#717,#718,#719)) ;
#721=EDGE_LOOP('',(#722,#723,#724,#725)) ;
#727=EDGE_LOOP('',(#728,#729,#730,#731)) ;
#90=FACE_OUTER_BOUND('',#85,.T.) ;
#121=FACE_OUTER_BOUND('',#116,.T.) ;
#152=FACE_OUTER_BOUND('',#147,.T.) ;
#174=FACE_OUTER_BOUND('',#169,.T.) ;
#214=FACE_OUTER_BOUND('',#209,.T.) ;
#245=FACE_OUTER_BOUND('',#240,.T.) ;
#276=FACE_OUTER_BOUND('',#271,.T.) ;
#298=FACE_OUTER_BOUND('',#293,.T.) ;
#338=FACE_OUTER_BOUND('',#333,.T.) ;
#369=FACE_OUTER_BOUND('',#364,.T.) ;
#400=FACE_OUTER_BOUND('',#395,.T.) ;
#422=FACE_OUTER_BOUND('',#417,.T.) ;
#457=FACE_OUTER_BOUND('',#452,.T.) ;
#488=FACE_OUTER_BOUND('',#483,.T.) ;
#519=FACE_OUTER_BOUND('',#514,.T.) ;
#541=FACE_OUTER_BOUND('',#536,.T.) ;
#581=FACE_OUTER_BOUND('',#576,.T.) ;
#612=FACE_OUTER_BOUND('',#607,.T.) ;
#643=FACE_OUTER_BOUND('',#638,.T.) ;
#660=FACE_OUTER_BOUND('',#655,.T.) ;
#672=FACE_OUTER_BOUND('',#667,.T.) ;
#708=FACE_OUTER_BOUND('',#703,.T.) ;
#45=UNCERTAINTY_MEASURE_WITH_UNIT(LENGTH_MEASURE(0.005),#41,'distance_accuracy_value','CONFUSED CURVE UNCERTAINTY') ;
#60=LINE('Line',#57,#59) ;
#76=LINE('Line',#73,#75) ;
#100=LINE('Line',#97,#99) ;
#107=LINE('Line',#104,#106) ;
#114=LINE('Line',#111,#113) ;
#138=LINE('Line',#135,#137) ;
#162=LINE('Line',#159,#161) ;
#167=LINE('Line',#164,#166) ;
#193=LINE('Line',#190,#192) ;
#207=LINE('Line',#204,#206) ;
#224=LINE('Line',#221,#223) ;
#231=LINE('Line',#228,#230) ;
#238=LINE('Line',#235,#237) ;
#269=LINE('Line',#266,#268) ;
#286=LINE('Line',#283,#285) ;
#291=LINE('Line',#288,#290) ;
#317=LINE('Line',#314,#316) ;
#331=LINE('Line',#328,#330) ;
#348=LINE('Line',#345,#347) ;
#355=LINE('Line',#352,#354) ;
#362=LINE('Line',#359,#361) ;
#393=LINE('Line',#390,#392) ;
#410=LINE('Line',#407,#409) ;
#415=LINE('Line',#412,#414) ;
#436=LINE('Line',#433,#435) ;
#450=LINE('Line',#447,#449) ;
#467=LINE('Line',#464,#466) ;
#474=LINE('Line',#471,#473) ;
#481=LINE('Line',#478,#480) ;
#512=LINE('Line',#509,#511) ;
#529=LINE('Line',#526,#528) ;
#534=LINE('Line',#531,#533) ;
#551=LINE('Line',#548,#550) ;
#560=LINE('Line',#557,#559) ;
#567=LINE('Line',#564,#566) ;
#574=LINE('Line',#571,#573) ;
#605=LINE('Line',#602,#604) ;
#622=LINE('Line',#619,#621) ;
#629=LINE('Line',#626,#628) ;
#636=LINE('Line',#633,#635) ;
#2=MECHANICAL_CONTEXT(' ',#1,'mechanical') ;
#24=PERSONAL_ADDRESS(' ',' ',' ',' ',' ',' ',' ',' ',' ',' ',' ',' ',(#22),' ') ;
#96=PLANE('',#95) ;
#158=PLANE('',#157) ;
#220=PLANE('',#219) ;
#282=PLANE('',#281) ;
#344=PLANE('',#343) ;
#406=PLANE('',#405) ;
#463=PLANE('',#462) ;
#525=PLANE('',#524) ;
#547=PLANE('',#546) ;
#618=PLANE('',#617) ;
#666=PLANE('',#665) ;
#702=PLANE('',#701) ;
#43=PLANE_ANGLE_MEASURE_WITH_UNIT(PLANE_ANGLE_MEASURE(0.0174532925199),#42) ;
#7=PRODUCT_CATEGORY('part',$) ;
#9=PRODUCT_CATEGORY_RELATIONSHIP(' ',' ',#7,#8) ;
#6=PRODUCT_DEFINITION_FORMATION_WITH_SPECIFIED_SOURCE('',' ',#5,.NOT_KNOWN.) ;
#8=PRODUCT_RELATED_PRODUCT_CATEGORY('detail',$,(#5)) ;
#50=SHAPE_DEFINITION_REPRESENTATION(#40,#49) ;
#62=VERTEX_POINT('',#61) ;
#64=VERTEX_POINT('',#63) ;
#71=VERTEX_POINT('',#70) ;
#78=VERTEX_POINT('',#77) ;
#102=VERTEX_POINT('',#101) ;
#109=VERTEX_POINT('',#108) ;
#133=VERTEX_POINT('',#132) ;
#140=VERTEX_POINT('',#139) ;
#186=VERTEX_POINT('',#185) ;
#188=VERTEX_POINT('',#187) ;
#195=VERTEX_POINT('',#194) ;
#202=VERTEX_POINT('',#201) ;
#226=VERTEX_POINT('',#225) ;
#233=VERTEX_POINT('',#232) ;
#257=VERTEX_POINT('',#256) ;
#264=VERTEX_POINT('',#263) ;
#310=VERTEX_POINT('',#309) ;
#312=VERTEX_POINT('',#311) ;
#319=VERTEX_POINT('',#318) ;
#326=VERTEX_POINT('',#325) ;
#350=VERTEX_POINT('',#349) ;
#357=VERTEX_POINT('',#356) ;
#381=VERTEX_POINT('',#380) ;
#388=VERTEX_POINT('',#387) ;
#429=VERTEX_POINT('',#428) ;
#431=VERTEX_POINT('',#430) ;
#438=VERTEX_POINT('',#437) ;
#445=VERTEX_POINT('',#444) ;
#469=VERTEX_POINT('',#468) ;
#476=VERTEX_POINT('',#475) ;
#500=VERTEX_POINT('',#499) ;
#507=VERTEX_POINT('',#506) ;
#553=VERTEX_POINT('',#552) ;
#555=VERTEX_POINT('',#554) ;
#562=VERTEX_POINT('',#561) ;
#569=VERTEX_POINT('',#568) ;
#593=VERTEX_POINT('',#592) ;
#600=VERTEX_POINT('',#599) ;
#624=VERTEX_POINT('',#623) ;
#631=VERTEX_POINT('',#630) ;
#41=(LENGTH_UNIT()NAMED_UNIT(*)SI_UNIT(.MILLI.,.METRE.)) ;
#42=(NAMED_UNIT(*)PLANE_ANGLE_UNIT()SI_UNIT($,.RADIAN.)) ;
#44=(NAMED_UNIT(*)SI_UNIT($,.STERADIAN.)SOLID_ANGLE_UNIT()) ;
#46=(GEOMETRIC_REPRESENTATION_CONTEXT(3)GLOBAL_UNCERTAINTY_ASSIGNED_CONTEXT((#45))GLOBAL_UNIT_ASSIGNED_CONTEXT((#41,#42,#44))REPRESENTATION_CONTEXT(' ',' ')) ;
ENDSEC;
END-ISO-10303-21;
